<?xml version="1.0" encoding="utf-8"?>
<svg xmlns="http://www.w3.org/2000/svg" width="144" height="48" viewBox="0 0 144 48" fill="none">
<path fill-rule="evenodd" clip-rule="evenodd" d="M28.0079 23.9468C28.0079 15.6122 34.1519 10 42.5039 10C50.8319 10 56.9999 15.5166 56.9759 23.7796C56.9759 32.1143 50.8319 37.7264 42.4799 37.7264C34.1759 37.7264 28.0079 32.2098 28.0079 23.9468ZM125.928 10.2148C123.768 10.2148 122.304 10.2865 120.624 10.5492C118.656 10.8596 117.96 11.8388 117.96 13.7015V34.0247C117.96 35.8875 118.656 36.8905 120.624 37.1771C122.304 37.4398 123.768 37.5114 125.928 37.5114C135.456 37.5114 144 33.3321 144 23.8512C144 14.3702 135.456 10.2148 125.928 10.2148ZM18.24 23.0392V22.8959C22.248 21.8452 24.12 19.4331 24.12 16.7823C24.12 14.012 22.176 12.1493 18.96 11.2179C17.064 10.6686 14.208 10.2387 10.296 10.2387C7.152 10.2387 4.44 10.4537 2.592 10.8119C0.576 11.2179 0 12.0776 0 13.9165V33.9053C0 35.6487 0.576 36.6517 2.592 37.0099C4.272 37.3204 7.176 37.5114 10.296 37.5114C13.896 37.5114 16.872 37.1532 19.2 36.4845C22.752 35.4098 25.08 33.0217 25.08 29.9887C25.08 27.0036 23.04 24.2572 18.24 23.0392ZM114.408 12.6026C114.408 11.6234 114.048 11.1697 113.016 10.907C111.24 10.4532 107.52 10.1905 102.36 10.1905C99.408 10.1905 95.592 10.4293 93.456 10.7398C91.488 11.0503 90.816 12.0294 90.816 13.8205V33.8571C90.816 35.6482 91.488 36.6512 93.456 36.9378C95.592 37.2722 99.408 37.4871 102.36 37.4871C107.52 37.4871 111.24 37.2005 113.016 36.7706C114.072 36.5079 114.408 36.0542 114.408 35.0751C114.408 32.5436 112.392 29.248 106.824 27.9584V27.7912C110.784 27.3613 112.32 25.7135 112.32 23.8269C112.32 21.9641 110.784 20.3163 106.824 19.8625V19.6954C112.392 18.4296 114.408 15.134 114.408 12.6026ZM86.7839 14.9195L81.5039 23.3974L87.2879 32.9023C87.7439 33.6903 87.7439 34.4546 87.1919 35.0755C85.8719 36.5322 83.5679 37.4875 80.7839 37.4875C77.6159 37.4875 74.9759 36.2218 73.1759 34.0247H73.0799C71.2799 36.2218 68.6879 37.4875 65.5439 37.4875C62.7599 37.4875 60.4319 36.5322 59.1359 35.0755C58.5839 34.4546 58.5839 33.6903 59.0399 32.9023L64.7999 23.3974L59.5199 14.9195C58.9679 14.012 59.0399 13.2956 59.7119 12.5791C61.0559 11.194 63.5759 10.2148 66.0239 10.2148C68.9519 10.2148 71.3759 11.2895 73.1279 13.2239H73.2239C74.9519 11.2656 77.3519 10.2148 80.2799 10.2148C82.7279 10.2148 85.2719 11.194 86.5919 12.5791C87.2639 13.2956 87.3359 14.012 86.7839 14.9195Z" fill="#00B8A4"/>
</svg>