<svg width="968" height="752" viewBox="0 0 968 752" fill="none" xmlns="http://www.w3.org/2000/svg">
<rect x="16" y="16" width="468" height="360" fill="#00ED64"/>
<path d="M59.3358 79.5045C61.7838 79.5045 63.3837 78.0005 63.3837 76.0645C63.3837 74.2885 62.2318 73.0725 60.3758 72.5925L59.0798 72.2565C58.1998 72.0325 57.6878 71.6645 57.7038 71.0405C57.7198 70.4325 58.3118 70.1125 59.0477 70.1125C59.6558 70.1125 60.3598 70.4165 60.6158 71.3125H63.1438C63.0798 69.5685 61.5278 67.7605 59.0477 67.7605C56.6957 67.7605 55.1278 69.0725 55.1438 71.2165C55.1598 72.9925 56.4078 74.1445 58.2158 74.6245L59.3198 74.9125C60.4078 75.2005 60.8078 75.6165 60.8078 76.1445C60.8078 76.7845 60.1838 77.1525 59.3358 77.1525C58.3438 77.1525 57.5598 76.6245 57.3998 75.6645H54.8558C54.9518 77.5685 56.5198 79.5045 59.3358 79.5045ZM64.8514 82.6565H67.2674V78.5125C67.5874 78.9445 68.3714 79.4885 69.4434 79.4885C71.5394 79.4885 73.1554 77.5845 73.1554 75.3125C73.1554 73.0405 71.5394 71.1365 69.4434 71.1365C68.3714 71.1365 67.5874 71.6805 67.2674 72.1125V71.3125H64.8514V82.6565ZM68.8994 77.2965C67.8114 77.2965 67.0754 76.4645 67.0754 75.3125C67.0754 74.1605 67.8114 73.3285 68.8994 73.3285C69.9874 73.3285 70.7234 74.1605 70.7234 75.3125C70.7234 76.4645 69.9874 77.2965 68.8994 77.2965ZM74.6639 79.3125H77.0799V75.5205C77.0799 74.3685 77.6559 73.5685 78.6959 73.5685C79.0799 73.5685 79.3999 73.6325 79.7679 73.7605V71.3125C79.4799 71.2325 79.2239 71.2165 78.9839 71.2165C78.1039 71.2165 77.3359 71.8085 77.0799 72.5125V71.3125H74.6639V79.3125ZM82.317 70.2245C83.165 70.2245 83.837 69.5525 83.837 68.7205C83.837 67.8885 83.165 67.2165 82.317 67.2165C81.501 67.2165 80.813 67.8885 80.813 68.7205C80.813 69.5525 81.501 70.2245 82.317 70.2245ZM81.117 79.3125H83.533V71.3125H81.117V79.3125ZM85.5233 79.3125H87.9393V75.4245C87.9393 73.9845 88.6432 73.3285 89.5553 73.3285C90.4193 73.3285 90.8513 74.0005 90.8513 75.1045V79.3125H93.2673V74.6885C93.2673 72.5925 92.1313 71.1365 90.1633 71.1365C89.1233 71.1365 88.3233 71.5845 87.9393 72.1285V71.3125H85.5233V79.3125ZM98.9243 82.8165C100.988 82.8165 103.004 81.7765 103.004 78.8165V71.3125H100.588V72.1125C100.22 71.5685 99.3883 71.1365 98.4123 71.1365C96.3643 71.1365 94.6683 72.9285 94.6683 75.1685C94.6683 77.4085 96.3643 79.2005 98.4123 79.2005C99.3883 79.2005 100.22 78.7685 100.588 78.2245V79.1685C100.588 80.3045 99.8203 80.8165 98.9883 80.8165C98.1723 80.8165 97.6283 80.4965 97.3723 79.7445H95.0203C95.1483 81.4725 96.6363 82.8165 98.9243 82.8165ZM98.9403 77.0085C97.9643 77.0085 97.1003 76.2885 97.1003 75.1685C97.1003 74.0485 97.9643 73.3285 98.9403 73.3285C99.9163 73.3285 100.78 74.0485 100.78 75.1685C100.78 76.2885 99.9163 77.0085 98.9403 77.0085ZM114.17 79.5045C117.578 79.5045 120.314 77.2485 119.754 72.4325H113.85V74.8165H117.114C116.842 76.1925 115.866 77.0405 114.17 77.0405C112.058 77.0405 110.73 75.5365 110.73 73.6325C110.73 71.7285 112.058 70.2245 114.138 70.2245C115.05 70.2245 116.01 70.5925 116.554 71.3125H119.482C118.682 69.1045 116.442 67.7605 114.138 67.7605C110.666 67.7605 108.17 70.3365 108.17 73.6325C108.17 76.9285 110.666 79.5045 114.17 79.5045ZM121.305 79.3125H123.721V75.5205C123.721 74.3685 124.297 73.5685 125.337 73.5685C125.721 73.5685 126.041 73.6325 126.409 73.7605V71.3125C126.121 71.2325 125.865 71.2165 125.625 71.2165C124.745 71.2165 123.977 71.8085 123.721 72.5125V71.3125H121.305V79.3125ZM131.236 79.4885C133.252 79.4885 134.916 78.3205 135.428 76.6565H132.9C132.708 77.0885 132.068 77.4085 131.364 77.4085C130.068 77.4085 129.46 76.6885 129.348 75.8725H135.508C135.604 72.7045 133.54 71.1365 131.236 71.1365C128.82 71.1365 126.996 72.8965 126.996 75.2965C126.996 77.7285 128.756 79.4885 131.236 79.4885ZM131.172 73.0565C131.796 73.0565 132.58 73.3765 132.836 74.3365H129.412C129.62 73.6005 130.212 73.0565 131.172 73.0565ZM140.768 79.4885C142.784 79.4885 144.448 78.3205 144.96 76.6565H142.432C142.24 77.0885 141.6 77.4085 140.896 77.4085C139.6 77.4085 138.992 76.6885 138.88 75.8725H145.04C145.136 72.7045 143.072 71.1365 140.768 71.1365C138.352 71.1365 136.528 72.8965 136.528 75.2965C136.528 77.7285 138.288 79.4885 140.768 79.4885ZM140.704 73.0565C141.328 73.0565 142.112 73.3765 142.368 74.3365H138.944C139.152 73.6005 139.744 73.0565 140.704 73.0565ZM146.539 79.3125H148.955V75.4245C148.955 73.9845 149.659 73.3285 150.571 73.3285C151.435 73.3285 151.867 74.0005 151.867 75.1045V79.3125H154.283V74.6885C154.283 72.5925 153.147 71.1365 151.179 71.1365C150.139 71.1365 149.339 71.5845 148.955 72.1285V71.3125H146.539V79.3125Z" fill="#001E2B"/>
<path d="M58.858 140H59.964L60.818 137.2H62.834V136.178H61.154L61.896 133.784H63.842V132.762H62.218L63.058 130.06H61.966L61.112 132.762H58.592L59.432 130.06H58.326L57.486 132.762H55.484V133.784H57.164L56.408 136.178H54.462V137.2H56.086L55.218 140H56.338L57.192 137.2H59.726L58.858 140ZM58.27 133.784H60.79L60.048 136.178H57.528L58.27 133.784ZM72.2043 136.402V133.63C72.2043 131.432 70.7203 129.892 68.6763 129.892C66.6323 129.892 65.1623 131.432 65.1623 133.63V136.402C65.1623 138.614 66.6323 140.14 68.6763 140.14C70.7203 140.14 72.2043 138.614 72.2043 136.402ZM66.3663 136.402V133.63C66.3663 132.02 67.3323 131.068 68.6763 131.068C70.0343 131.068 71.0003 132.02 71.0003 133.63V136.402C71.0003 138.012 70.0343 138.964 68.6763 138.964C67.3323 138.964 66.3663 138.012 66.3663 136.402ZM80.9269 136.402V133.63C80.9269 131.432 79.4429 129.892 77.3989 129.892C75.3549 129.892 73.8849 131.432 73.8849 133.63V136.402C73.8849 138.614 75.3549 140.14 77.3989 140.14C79.4429 140.14 80.9269 138.614 80.9269 136.402ZM75.0889 136.402V133.63C75.0889 132.02 76.0549 131.068 77.3989 131.068C78.7569 131.068 79.7229 132.02 79.7229 133.63V136.402C79.7229 138.012 78.7569 138.964 77.3989 138.964C76.0549 138.964 75.0889 138.012 75.0889 136.402ZM83.0836 140H88.8796V138.768H84.3856V135.534H88.0396V134.302H84.3856V131.292H88.8796V130.06H83.0836V140ZM90.8765 140H93.7325C96.7845 140 99.0245 137.872 99.0245 135.03C99.0245 132.188 96.7845 130.06 93.7325 130.06H90.8765V140ZM92.1785 138.782V131.278H93.7325C96.1265 131.278 97.7085 132.874 97.7085 135.03C97.7085 137.186 96.1265 138.782 93.7325 138.782H92.1785ZM106.888 136.836C106.888 135.1 105.446 133.63 103.78 133.63C103.654 133.63 103.528 133.644 103.388 133.658L106.426 130.06H104.9L101.274 134.33C100.658 135.058 100.154 135.814 100.154 136.864C100.154 138.67 101.596 140.14 103.528 140.14C105.46 140.14 106.888 138.67 106.888 136.836ZM101.386 136.836C101.386 135.66 102.31 134.694 103.528 134.694C104.732 134.694 105.656 135.66 105.656 136.836C105.656 138.012 104.732 138.978 103.528 138.978C102.31 138.978 101.386 138.012 101.386 136.836ZM113.001 140H114.205V137.298H115.577V136.164H114.205V130.06H113.155L107.709 136.332V137.298H113.001V140ZM113.001 136.164H109.291L113.001 131.88V136.164ZM54.644 157.03C54.644 159.928 56.884 162.168 59.796 162.168C62.302 162.168 64.122 160.53 64.556 158.724H63.184C62.75 159.97 61.448 160.936 59.796 160.936C57.584 160.936 55.946 159.228 55.946 157.03C55.946 154.832 57.584 153.124 59.796 153.124C61.448 153.124 62.75 154.09 63.184 155.336H64.556C64.122 153.53 62.302 151.892 59.796 151.892C56.884 151.892 54.644 154.132 54.644 157.03ZM71.2352 159.088L74.8192 154.272V162H76.1072V152.06H74.9312L71.2352 157.016L67.5392 152.06H66.3492V162H67.6512V154.272L71.2352 159.088ZM81.5076 162H82.7956V157.8L86.6736 152.06H85.1196L82.1516 156.484L79.1976 152.06H77.6436L81.5076 157.786V162ZM88.1832 162H89.4712V157.268L94.7492 162H96.5832L90.7872 156.792L95.5052 152.06H93.8112L89.4712 156.372V152.06H88.1832V162ZM99.7442 159.312C99.7862 160.838 101.284 162.14 103.076 162.14C105.008 162.14 106.45 160.74 106.45 158.99C106.45 157.03 105.148 155.56 103.286 155.56C102.544 155.56 101.942 155.784 101.55 156.078L102.096 153.236H105.778V152.06H101.13L100.108 157.366L101.256 157.702C101.634 157.1 102.278 156.694 103.132 156.694C104.364 156.694 105.218 157.646 105.218 158.836C105.218 160.012 104.308 160.964 103.076 160.964C102.026 160.964 101.2 160.25 100.976 159.312H99.7442ZM109.204 162L113.936 153.068V152.06H107.412V153.236H112.508L107.86 162H109.204ZM113.315 163.54H114.449L119.853 152.06H118.719L113.315 163.54ZM128.027 158.402V155.63C128.027 153.432 126.543 151.892 124.499 151.892C122.455 151.892 120.985 153.432 120.985 155.63V158.402C120.985 160.614 122.455 162.14 124.499 162.14C126.543 162.14 128.027 160.614 128.027 158.402ZM122.189 158.402V155.63C122.189 154.02 123.155 153.068 124.499 153.068C125.857 153.068 126.823 154.02 126.823 155.63V158.402C126.823 160.012 125.857 160.964 124.499 160.964C123.155 160.964 122.189 160.012 122.189 158.402ZM128.86 163.54H129.994L135.398 152.06H134.264L128.86 163.54ZM137.887 162L142.619 153.068V152.06H136.095V153.236H141.191L136.543 162H137.887ZM143.849 162H145.389L149.029 157.702C149.645 156.974 150.149 156.218 150.149 155.168C150.149 153.362 148.707 151.892 146.775 151.892C144.843 151.892 143.415 153.362 143.415 155.21C143.415 156.932 144.857 158.402 146.523 158.402C146.663 158.402 146.789 158.402 146.915 158.374L143.849 162ZM144.647 155.196C144.647 154.02 145.557 153.054 146.775 153.054C147.993 153.054 148.917 154.02 148.917 155.196C148.917 156.372 147.993 157.338 146.775 157.338C145.557 157.338 144.647 156.372 144.647 155.196ZM150.093 163.54H151.227L156.631 152.06H155.497L150.093 163.54ZM164.804 158.402V155.63C164.804 153.432 163.32 151.892 161.276 151.892C159.232 151.892 157.762 153.432 157.762 155.63V158.402C157.762 160.614 159.232 162.14 161.276 162.14C163.32 162.14 164.804 160.614 164.804 158.402ZM158.966 158.402V155.63C158.966 154.02 159.932 153.068 161.276 153.068C162.634 153.068 163.6 154.02 163.6 155.63V158.402C163.6 160.012 162.634 160.964 161.276 160.964C159.932 160.964 158.966 160.012 158.966 158.402Z" fill="#001E2B"/>
<path d="M58.354 185.06H55.316V195H56.618V191.374H58.354C60.426 191.374 61.77 190.016 61.77 188.224C61.77 186.432 60.426 185.06 58.354 185.06ZM58.354 190.17H56.618V186.278H58.354C59.726 186.278 60.482 187.118 60.482 188.224C60.482 189.33 59.726 190.17 58.354 190.17ZM61.8086 195H63.1526L64.4266 192.102H69.0606L70.3346 195H71.6926L67.2826 185.06H66.2046L61.8086 195ZM64.9306 190.926L66.7366 186.824L68.5426 190.926H64.9306ZM81.5594 195V185.06H80.2714V192.802L74.2234 185.06H73.0894V195H74.3914V187.258L80.4394 195H81.5594ZM86.2207 195H87.4947V186.292H90.5887V185.06H83.1267V186.292H86.2207V195ZM101.232 190.03C101.232 187.146 98.9642 184.892 96.0942 184.892C93.2382 184.892 90.9562 187.146 90.9562 190.03C90.9562 192.914 93.2382 195.168 96.0942 195.168C98.9642 195.168 101.232 192.914 101.232 190.03ZM92.2722 190.03C92.2722 187.846 93.9242 186.124 96.0942 186.124C98.2782 186.124 99.9302 187.846 99.9302 190.03C99.9302 192.214 98.2782 193.936 96.0942 193.936C93.9242 193.936 92.2722 192.214 92.2722 190.03ZM111.665 195V185.06H110.377V192.802L104.329 185.06H103.195V195H104.497V187.258L110.545 195H111.665ZM114.31 195H120.106V193.768H115.612V190.534H119.266V189.302H115.612V186.292H120.106V185.06H114.31V195ZM131.693 190.03C131.693 187.202 129.369 184.892 126.541 184.892C123.727 184.892 121.417 187.202 121.417 190.03C121.417 192.858 123.727 195.168 126.541 195.168C129.369 195.168 131.693 192.858 131.693 190.03ZM122.411 190.03C122.411 187.748 124.287 185.886 126.541 185.886C128.823 185.886 130.699 187.748 130.699 190.03C130.699 192.312 128.823 194.174 126.541 194.174C124.287 194.174 122.411 192.312 122.411 190.03ZM124.889 192.634H125.883V190.408H126.191L128.025 192.634H129.215L127.325 190.31C128.039 190.1 128.431 189.638 128.431 188.938C128.431 188.07 127.815 187.412 126.835 187.412H124.889V192.634ZM125.883 189.554V188.336H126.723C127.157 188.336 127.451 188.546 127.451 188.938C127.451 189.316 127.157 189.554 126.723 189.554H125.883ZM136.347 190.03C136.347 192.928 138.587 195.168 141.499 195.168C144.397 195.168 146.763 192.942 146.483 189.316H141.443V190.534H145.153C144.971 192.494 143.543 193.936 141.499 193.936C139.287 193.936 137.649 192.228 137.649 190.03C137.649 187.832 139.287 186.124 141.499 186.124C142.997 186.124 144.229 186.922 144.761 188H146.203C145.643 186.348 143.851 184.892 141.499 184.892C138.587 184.892 136.347 187.132 136.347 190.03ZM148.198 195H149.402V191.528C149.402 189.89 150.368 189.12 151.25 189.12C151.488 189.12 151.684 189.148 151.908 189.232V187.986C151.712 187.944 151.544 187.93 151.362 187.93C150.55 187.93 149.682 188.462 149.402 189.358V188H148.198V195ZM159.337 192.872H158.105C157.685 193.712 156.943 194.048 156.075 194.048C154.815 194.048 153.793 193.096 153.751 191.822H159.449C159.617 189.652 158.287 187.86 156.089 187.86C153.905 187.86 152.533 189.456 152.533 191.5C152.533 193.586 154.017 195.14 156.061 195.14C157.839 195.14 158.987 194.104 159.337 192.872ZM156.047 188.924C157.083 188.924 157.951 189.568 158.175 190.87H153.807C154.045 189.484 155.039 188.924 156.047 188.924ZM167.445 192.872H166.213C165.793 193.712 165.051 194.048 164.183 194.048C162.923 194.048 161.901 193.096 161.859 191.822H167.557C167.725 189.652 166.395 187.86 164.197 187.86C162.013 187.86 160.641 189.456 160.641 191.5C160.641 193.586 162.125 195.14 164.169 195.14C165.947 195.14 167.095 194.104 167.445 192.872ZM164.155 188.924C165.191 188.924 166.059 189.568 166.283 190.87H161.915C162.153 189.484 163.147 188.924 164.155 188.924ZM169.294 195H170.498V191.528C170.498 189.89 171.394 188.966 172.528 188.966C173.508 188.966 174.18 189.694 174.18 190.87V195H175.37V190.688C175.37 188.952 174.292 187.86 172.724 187.86C171.814 187.86 170.974 188.252 170.498 189.078V188H169.294V195ZM58.354 207.06H55.316V217H56.618V213.374H58.354C60.426 213.374 61.77 212.016 61.77 210.224C61.77 208.432 60.426 207.06 58.354 207.06ZM58.354 212.17H56.618V208.278H58.354C59.726 208.278 60.482 209.118 60.482 210.224C60.482 211.33 59.726 212.17 58.354 212.17ZM61.8086 217H63.1526L64.4266 214.102H69.0606L70.3346 217H71.6926L67.2826 207.06H66.2046L61.8086 217ZM64.9306 212.926L66.7366 208.824L68.5426 212.926H64.9306ZM81.5594 217V207.06H80.2714V214.802L74.2234 207.06H73.0894V217H74.3914V209.258L80.4394 217H81.5594ZM86.2207 217H87.4947V208.292H90.5887V207.06H83.1267V208.292H86.2207V217ZM101.232 212.03C101.232 209.146 98.9642 206.892 96.0942 206.892C93.2382 206.892 90.9562 209.146 90.9562 212.03C90.9562 214.914 93.2382 217.168 96.0942 217.168C98.9642 217.168 101.232 214.914 101.232 212.03ZM92.2722 212.03C92.2722 209.846 93.9242 208.124 96.0942 208.124C98.2782 208.124 99.9302 209.846 99.9302 212.03C99.9302 214.214 98.2782 215.936 96.0942 215.936C93.9242 215.936 92.2722 214.214 92.2722 212.03ZM111.665 217V207.06H110.377V214.802L104.329 207.06H103.195V217H104.497V209.258L110.545 217H111.665ZM114.31 217H120.106V215.768H115.612V212.534H119.266V211.302H115.612V208.292H120.106V207.06H114.31V217ZM131.693 212.03C131.693 209.202 129.369 206.892 126.541 206.892C123.727 206.892 121.417 209.202 121.417 212.03C121.417 214.858 123.727 217.168 126.541 217.168C129.369 217.168 131.693 214.858 131.693 212.03ZM122.411 212.03C122.411 209.748 124.287 207.886 126.541 207.886C128.823 207.886 130.699 209.748 130.699 212.03C130.699 214.312 128.823 216.174 126.541 216.174C124.287 216.174 122.411 214.312 122.411 212.03ZM124.889 214.634H125.883V212.408H126.191L128.025 214.634H129.215L127.325 212.31C128.039 212.1 128.431 211.638 128.431 210.938C128.431 210.07 127.815 209.412 126.835 209.412H124.889V214.634ZM125.883 211.554V210.336H126.723C127.157 210.336 127.451 210.546 127.451 210.938C127.451 211.316 127.157 211.554 126.723 211.554H125.883ZM139.299 217H140.587V212.8L144.465 207.06H142.911L139.943 211.484L136.989 207.06H135.435L139.299 212.786V217ZM150.451 214.872H149.219C148.799 215.712 148.057 216.048 147.189 216.048C145.929 216.048 144.907 215.096 144.865 213.822H150.563C150.731 211.652 149.401 209.86 147.203 209.86C145.019 209.86 143.647 211.456 143.647 213.5C143.647 215.586 145.131 217.14 147.175 217.14C148.953 217.14 150.101 216.104 150.451 214.872ZM147.161 210.924C148.197 210.924 149.065 211.568 149.289 212.87H144.921C145.159 211.484 146.153 210.924 147.161 210.924ZM152.3 217H153.504V206.5H152.3V217ZM155.786 217H156.99V206.5H155.786V217ZM166.035 213.5C166.035 211.484 164.481 209.86 162.381 209.86C160.267 209.86 158.713 211.484 158.713 213.5C158.713 215.516 160.267 217.14 162.381 217.14C164.481 217.14 166.035 215.516 166.035 213.5ZM159.945 213.5C159.945 212.1 160.925 210.98 162.381 210.98C163.837 210.98 164.803 212.1 164.803 213.5C164.803 214.9 163.837 216.02 162.381 216.02C160.925 216.02 159.945 214.9 159.945 213.5ZM173.672 217H174.736L177.116 210H175.842L174.148 215.11L172.398 210H171.474L169.724 215.11L168.03 210H166.77L169.15 217H170.214L171.95 211.96L173.672 217ZM188.292 213.402V210.63C188.292 208.432 186.808 206.892 184.764 206.892C182.72 206.892 181.25 208.432 181.25 210.63V213.402C181.25 215.614 182.72 217.14 184.764 217.14C186.808 217.14 188.292 215.614 188.292 213.402ZM182.454 213.402V210.63C182.454 209.02 183.42 208.068 184.764 208.068C186.122 208.068 187.088 209.02 187.088 210.63V213.402C187.088 215.012 186.122 215.964 184.764 215.964C183.42 215.964 182.454 215.012 182.454 213.402ZM191.163 217H192.367V207.06H190.225L189.245 208.25H191.163V217ZM200.812 215.838H195.856C196.094 214.69 197.256 214.116 198.404 213.276C200.028 212.1 200.7 211.26 200.7 209.804C200.7 207.872 199.286 206.892 197.634 206.892C195.8 206.892 194.358 208.124 194.358 210.028H195.59C195.604 208.74 196.556 208.068 197.648 208.068C198.726 208.068 199.468 208.754 199.468 209.79C199.468 210.952 198.852 211.47 197.704 212.324C196.234 213.416 194.372 214.396 194.372 216.524V217H200.812V215.838ZM58.354 229.06H55.316V239H56.618V235.374H58.354C60.426 235.374 61.77 234.016 61.77 232.224C61.77 230.432 60.426 229.06 58.354 229.06ZM58.354 234.17H56.618V230.278H58.354C59.726 230.278 60.482 231.118 60.482 232.224C60.482 233.33 59.726 234.17 58.354 234.17ZM61.8086 239H63.1526L64.4266 236.102H69.0606L70.3346 239H71.6926L67.2826 229.06H66.2046L61.8086 239ZM64.9306 234.926L66.7366 230.824L68.5426 234.926H64.9306ZM81.5594 239V229.06H80.2714V236.802L74.2234 229.06H73.0894V239H74.3914V231.258L80.4394 239H81.5594ZM86.2207 239H87.4947V230.292H90.5887V229.06H83.1267V230.292H86.2207V239ZM101.232 234.03C101.232 231.146 98.9642 228.892 96.0942 228.892C93.2382 228.892 90.9562 231.146 90.9562 234.03C90.9562 236.914 93.2382 239.168 96.0942 239.168C98.9642 239.168 101.232 236.914 101.232 234.03ZM92.2722 234.03C92.2722 231.846 93.9242 230.124 96.0942 230.124C98.2782 230.124 99.9302 231.846 99.9302 234.03C99.9302 236.214 98.2782 237.936 96.0942 237.936C93.9242 237.936 92.2722 236.214 92.2722 234.03ZM111.665 239V229.06H110.377V236.802L104.329 229.06H103.195V239H104.497V231.258L110.545 239H111.665ZM114.31 239H120.106V237.768H115.612V234.534H119.266V233.302H115.612V230.292H120.106V229.06H114.31V239ZM131.693 234.03C131.693 231.202 129.369 228.892 126.541 228.892C123.727 228.892 121.417 231.202 121.417 234.03C121.417 236.858 123.727 239.168 126.541 239.168C129.369 239.168 131.693 236.858 131.693 234.03ZM122.411 234.03C122.411 231.748 124.287 229.886 126.541 229.886C128.823 229.886 130.699 231.748 130.699 234.03C130.699 236.312 128.823 238.174 126.541 238.174C124.287 238.174 122.411 236.312 122.411 234.03ZM124.889 236.634H125.883V234.408H126.191L128.025 236.634H129.215L127.325 234.31C128.039 234.1 128.431 233.638 128.431 232.938C128.431 232.07 127.815 231.412 126.835 231.412H124.889V236.634ZM125.883 233.554V232.336H126.723C127.157 232.336 127.451 232.546 127.451 232.938C127.451 233.316 127.157 233.554 126.723 233.554H125.883ZM138.57 239H139.844V230.292H142.938V229.06H135.476V230.292H138.57V239ZM143.058 239H144.262V235.528C144.262 233.89 145.228 233.12 146.11 233.12C146.348 233.12 146.544 233.148 146.768 233.232V231.986C146.572 231.944 146.404 231.93 146.222 231.93C145.41 231.93 144.542 232.462 144.262 233.358V232H143.058V239ZM147.406 235.5C147.406 237.502 148.876 239.14 150.836 239.14C151.886 239.14 152.838 238.594 153.3 237.922V239H154.504V232H153.3V233.078C152.838 232.406 151.886 231.86 150.836 231.86C148.876 231.86 147.406 233.498 147.406 235.5ZM153.398 235.5C153.398 236.914 152.432 238.034 151.018 238.034C149.604 238.034 148.624 236.914 148.624 235.5C148.624 234.086 149.604 232.966 151.018 232.966C152.432 232.966 153.398 234.086 153.398 235.5ZM156.771 239H157.975V235.528C157.975 233.89 158.871 232.966 160.005 232.966C160.985 232.966 161.657 233.694 161.657 234.87V239H162.847V234.688C162.847 232.952 161.769 231.86 160.201 231.86C159.291 231.86 158.451 232.252 157.975 233.078V232H156.771V239ZM169.845 237.11C169.845 236.06 169.215 235.332 168.053 235.038L166.933 234.744C166.191 234.548 165.869 234.254 165.869 233.736C165.869 233.204 166.401 232.868 167.073 232.868C167.731 232.868 168.235 233.246 168.417 233.862H169.621C169.495 232.742 168.571 231.86 167.073 231.86C165.659 231.86 164.651 232.588 164.651 233.75C164.651 234.744 165.253 235.5 166.457 235.808L167.465 236.074C168.291 236.298 168.627 236.634 168.627 237.194C168.627 237.81 168.039 238.118 167.283 238.118C166.555 238.118 165.827 237.824 165.659 236.97H164.427C164.525 238.384 165.771 239.14 167.269 239.14C168.725 239.14 169.845 238.496 169.845 237.11ZM173.216 238.062C173.216 237.502 172.754 237.012 172.18 237.012C171.606 237.012 171.144 237.502 171.144 238.062C171.144 238.636 171.606 239.112 172.18 239.112C172.754 239.112 173.216 238.636 173.216 238.062ZM186.05 239H187.212L189.928 229.06H188.57L186.484 236.816L183.614 228.892L180.758 236.816L178.672 229.06H177.314L180.03 239H181.192L183.628 232.252L186.05 239ZM191.388 239H192.592V235.528C192.592 233.89 193.488 232.966 194.622 232.966C195.602 232.966 196.274 233.694 196.274 234.87V239H197.464V234.688C197.464 232.952 196.386 231.86 194.818 231.86C193.908 231.86 193.068 232.252 192.592 233.078V228.5H191.388V239ZM201.088 229.27C201.088 228.808 200.724 228.416 200.248 228.416C199.772 228.416 199.38 228.808 199.38 229.27C199.38 229.746 199.772 230.124 200.248 230.124C200.724 230.124 201.088 229.746 201.088 229.27ZM199.632 239H200.836V232H199.632V239ZM206.912 238.902V237.824C206.688 237.908 206.352 237.964 206.058 237.964C205.302 237.964 204.896 237.67 204.896 236.774V233.106H206.912V232H204.896V230.054H203.692V232H202.208V233.106H203.692V236.928C203.692 238.384 204.616 239.07 205.834 239.07C206.268 239.07 206.618 239 206.912 238.902ZM214.613 236.872H213.381C212.961 237.712 212.219 238.048 211.351 238.048C210.091 238.048 209.069 237.096 209.027 235.822H214.725C214.893 233.652 213.563 231.86 211.365 231.86C209.181 231.86 207.809 233.456 207.809 235.5C207.809 237.586 209.293 239.14 211.337 239.14C213.115 239.14 214.263 238.104 214.613 236.872ZM211.323 232.924C212.359 232.924 213.227 233.568 213.451 234.87H209.083C209.321 233.484 210.315 232.924 211.323 232.924Z" fill="#001E2B"/>
<path d="M266.126 193.838H261.17C261.408 192.69 262.57 192.116 263.718 191.276C265.342 190.1 266.014 189.26 266.014 187.804C266.014 185.872 264.6 184.892 262.948 184.892C261.114 184.892 259.672 186.124 259.672 188.028H260.904C260.918 186.74 261.87 186.068 262.962 186.068C264.04 186.068 264.782 186.754 264.782 187.79C264.782 188.952 264.166 189.47 263.018 190.324C261.548 191.416 259.686 192.396 259.686 194.524V195H266.126V193.838ZM274.143 192.018C274.143 190.828 273.569 189.904 272.589 189.414C273.219 188.98 273.597 188.28 273.597 187.454C273.597 185.97 272.449 184.892 270.811 184.892C269.215 184.892 268.011 185.97 268.011 187.454C268.011 188.28 268.403 188.98 269.047 189.414C268.053 189.904 267.465 190.828 267.465 192.018C267.465 193.824 268.865 195.14 270.811 195.14C272.785 195.14 274.143 193.824 274.143 192.018ZM269.201 187.482C269.201 186.656 269.845 186.026 270.811 186.026C271.805 186.026 272.407 186.656 272.407 187.482C272.407 188.252 271.819 188.952 270.811 188.952C269.831 188.952 269.201 188.252 269.201 187.482ZM268.683 192.018C268.683 190.898 269.509 190.03 270.811 190.03C272.141 190.03 272.925 190.898 272.925 192.018C272.925 193.11 272.141 193.992 270.811 193.992C269.509 193.992 268.683 193.11 268.683 192.018ZM277.605 194.062C277.605 193.502 277.143 193.012 276.569 193.012C275.995 193.012 275.533 193.502 275.533 194.062C275.533 194.636 275.995 195.112 276.569 195.112C277.143 195.112 277.605 194.636 277.605 194.062ZM285.738 192.214C285.738 191.08 285.122 190.198 284.114 189.792C284.87 189.4 285.444 188.588 285.458 187.622C285.472 185.956 284.114 184.892 282.434 184.892C280.614 184.892 279.116 186.096 279.116 188.028H280.348C280.362 186.726 281.3 186.068 282.434 186.068C283.428 186.068 284.24 186.712 284.226 187.664C284.212 188.602 283.428 189.274 282.392 189.274H281.594V190.38H282.336C283.624 190.38 284.506 190.94 284.506 192.172C284.506 193.334 283.596 193.964 282.49 193.964C281.258 193.964 280.236 193.18 280.166 191.976H278.948C278.962 193.81 280.502 195.14 282.49 195.14C284.394 195.14 285.738 193.964 285.738 192.214ZM286.957 192.312C286.999 193.838 288.497 195.14 290.289 195.14C292.221 195.14 293.663 193.74 293.663 191.99C293.663 190.03 292.361 188.56 290.499 188.56C289.757 188.56 289.155 188.784 288.763 189.078L289.309 186.236H292.991V185.06H288.343L287.321 190.366L288.469 190.702C288.847 190.1 289.491 189.694 290.345 189.694C291.577 189.694 292.431 190.646 292.431 191.836C292.431 193.012 291.521 193.964 290.289 193.964C289.239 193.964 288.413 193.25 288.189 192.312H286.957ZM266.238 213.836C266.238 212.1 264.796 210.63 263.13 210.63C263.004 210.63 262.878 210.644 262.738 210.658L265.776 207.06H264.25L260.624 211.33C260.008 212.058 259.504 212.814 259.504 213.864C259.504 215.67 260.946 217.14 262.878 217.14C264.81 217.14 266.238 215.67 266.238 213.836ZM260.736 213.836C260.736 212.66 261.66 211.694 262.878 211.694C264.082 211.694 265.006 212.66 265.006 213.836C265.006 215.012 264.082 215.978 262.878 215.978C261.66 215.978 260.736 215.012 260.736 213.836ZM269.62 216.062C269.62 215.502 269.158 215.012 268.584 215.012C268.01 215.012 267.548 215.502 267.548 216.062C267.548 216.636 268.01 217.112 268.584 217.112C269.158 217.112 269.62 216.636 269.62 216.062ZM270.852 214.312C270.894 215.838 272.392 217.14 274.184 217.14C276.116 217.14 277.558 215.74 277.558 213.99C277.558 212.03 276.256 210.56 274.394 210.56C273.652 210.56 273.05 210.784 272.658 211.078L273.204 208.236H276.886V207.06H272.238L271.216 212.366L272.364 212.702C272.742 212.1 273.386 211.694 274.24 211.694C275.472 211.694 276.326 212.646 276.326 213.836C276.326 215.012 275.416 215.964 274.184 215.964C273.134 215.964 272.308 215.25 272.084 214.312H270.852ZM285.351 213.836C285.351 212.1 283.909 210.63 282.243 210.63C282.117 210.63 281.991 210.644 281.851 210.658L284.889 207.06H283.363L279.737 211.33C279.121 212.058 278.617 212.814 278.617 213.864C278.617 215.67 280.059 217.14 281.991 217.14C283.923 217.14 285.351 215.67 285.351 213.836ZM279.849 213.836C279.849 212.66 280.773 211.694 281.991 211.694C283.195 211.694 284.119 212.66 284.119 213.836C284.119 215.012 283.195 215.978 281.991 215.978C280.773 215.978 279.849 215.012 279.849 213.836ZM266.238 235.836C266.238 234.1 264.796 232.63 263.13 232.63C263.004 232.63 262.878 232.644 262.738 232.658L265.776 229.06H264.25L260.624 233.33C260.008 234.058 259.504 234.814 259.504 235.864C259.504 237.67 260.946 239.14 262.878 239.14C264.81 239.14 266.238 237.67 266.238 235.836ZM260.736 235.836C260.736 234.66 261.66 233.694 262.878 233.694C264.082 233.694 265.006 234.66 265.006 235.836C265.006 237.012 264.082 237.978 262.878 237.978C261.66 237.978 260.736 237.012 260.736 235.836ZM267.324 236.312C267.366 237.838 268.864 239.14 270.656 239.14C272.588 239.14 274.03 237.74 274.03 235.99C274.03 234.03 272.728 232.56 270.866 232.56C270.124 232.56 269.522 232.784 269.13 233.078L269.676 230.236H273.358V229.06H268.71L267.688 234.366L268.836 234.702C269.214 234.1 269.858 233.694 270.712 233.694C271.944 233.694 272.798 234.646 272.798 235.836C272.798 237.012 271.888 237.964 270.656 237.964C269.606 237.964 268.78 237.25 268.556 236.312H267.324ZM277.386 238.062C277.386 237.502 276.924 237.012 276.35 237.012C275.776 237.012 275.314 237.502 275.314 238.062C275.314 238.636 275.776 239.112 276.35 239.112C276.924 239.112 277.386 238.636 277.386 238.062ZM285.777 235.402V232.63C285.777 230.432 284.293 228.892 282.249 228.892C280.205 228.892 278.735 230.432 278.735 232.63V235.402C278.735 237.614 280.205 239.14 282.249 239.14C284.293 239.14 285.777 237.614 285.777 235.402ZM279.939 235.402V232.63C279.939 231.02 280.905 230.068 282.249 230.068C283.607 230.068 284.573 231.02 284.573 232.63V235.402C284.573 237.012 283.607 237.964 282.249 237.964C280.905 237.964 279.939 237.012 279.939 235.402ZM287.653 239H289.193L292.833 234.702C293.449 233.974 293.953 233.218 293.953 232.168C293.953 230.362 292.511 228.892 290.579 228.892C288.647 228.892 287.219 230.362 287.219 232.21C287.219 233.932 288.661 235.402 290.327 235.402C290.467 235.402 290.593 235.402 290.719 235.374L287.653 239ZM288.451 232.196C288.451 231.02 289.361 230.054 290.579 230.054C291.797 230.054 292.721 231.02 292.721 232.196C292.721 233.372 291.797 234.338 290.579 234.338C289.361 234.338 288.451 233.372 288.451 232.196Z" fill="#001E2B"/>
<path d="M57.54 260.12C57.1333 260.12 56.75 260.047 56.39 259.9C56.0367 259.753 55.7233 259.537 55.45 259.25C55.1833 258.963 54.9733 258.61 54.82 258.19C54.6733 257.77 54.6 257.29 54.6 256.75C54.6 256.037 54.73 255.427 54.99 254.92C55.2567 254.407 55.6167 254.017 56.07 253.75C56.53 253.477 57.0467 253.34 57.62 253.34C58.0267 253.34 58.39 253.423 58.71 253.59C59.03 253.757 59.29 253.947 59.49 254.16L58.85 254.88C58.69 254.713 58.51 254.583 58.31 254.49C58.11 254.397 57.88 254.35 57.62 254.35C57.26 254.35 56.94 254.447 56.66 254.64C56.3867 254.827 56.1733 255.097 56.02 255.45C55.8667 255.803 55.79 256.227 55.79 256.72C55.79 257.213 55.8667 257.64 56.02 258C56.1733 258.36 56.39 258.637 56.67 258.83C56.95 259.017 57.2767 259.11 57.65 259.11C57.9233 259.11 58.1667 259.053 58.38 258.94C58.5933 258.82 58.7933 258.66 58.98 258.46L59.62 259.17C59.36 259.477 59.0567 259.713 58.71 259.88C58.3633 260.04 57.9733 260.12 57.54 260.12ZM62.4461 260V253.46H63.5961V259.02H66.6661V260H62.4461ZM71.4922 260.12C70.9855 260.12 70.5389 259.987 70.1522 259.72C69.7655 259.453 69.4622 259.067 69.2422 258.56C69.0289 258.053 68.9222 257.433 68.9222 256.7C68.9222 255.987 69.0289 255.38 69.2422 254.88C69.4622 254.373 69.7655 253.99 70.1522 253.73C70.5389 253.47 70.9855 253.34 71.4922 253.34C71.9989 253.34 72.4455 253.47 72.8322 253.73C73.2189 253.99 73.5189 254.373 73.7322 254.88C73.9522 255.38 74.0622 255.987 74.0622 256.7C74.0622 257.433 73.9522 258.053 73.7322 258.56C73.5189 259.067 73.2189 259.453 72.8322 259.72C72.4455 259.987 71.9989 260.12 71.4922 260.12ZM71.4922 259.11C71.7722 259.11 72.0155 259.017 72.2222 258.83C72.4289 258.643 72.5889 258.37 72.7022 258.01C72.8155 257.65 72.8722 257.213 72.8722 256.7C72.8722 256.2 72.8155 255.777 72.7022 255.43C72.5889 255.077 72.4289 254.81 72.2222 254.63C72.0155 254.443 71.7722 254.35 71.4922 254.35C71.2122 254.35 70.9689 254.443 70.7622 254.63C70.5555 254.81 70.3955 255.077 70.2822 255.43C70.1689 255.777 70.1122 256.2 70.1122 256.7C70.1122 257.213 70.1689 257.65 70.2822 258.01C70.3955 258.37 70.5555 258.643 70.7622 258.83C70.9689 259.017 71.2122 259.11 71.4922 259.11ZM78.7583 260.12C78.2983 260.12 77.8583 260.037 77.4383 259.87C77.0183 259.703 76.6449 259.467 76.3183 259.16L76.9983 258.37C77.2449 258.59 77.5249 258.77 77.8383 258.91C78.1516 259.043 78.4816 259.11 78.8283 259.11C79.2083 259.11 79.4983 259.037 79.6983 258.89C79.8983 258.737 79.9983 258.547 79.9983 258.32C79.9983 258.127 79.9516 257.973 79.8583 257.86C79.7649 257.74 79.6349 257.64 79.4683 257.56C79.3083 257.48 79.1183 257.397 78.8983 257.31L78.0083 256.92C77.7816 256.827 77.5583 256.707 77.3383 256.56C77.1249 256.413 76.9483 256.227 76.8083 256C76.6749 255.773 76.6083 255.5 76.6083 255.18C76.6083 254.833 76.7049 254.523 76.8983 254.25C77.0916 253.97 77.3583 253.75 77.6983 253.59C78.0449 253.423 78.4383 253.34 78.8783 253.34C79.2783 253.34 79.6583 253.417 80.0183 253.57C80.3849 253.717 80.7049 253.917 80.9783 254.17L80.3783 254.91C80.1583 254.73 79.9249 254.593 79.6783 254.5C79.4383 254.4 79.1516 254.35 78.8183 254.35C78.5116 254.35 78.2616 254.417 78.0683 254.55C77.8749 254.683 77.7783 254.873 77.7783 255.12C77.7783 255.287 77.8316 255.423 77.9383 255.53C78.0449 255.637 78.1816 255.73 78.3483 255.81C78.5216 255.89 78.7049 255.967 78.8983 256.04L79.7583 256.41C80.0383 256.517 80.2849 256.647 80.4983 256.8C80.7116 256.953 80.8783 257.143 80.9983 257.37C81.1183 257.59 81.1783 257.86 81.1783 258.18C81.1783 258.533 81.0816 258.857 80.8883 259.15C80.6949 259.443 80.4183 259.68 80.0583 259.86C79.6983 260.033 79.2649 260.12 78.7583 260.12ZM84.0144 260V253.46H88.2044V254.44H85.1744V256.11H87.7444V257.09H85.1744V259.02H88.3044V260H84.0144ZM93.2505 260.12C92.7905 260.12 92.3505 260.037 91.9305 259.87C91.5105 259.703 91.1371 259.467 90.8105 259.16L91.4905 258.37C91.7371 258.59 92.0171 258.77 92.3305 258.91C92.6438 259.043 92.9738 259.11 93.3205 259.11C93.7005 259.11 93.9905 259.037 94.1905 258.89C94.3905 258.737 94.4905 258.547 94.4905 258.32C94.4905 258.127 94.4438 257.973 94.3505 257.86C94.2571 257.74 94.1271 257.64 93.9605 257.56C93.8005 257.48 93.6105 257.397 93.3905 257.31L92.5005 256.92C92.2738 256.827 92.0505 256.707 91.8305 256.56C91.6171 256.413 91.4405 256.227 91.3005 256C91.1671 255.773 91.1005 255.5 91.1005 255.18C91.1005 254.833 91.1971 254.523 91.3905 254.25C91.5838 253.97 91.8505 253.75 92.1905 253.59C92.5371 253.423 92.9305 253.34 93.3705 253.34C93.7705 253.34 94.1505 253.417 94.5105 253.57C94.8771 253.717 95.1971 253.917 95.4705 254.17L94.8705 254.91C94.6505 254.73 94.4171 254.593 94.1705 254.5C93.9305 254.4 93.6438 254.35 93.3105 254.35C93.0038 254.35 92.7538 254.417 92.5605 254.55C92.3671 254.683 92.2705 254.873 92.2705 255.12C92.2705 255.287 92.3238 255.423 92.4305 255.53C92.5371 255.637 92.6738 255.73 92.8405 255.81C93.0138 255.89 93.1971 255.967 93.3905 256.04L94.2505 256.41C94.5305 256.517 94.7771 256.647 94.9905 256.8C95.2038 256.953 95.3705 257.143 95.4905 257.37C95.6105 257.59 95.6705 257.86 95.6705 258.18C95.6705 258.533 95.5738 258.857 95.3805 259.15C95.1871 259.443 94.9105 259.68 94.5505 259.86C94.1905 260.033 93.7571 260.12 93.2505 260.12ZM99.8966 260V254.43H97.8366V253.46H103.117V254.43H101.057V260H99.8966ZM112.999 260V253.46H117.189V254.44H114.159V256.11H116.729V257.09H114.159V259.02H117.289V260H112.999ZM119.575 260L121.495 256.63L119.695 253.46H120.985L121.755 254.91C121.835 255.057 121.915 255.21 121.995 255.37C122.075 255.53 122.165 255.71 122.265 255.91H122.305C122.392 255.71 122.472 255.53 122.545 255.37C122.618 255.21 122.692 255.057 122.765 254.91L123.505 253.46H124.735L122.935 256.68L124.855 260H123.575L122.725 258.46C122.638 258.287 122.548 258.117 122.455 257.95C122.368 257.777 122.275 257.59 122.175 257.39H122.135C122.048 257.59 121.962 257.777 121.875 257.95C121.795 258.117 121.712 258.287 121.625 258.46L120.805 260H119.575ZM127.301 260V259.02H128.881V254.44H127.301V253.46H131.621V254.44H130.041V259.02H131.621V260H127.301ZM136.727 260.12C136.267 260.12 135.827 260.037 135.407 259.87C134.987 259.703 134.614 259.467 134.287 259.16L134.967 258.37C135.214 258.59 135.494 258.77 135.807 258.91C136.12 259.043 136.45 259.11 136.797 259.11C137.177 259.11 137.467 259.037 137.667 258.89C137.867 258.737 137.967 258.547 137.967 258.32C137.967 258.127 137.92 257.973 137.827 257.86C137.734 257.74 137.604 257.64 137.437 257.56C137.277 257.48 137.087 257.397 136.867 257.31L135.977 256.92C135.75 256.827 135.527 256.707 135.307 256.56C135.094 256.413 134.917 256.227 134.777 256C134.644 255.773 134.577 255.5 134.577 255.18C134.577 254.833 134.674 254.523 134.867 254.25C135.06 253.97 135.327 253.75 135.667 253.59C136.014 253.423 136.407 253.34 136.847 253.34C137.247 253.34 137.627 253.417 137.987 253.57C138.354 253.717 138.674 253.917 138.947 254.17L138.347 254.91C138.127 254.73 137.894 254.593 137.647 254.5C137.407 254.4 137.12 254.35 136.787 254.35C136.48 254.35 136.23 254.417 136.037 254.55C135.844 254.683 135.747 254.873 135.747 255.12C135.747 255.287 135.8 255.423 135.907 255.53C136.014 255.637 136.15 255.73 136.317 255.81C136.49 255.89 136.674 255.967 136.867 256.04L137.727 256.41C138.007 256.517 138.254 256.647 138.467 256.8C138.68 256.953 138.847 257.143 138.967 257.37C139.087 257.59 139.147 257.86 139.147 258.18C139.147 258.533 139.05 258.857 138.857 259.15C138.664 259.443 138.387 259.68 138.027 259.86C137.667 260.033 137.234 260.12 136.727 260.12ZM143.373 260V254.43H141.313V253.46H146.593V254.43H144.533V260H143.373ZM149.039 260V259.02H150.619V254.44H149.039V253.46H153.359V254.44H151.779V259.02H153.359V260H149.039ZM156.185 260V253.46H157.405L159.135 257.13L159.725 258.53H159.755C159.735 258.197 159.702 257.833 159.655 257.44C159.615 257.047 159.595 256.667 159.595 256.3V253.46H160.705V260H159.485L157.755 256.32L157.165 254.93H157.135C157.155 255.277 157.185 255.643 157.225 256.03C157.272 256.41 157.295 256.78 157.295 257.14V260H156.185ZM166.091 260.12C165.545 260.12 165.048 259.99 164.601 259.73C164.161 259.47 163.811 259.09 163.551 258.59C163.298 258.083 163.171 257.47 163.171 256.75C163.171 256.037 163.301 255.427 163.561 254.92C163.821 254.407 164.175 254.017 164.621 253.75C165.068 253.477 165.575 253.34 166.141 253.34C166.575 253.34 166.941 253.427 167.241 253.6C167.548 253.767 167.798 253.953 167.991 254.16L167.351 254.88C167.205 254.72 167.035 254.593 166.841 254.5C166.655 254.4 166.421 254.35 166.141 254.35C165.795 254.35 165.488 254.447 165.221 254.64C164.955 254.827 164.745 255.097 164.591 255.45C164.445 255.803 164.371 256.227 164.371 256.72C164.371 257.213 164.438 257.64 164.571 258C164.711 258.36 164.915 258.637 165.181 258.83C165.448 259.017 165.775 259.11 166.161 259.11C166.335 259.11 166.501 259.087 166.661 259.04C166.821 258.987 166.948 258.913 167.041 258.82V257.41H165.911V256.46H168.091V259.34C167.878 259.553 167.595 259.737 167.241 259.89C166.895 260.043 166.511 260.12 166.091 260.12ZM178.064 260V253.46H180.214C180.694 253.46 181.12 253.523 181.494 253.65C181.867 253.777 182.16 253.987 182.374 254.28C182.594 254.573 182.704 254.973 182.704 255.48C182.704 255.96 182.594 256.357 182.374 256.67C182.16 256.983 181.864 257.217 181.484 257.37C181.11 257.523 180.687 257.6 180.214 257.6H179.224V260H178.064ZM179.224 256.67H180.124C180.61 256.67 180.97 256.57 181.204 256.37C181.444 256.17 181.564 255.873 181.564 255.48C181.564 255.067 181.44 254.783 181.194 254.63C180.954 254.47 180.597 254.39 180.124 254.39H179.224V256.67ZM185.08 260V253.46H186.36L187.14 256.01L187.41 256.99H187.45L187.71 256.01L188.5 253.46H189.78V260H188.76V257.36C188.76 257.187 188.763 256.983 188.77 256.75C188.783 256.51 188.8 256.26 188.82 256C188.84 255.74 188.86 255.497 188.88 255.27C188.9 255.037 188.916 254.84 188.93 254.68H188.9L188.46 256.2L187.74 258.27H187.08L186.37 256.2L185.94 254.68H185.91C185.93 254.84 185.95 255.037 185.97 255.27C185.99 255.497 186.006 255.74 186.02 256C186.04 256.26 186.053 256.51 186.06 256.75C186.073 256.983 186.08 257.187 186.08 257.36V260H185.08ZM194.696 260.12C194.236 260.12 193.796 260.037 193.376 259.87C192.956 259.703 192.582 259.467 192.256 259.16L192.936 258.37C193.182 258.59 193.462 258.77 193.776 258.91C194.089 259.043 194.419 259.11 194.766 259.11C195.146 259.11 195.436 259.037 195.636 258.89C195.836 258.737 195.936 258.547 195.936 258.32C195.936 258.127 195.889 257.973 195.796 257.86C195.702 257.74 195.572 257.64 195.406 257.56C195.246 257.48 195.056 257.397 194.836 257.31L193.946 256.92C193.719 256.827 193.496 256.707 193.276 256.56C193.062 256.413 192.886 256.227 192.746 256C192.612 255.773 192.546 255.5 192.546 255.18C192.546 254.833 192.642 254.523 192.836 254.25C193.029 253.97 193.296 253.75 193.636 253.59C193.982 253.423 194.376 253.34 194.816 253.34C195.216 253.34 195.596 253.417 195.956 253.57C196.322 253.717 196.642 253.917 196.916 254.17L196.316 254.91C196.096 254.73 195.862 254.593 195.616 254.5C195.376 254.4 195.089 254.35 194.756 254.35C194.449 254.35 194.199 254.417 194.006 254.55C193.812 254.683 193.716 254.873 193.716 255.12C193.716 255.287 193.769 255.423 193.876 255.53C193.982 255.637 194.119 255.73 194.286 255.81C194.459 255.89 194.642 255.967 194.836 256.04L195.696 256.41C195.976 256.517 196.222 256.647 196.436 256.8C196.649 256.953 196.816 257.143 196.936 257.37C197.056 257.59 197.116 257.86 197.116 258.18C197.116 258.533 197.019 258.857 196.826 259.15C196.632 259.443 196.356 259.68 195.996 259.86C195.636 260.033 195.202 260.12 194.696 260.12ZM209.708 260.12C209.301 260.12 208.918 260.047 208.558 259.9C208.205 259.753 207.891 259.537 207.618 259.25C207.351 258.963 207.141 258.61 206.988 258.19C206.841 257.77 206.768 257.29 206.768 256.75C206.768 256.037 206.898 255.427 207.158 254.92C207.425 254.407 207.785 254.017 208.238 253.75C208.698 253.477 209.215 253.34 209.788 253.34C210.195 253.34 210.558 253.423 210.878 253.59C211.198 253.757 211.458 253.947 211.658 254.16L211.018 254.88C210.858 254.713 210.678 254.583 210.478 254.49C210.278 254.397 210.048 254.35 209.788 254.35C209.428 254.35 209.108 254.447 208.828 254.64C208.555 254.827 208.341 255.097 208.188 255.45C208.035 255.803 207.958 256.227 207.958 256.72C207.958 257.213 208.035 257.64 208.188 258C208.341 258.36 208.558 258.637 208.838 258.83C209.118 259.017 209.445 259.11 209.818 259.11C210.091 259.11 210.335 259.053 210.548 258.94C210.761 258.82 210.961 258.66 211.148 258.46L211.788 259.17C211.528 259.477 211.225 259.713 210.878 259.88C210.531 260.04 210.141 260.12 209.708 260.12ZM216.414 260.12C215.907 260.12 215.461 259.987 215.074 259.72C214.687 259.453 214.384 259.067 214.164 258.56C213.951 258.053 213.844 257.433 213.844 256.7C213.844 255.987 213.951 255.38 214.164 254.88C214.384 254.373 214.687 253.99 215.074 253.73C215.461 253.47 215.907 253.34 216.414 253.34C216.921 253.34 217.367 253.47 217.754 253.73C218.141 253.99 218.441 254.373 218.654 254.88C218.874 255.38 218.984 255.987 218.984 256.7C218.984 257.433 218.874 258.053 218.654 258.56C218.441 259.067 218.141 259.453 217.754 259.72C217.367 259.987 216.921 260.12 216.414 260.12ZM216.414 259.11C216.694 259.11 216.937 259.017 217.144 258.83C217.351 258.643 217.511 258.37 217.624 258.01C217.737 257.65 217.794 257.213 217.794 256.7C217.794 256.2 217.737 255.777 217.624 255.43C217.511 255.077 217.351 254.81 217.144 254.63C216.937 254.443 216.694 254.35 216.414 254.35C216.134 254.35 215.891 254.443 215.684 254.63C215.477 254.81 215.317 255.077 215.204 255.43C215.091 255.777 215.034 256.2 215.034 256.7C215.034 257.213 215.091 257.65 215.204 258.01C215.317 258.37 215.477 258.643 215.684 258.83C215.891 259.017 216.134 259.11 216.414 259.11ZM221.86 260V253.46H223.01V259.02H226.08V260H221.86ZM230.906 260.12C230.4 260.12 229.953 259.987 229.566 259.72C229.18 259.453 228.876 259.067 228.656 258.56C228.443 258.053 228.336 257.433 228.336 256.7C228.336 255.987 228.443 255.38 228.656 254.88C228.876 254.373 229.18 253.99 229.566 253.73C229.953 253.47 230.4 253.34 230.906 253.34C231.413 253.34 231.86 253.47 232.246 253.73C232.633 253.99 232.933 254.373 233.146 254.88C233.366 255.38 233.476 255.987 233.476 256.7C233.476 257.433 233.366 258.053 233.146 258.56C232.933 259.067 232.633 259.453 232.246 259.72C231.86 259.987 231.413 260.12 230.906 260.12ZM230.906 259.11C231.186 259.11 231.43 259.017 231.636 258.83C231.843 258.643 232.003 258.37 232.116 258.01C232.23 257.65 232.286 257.213 232.286 256.7C232.286 256.2 232.23 255.777 232.116 255.43C232.003 255.077 231.843 254.81 231.636 254.63C231.43 254.443 231.186 254.35 230.906 254.35C230.626 254.35 230.383 254.443 230.176 254.63C229.97 254.81 229.81 255.077 229.696 255.43C229.583 255.777 229.526 256.2 229.526 256.7C229.526 257.213 229.583 257.65 229.696 258.01C229.81 258.37 229.97 258.643 230.176 258.83C230.383 259.017 230.626 259.11 230.906 259.11ZM235.992 260V253.46H238.172C238.626 253.46 239.032 253.52 239.392 253.64C239.759 253.76 240.049 253.963 240.262 254.25C240.476 254.53 240.582 254.913 240.582 255.4C240.582 255.867 240.476 256.25 240.262 256.55C240.049 256.85 239.759 257.073 239.392 257.22C239.032 257.367 238.626 257.44 238.172 257.44H237.152V260H235.992ZM237.152 256.52H238.052C238.506 256.52 238.849 256.427 239.082 256.24C239.322 256.053 239.442 255.773 239.442 255.4C239.442 255.027 239.322 254.767 239.082 254.62C238.849 254.467 238.506 254.39 238.052 254.39H237.152V256.52ZM237.962 257.13L238.802 256.44L240.842 260H239.532L237.962 257.13ZM250.485 260V259.02H252.065V254.44H250.485V253.46H254.805V254.44H253.225V259.02H254.805V260H250.485ZM259.911 260.12C259.451 260.12 259.011 260.037 258.591 259.87C258.171 259.703 257.797 259.467 257.471 259.16L258.151 258.37C258.397 258.59 258.677 258.77 258.991 258.91C259.304 259.043 259.634 259.11 259.981 259.11C260.361 259.11 260.651 259.037 260.851 258.89C261.051 258.737 261.151 258.547 261.151 258.32C261.151 258.127 261.104 257.973 261.011 257.86C260.917 257.74 260.787 257.64 260.621 257.56C260.461 257.48 260.271 257.397 260.051 257.31L259.161 256.92C258.934 256.827 258.711 256.707 258.491 256.56C258.277 256.413 258.101 256.227 257.961 256C257.827 255.773 257.761 255.5 257.761 255.18C257.761 254.833 257.857 254.523 258.051 254.25C258.244 253.97 258.511 253.75 258.851 253.59C259.197 253.423 259.591 253.34 260.031 253.34C260.431 253.34 260.811 253.417 261.171 253.57C261.537 253.717 261.857 253.917 262.131 254.17L261.531 254.91C261.311 254.73 261.077 254.593 260.831 254.5C260.591 254.4 260.304 254.35 259.971 254.35C259.664 254.35 259.414 254.417 259.221 254.55C259.027 254.683 258.931 254.873 258.931 255.12C258.931 255.287 258.984 255.423 259.091 255.53C259.197 255.637 259.334 255.73 259.501 255.81C259.674 255.89 259.857 255.967 260.051 256.04L260.911 256.41C261.191 256.517 261.437 256.647 261.651 256.8C261.864 256.953 262.031 257.143 262.151 257.37C262.271 257.59 262.331 257.86 262.331 258.18C262.331 258.533 262.234 258.857 262.041 259.15C261.847 259.443 261.571 259.68 261.211 259.86C260.851 260.033 260.417 260.12 259.911 260.12ZM273.993 260.12C273.573 260.12 273.203 260.05 272.883 259.91C272.569 259.763 272.303 259.593 272.083 259.4L272.703 258.7C272.856 258.833 273.036 258.947 273.243 259.04C273.456 259.133 273.676 259.18 273.903 259.18C274.216 259.18 274.499 259.1 274.753 258.94C275.013 258.78 275.223 258.513 275.383 258.14C275.549 257.767 275.633 257.26 275.633 256.62C275.633 256.1 275.569 255.677 275.443 255.35C275.323 255.017 275.156 254.777 274.943 254.63C274.729 254.477 274.483 254.4 274.203 254.4C273.996 254.4 273.803 254.447 273.623 254.54C273.449 254.633 273.309 254.77 273.203 254.95C273.096 255.123 273.043 255.34 273.043 255.6C273.043 255.98 273.143 256.267 273.343 256.46C273.549 256.647 273.833 256.74 274.193 256.74C274.419 256.74 274.656 256.68 274.903 256.56C275.156 256.44 275.399 256.237 275.633 255.95L275.683 256.76C275.436 257.007 275.159 257.203 274.853 257.35C274.546 257.497 274.249 257.57 273.963 257.57C273.576 257.57 273.233 257.5 272.933 257.36C272.639 257.213 272.406 256.997 272.233 256.71C272.066 256.417 271.983 256.047 271.983 255.6C271.983 255.18 272.083 254.813 272.283 254.5C272.489 254.187 272.759 253.947 273.093 253.78C273.433 253.607 273.796 253.52 274.183 253.52C274.523 253.52 274.843 253.583 275.143 253.71C275.443 253.83 275.709 254.017 275.943 254.27C276.176 254.523 276.359 254.847 276.493 255.24C276.626 255.627 276.693 256.087 276.693 256.62C276.693 257.24 276.616 257.773 276.463 258.22C276.316 258.66 276.116 259.02 275.863 259.3C275.609 259.58 275.319 259.787 274.993 259.92C274.673 260.053 274.339 260.12 273.993 260.12ZM281.629 260.12C281.149 260.12 280.732 259.99 280.379 259.73C280.026 259.47 279.752 259.093 279.559 258.6C279.366 258.107 279.269 257.503 279.269 256.79C279.269 255.717 279.482 254.903 279.909 254.35C280.336 253.797 280.909 253.52 281.629 253.52C282.356 253.52 282.929 253.797 283.349 254.35C283.776 254.903 283.989 255.717 283.989 256.79C283.989 257.503 283.892 258.107 283.699 258.6C283.512 259.093 283.242 259.47 282.889 259.73C282.536 259.99 282.116 260.12 281.629 260.12ZM281.629 259.22C281.882 259.22 282.109 259.14 282.309 258.98C282.509 258.813 282.666 258.553 282.779 258.2C282.892 257.84 282.949 257.37 282.949 256.79C282.949 256.21 282.892 255.747 282.779 255.4C282.666 255.053 282.509 254.803 282.309 254.65C282.109 254.497 281.882 254.42 281.629 254.42C281.376 254.42 281.149 254.497 280.949 254.65C280.749 254.803 280.592 255.053 280.479 255.4C280.366 255.747 280.309 256.21 280.309 256.79C280.309 257.37 280.366 257.84 280.479 258.2C280.592 258.553 280.749 258.813 280.949 258.98C281.149 259.14 281.376 259.22 281.629 259.22ZM281.629 257.46C281.442 257.46 281.279 257.397 281.139 257.27C281.006 257.143 280.939 256.97 280.939 256.75C280.939 256.53 281.006 256.357 281.139 256.23C281.279 256.103 281.442 256.04 281.629 256.04C281.822 256.04 281.986 256.103 282.119 256.23C282.252 256.357 282.319 256.53 282.319 256.75C282.319 256.97 282.252 257.143 282.119 257.27C281.986 257.397 281.822 257.46 281.629 257.46ZM286.525 260V259.33C287.192 258.757 287.762 258.247 288.235 257.8C288.715 257.353 289.082 256.947 289.335 256.58C289.595 256.207 289.725 255.857 289.725 255.53C289.725 255.19 289.622 254.923 289.415 254.73C289.208 254.53 288.905 254.43 288.505 254.43C288.232 254.43 287.978 254.5 287.745 254.64C287.512 254.78 287.298 254.947 287.105 255.14L286.475 254.5C286.782 254.187 287.105 253.947 287.445 253.78C287.785 253.607 288.188 253.52 288.655 253.52C289.095 253.52 289.475 253.6 289.795 253.76C290.122 253.92 290.375 254.147 290.555 254.44C290.735 254.733 290.825 255.077 290.825 255.47C290.825 255.843 290.708 256.227 290.475 256.62C290.242 257.007 289.925 257.403 289.525 257.81C289.132 258.217 288.688 258.643 288.195 259.09C288.382 259.07 288.578 259.053 288.785 259.04C288.992 259.027 289.182 259.02 289.355 259.02H291.155V260H286.525ZM296.661 260.12C296.254 260.12 295.871 260.047 295.511 259.9C295.158 259.753 294.844 259.537 294.571 259.25C294.304 258.963 294.094 258.61 293.941 258.19C293.794 257.77 293.721 257.29 293.721 256.75C293.721 256.037 293.851 255.427 294.111 254.92C294.378 254.407 294.738 254.017 295.191 253.75C295.651 253.477 296.168 253.34 296.741 253.34C297.148 253.34 297.511 253.423 297.831 253.59C298.151 253.757 298.411 253.947 298.611 254.16L297.971 254.88C297.811 254.713 297.631 254.583 297.431 254.49C297.231 254.397 297.001 254.35 296.741 254.35C296.381 254.35 296.061 254.447 295.781 254.64C295.508 254.827 295.294 255.097 295.141 255.45C294.988 255.803 294.911 256.227 294.911 256.72C294.911 257.213 294.988 257.64 295.141 258C295.294 258.36 295.511 258.637 295.791 258.83C296.071 259.017 296.398 259.11 296.771 259.11C297.044 259.11 297.288 259.053 297.501 258.94C297.714 258.82 297.914 258.66 298.101 258.46L298.741 259.17C298.481 259.477 298.178 259.713 297.831 259.88C297.484 260.04 297.094 260.12 296.661 260.12Z" fill="#001E2B"/>
<line x1="54.3438" y1="100.578" x2="145.015" y2="100.578" stroke="#001E2B"/>
<rect x="484" y="16" width="468" height="360" fill="#00684A"/>
<path d="M529.421 118.57H530.527L531.381 115.77H533.397V114.748H531.717L532.459 112.354H534.405V111.332H532.781L533.621 108.63H532.529L531.675 111.332H529.155L529.995 108.63H528.889L528.049 111.332H526.047V112.354H527.727L526.971 114.748H525.024V115.77H526.649L525.781 118.57H526.901L527.755 115.77H530.289L529.421 118.57ZM528.833 112.354H531.353L530.611 114.748H528.091L528.833 112.354ZM542.767 114.972V112.2C542.767 110.002 541.283 108.462 539.239 108.462C537.195 108.462 535.725 110.002 535.725 112.2V114.972C535.725 117.184 537.195 118.71 539.239 118.71C541.283 118.71 542.767 117.184 542.767 114.972ZM536.929 114.972V112.2C536.929 110.59 537.895 109.638 539.239 109.638C540.597 109.638 541.563 110.59 541.563 112.2V114.972C541.563 116.582 540.597 117.534 539.239 117.534C537.895 117.534 536.929 116.582 536.929 114.972ZM551.489 114.972V112.2C551.489 110.002 550.005 108.462 547.961 108.462C545.917 108.462 544.447 110.002 544.447 112.2V114.972C544.447 117.184 545.917 118.71 547.961 118.71C550.005 118.71 551.489 117.184 551.489 114.972ZM545.651 114.972V112.2C545.651 110.59 546.617 109.638 547.961 109.638C549.319 109.638 550.285 110.59 550.285 112.2V114.972C550.285 116.582 549.319 117.534 547.961 117.534C546.617 117.534 545.651 116.582 545.651 114.972ZM559.568 115.406C559.568 113.67 558.126 112.2 556.46 112.2C556.334 112.2 556.208 112.214 556.068 112.228L559.106 108.63H557.58L553.954 112.9C553.338 113.628 552.834 114.384 552.834 115.434C552.834 117.24 554.276 118.71 556.208 118.71C558.14 118.71 559.568 117.24 559.568 115.406ZM554.066 115.406C554.066 114.23 554.99 113.264 556.208 113.264C557.412 113.264 558.336 114.23 558.336 115.406C558.336 116.582 557.412 117.548 556.208 117.548C554.99 117.548 554.066 116.582 554.066 115.406ZM567.486 115.588C567.486 114.398 566.912 113.474 565.932 112.984C566.562 112.55 566.94 111.85 566.94 111.024C566.94 109.54 565.792 108.462 564.154 108.462C562.558 108.462 561.354 109.54 561.354 111.024C561.354 111.85 561.746 112.55 562.39 112.984C561.396 113.474 560.808 114.398 560.808 115.588C560.808 117.394 562.208 118.71 564.154 118.71C566.128 118.71 567.486 117.394 567.486 115.588ZM562.544 111.052C562.544 110.226 563.188 109.596 564.154 109.596C565.148 109.596 565.75 110.226 565.75 111.052C565.75 111.822 565.162 112.522 564.154 112.522C563.174 112.522 562.544 111.822 562.544 111.052ZM562.026 115.588C562.026 114.468 562.852 113.6 564.154 113.6C565.484 113.6 566.268 114.468 566.268 115.588C566.268 116.68 565.484 117.562 564.154 117.562C562.852 117.562 562.026 116.68 562.026 115.588ZM573.678 118.57H574.882V115.868H576.254V114.734H574.882V108.63H573.832L568.386 114.902V115.868H573.678V118.57ZM573.678 114.734H569.968L573.678 110.45V114.734ZM576.832 118.57H578.176L579.45 115.672H584.084L585.358 118.57H586.716L582.306 108.63H581.228L576.832 118.57ZM579.954 114.496L581.76 110.394L583.566 114.496H579.954ZM528.917 130.63H525.879V140.57H527.181V136.944H528.917C530.989 136.944 532.333 135.586 532.333 133.794C532.333 132.002 530.989 130.63 528.917 130.63ZM528.917 135.74H527.181V131.848H528.917C530.289 131.848 531.045 132.688 531.045 133.794C531.045 134.9 530.289 135.74 528.917 135.74ZM538.968 137.658L542.552 132.842V140.57H543.84V130.63H542.664L538.968 135.586L535.272 130.63H534.082V140.57H535.384V132.842L538.968 137.658ZM545.768 137.91C545.824 139.422 547.14 140.738 549.226 140.738C551.074 140.738 552.39 139.674 552.39 137.994C552.39 136.51 551.522 135.642 550.01 135.096L548.736 134.634C547.77 134.284 547.308 133.864 547.308 133.024C547.308 132.198 548.05 131.68 549.002 131.68C549.814 131.68 550.626 132.114 550.878 133.15H552.166C552.04 131.848 551.046 130.462 549.03 130.462C547.294 130.462 546.006 131.442 546.006 133.066C546.02 134.466 546.762 135.32 548.302 135.866L549.674 136.37C550.598 136.706 551.088 137.252 551.088 138.036C551.088 138.96 550.248 139.52 549.212 139.52C548.274 139.52 547.182 139.016 547.07 137.91H545.768ZM558.602 140.57L563.334 131.638V130.63H556.81V131.806H561.906L557.258 140.57H558.602ZM565.725 140.57L570.457 131.638V130.63H563.933V131.806H569.029L564.381 140.57H565.725ZM578.056 137.784C578.056 136.65 577.44 135.768 576.432 135.362C577.188 134.97 577.762 134.158 577.776 133.192C577.79 131.526 576.432 130.462 574.752 130.462C572.932 130.462 571.434 131.666 571.434 133.598H572.666C572.68 132.296 573.618 131.638 574.752 131.638C575.746 131.638 576.558 132.282 576.544 133.234C576.53 134.172 575.746 134.844 574.71 134.844H573.912V135.95H574.654C575.942 135.95 576.824 136.51 576.824 137.742C576.824 138.904 575.914 139.534 574.808 139.534C573.576 139.534 572.554 138.75 572.484 137.546H571.266C571.28 139.38 572.82 140.71 574.808 140.71C576.712 140.71 578.056 139.534 578.056 137.784ZM586.177 137.784C586.177 136.65 585.561 135.768 584.553 135.362C585.309 134.97 585.883 134.158 585.897 133.192C585.911 131.526 584.553 130.462 582.873 130.462C581.053 130.462 579.555 131.666 579.555 133.598H580.787C580.801 132.296 581.739 131.638 582.873 131.638C583.867 131.638 584.679 132.282 584.665 133.234C584.651 134.172 583.867 134.844 582.831 134.844H582.033V135.95H582.775C584.063 135.95 584.945 136.51 584.945 137.742C584.945 138.904 584.035 139.534 582.929 139.534C581.697 139.534 580.675 138.75 580.605 137.546H579.387C579.401 139.38 580.941 140.71 582.929 140.71C584.833 140.71 586.177 139.534 586.177 137.784ZM590.914 135.6C590.914 138.498 593.154 140.738 596.066 140.738C598.572 140.738 600.392 139.1 600.826 137.294H599.454C599.02 138.54 597.718 139.506 596.066 139.506C593.854 139.506 592.216 137.798 592.216 135.6C592.216 133.402 593.854 131.694 596.066 131.694C597.718 131.694 599.02 132.66 599.454 133.906H600.826C600.392 132.1 598.572 130.462 596.066 130.462C593.154 130.462 590.914 132.702 590.914 135.6ZM525.207 157.6C525.207 160.498 527.447 162.738 530.359 162.738C532.865 162.738 534.685 161.1 535.119 159.294H533.747C533.312 160.54 532.011 161.506 530.359 161.506C528.147 161.506 526.509 159.798 526.509 157.6C526.509 155.402 528.147 153.694 530.359 153.694C532.011 153.694 533.312 154.66 533.747 155.906H535.119C534.685 154.1 532.865 152.462 530.359 152.462C527.447 152.462 525.207 154.702 525.207 157.6ZM541.798 159.658L545.382 154.842V162.57H546.67V152.63H545.494L541.798 157.586L538.102 152.63H536.912V162.57H538.214V154.842L541.798 159.658ZM552.07 162.57H553.358V158.37L557.236 152.63H555.682L552.714 157.054L549.76 152.63H548.206L552.07 158.356V162.57ZM558.746 162.57H560.034V157.838L565.312 162.57H567.146L561.35 157.362L566.068 152.63H564.374L560.034 156.942V152.63H558.746V162.57ZM577.139 159.588C577.139 158.398 576.565 157.474 575.585 156.984C576.215 156.55 576.593 155.85 576.593 155.024C576.593 153.54 575.445 152.462 573.807 152.462C572.211 152.462 571.007 153.54 571.007 155.024C571.007 155.85 571.399 156.55 572.043 156.984C571.049 157.474 570.461 158.398 570.461 159.588C570.461 161.394 571.861 162.71 573.807 162.71C575.781 162.71 577.139 161.394 577.139 159.588ZM572.197 155.052C572.197 154.226 572.841 153.596 573.807 153.596C574.801 153.596 575.403 154.226 575.403 155.052C575.403 155.822 574.815 156.522 573.807 156.522C572.827 156.522 572.197 155.822 572.197 155.052ZM571.679 159.588C571.679 158.468 572.505 157.6 573.807 157.6C575.137 157.6 575.921 158.468 575.921 159.588C575.921 160.68 575.137 161.562 573.807 161.562C572.505 161.562 571.679 160.68 571.679 159.588ZM578.837 162.57H580.377L584.017 158.272C584.633 157.544 585.137 156.788 585.137 155.738C585.137 153.932 583.695 152.462 581.763 152.462C579.831 152.462 578.403 153.932 578.403 155.78C578.403 157.502 579.845 158.972 581.511 158.972C581.651 158.972 581.777 158.972 581.903 158.944L578.837 162.57ZM579.635 155.766C579.635 154.59 580.545 153.624 581.763 153.624C582.981 153.624 583.905 154.59 583.905 155.766C583.905 156.942 582.981 157.908 581.763 157.908C580.545 157.908 579.635 156.942 579.635 155.766ZM585.081 164.11H586.215L591.619 152.63H590.485L585.081 164.11ZM599.316 159.784C599.316 158.65 598.7 157.768 597.692 157.362C598.448 156.97 599.022 156.158 599.036 155.192C599.05 153.526 597.692 152.462 596.012 152.462C594.192 152.462 592.694 153.666 592.694 155.598H593.926C593.94 154.296 594.878 153.638 596.012 153.638C597.006 153.638 597.818 154.282 597.804 155.234C597.79 156.172 597.006 156.844 595.97 156.844H595.172V157.95H595.914C597.202 157.95 598.084 158.51 598.084 159.742C598.084 160.904 597.174 161.534 596.068 161.534C594.836 161.534 593.814 160.75 593.744 159.546H592.526C592.54 161.38 594.08 162.71 596.068 162.71C597.972 162.71 599.316 161.534 599.316 159.784ZM607.157 161.408H602.201C602.439 160.26 603.601 159.686 604.749 158.846C606.373 157.67 607.045 156.83 607.045 155.374C607.045 153.442 605.631 152.462 603.979 152.462C602.145 152.462 600.703 153.694 600.703 155.598H601.935C601.949 154.31 602.901 153.638 603.993 153.638C605.071 153.638 605.813 154.324 605.813 155.36C605.813 156.522 605.197 157.04 604.049 157.894C602.579 158.986 600.717 159.966 600.717 162.094V162.57H607.157V161.408ZM608.132 164.11H609.266L614.67 152.63H613.536L608.132 164.11ZM622.297 159.588C622.297 158.398 621.723 157.474 620.743 156.984C621.373 156.55 621.751 155.85 621.751 155.024C621.751 153.54 620.603 152.462 618.965 152.462C617.369 152.462 616.165 153.54 616.165 155.024C616.165 155.85 616.557 156.55 617.201 156.984C616.207 157.474 615.619 158.398 615.619 159.588C615.619 161.394 617.019 162.71 618.965 162.71C620.939 162.71 622.297 161.394 622.297 159.588ZM617.355 155.052C617.355 154.226 617.999 153.596 618.965 153.596C619.959 153.596 620.561 154.226 620.561 155.052C620.561 155.822 619.973 156.522 618.965 156.522C617.985 156.522 617.355 155.822 617.355 155.052ZM616.837 159.588C616.837 158.468 617.663 157.6 618.965 157.6C620.295 157.6 621.079 158.468 621.079 159.588C621.079 160.68 620.295 161.562 618.965 161.562C617.663 161.562 616.837 160.68 616.837 159.588ZM623.995 162.57H625.535L629.175 158.272C629.791 157.544 630.295 156.788 630.295 155.738C630.295 153.932 628.853 152.462 626.921 152.462C624.989 152.462 623.561 153.932 623.561 155.78C623.561 157.502 625.003 158.972 626.669 158.972C626.809 158.972 626.935 158.972 627.061 158.944L623.995 162.57ZM624.793 155.766C624.793 154.59 625.703 153.624 626.921 153.624C628.139 153.624 629.063 154.59 629.063 155.766C629.063 156.942 628.139 157.908 626.921 157.908C625.703 157.908 624.793 156.942 624.793 155.766ZM630.239 164.11H631.373L636.777 152.63H635.643L630.239 164.11ZM644.194 161.408H639.238C639.476 160.26 640.638 159.686 641.786 158.846C643.41 157.67 644.082 156.83 644.082 155.374C644.082 153.442 642.668 152.462 641.016 152.462C639.182 152.462 637.74 153.694 637.74 155.598H638.972C638.986 154.31 639.938 153.638 641.03 153.638C642.108 153.638 642.85 154.324 642.85 155.36C642.85 156.522 642.234 157.04 641.086 157.894C639.616 158.986 637.754 159.966 637.754 162.094V162.57H644.194V161.408ZM652.001 161.408H647.045C647.283 160.26 648.445 159.686 649.593 158.846C651.217 157.67 651.889 156.83 651.889 155.374C651.889 153.442 650.475 152.462 648.823 152.462C646.989 152.462 645.547 153.694 645.547 155.598H646.779C646.793 154.31 647.745 153.638 648.837 153.638C649.915 153.638 650.657 154.324 650.657 155.36C650.657 156.522 650.041 157.04 648.893 157.894C647.423 158.986 645.561 159.966 645.561 162.094V162.57H652.001V161.408Z" fill="white"/>
<path d="M525.763 57.9219H528.307V53.4739H531.779V51.0419H528.307V48.9939H532.755V46.5619H525.763V57.9219ZM537.157 58.0979C539.461 58.0979 541.365 56.2739 541.365 53.9219C541.365 51.5699 539.461 49.7459 537.157 49.7459C534.853 49.7459 532.949 51.5699 532.949 53.9219C532.949 56.2739 534.853 58.0979 537.157 58.0979ZM537.157 55.8419C536.149 55.8419 535.381 55.0579 535.381 53.9219C535.381 52.7859 536.149 52.0019 537.157 52.0019C538.165 52.0019 538.933 52.7859 538.933 53.9219C538.933 55.0579 538.165 55.8419 537.157 55.8419ZM542.851 57.9219H545.267V54.1299C545.267 52.9779 545.843 52.1779 546.883 52.1779C547.267 52.1779 547.587 52.2419 547.955 52.3699V49.9219C547.667 49.8419 547.411 49.8259 547.171 49.8259C546.291 49.8259 545.523 50.4179 545.267 51.1219V49.9219H542.851V57.9219ZM552.783 58.0979C554.799 58.0979 556.463 56.9299 556.975 55.2659H554.447C554.255 55.6979 553.615 56.0179 552.911 56.0179C551.615 56.0179 551.007 55.2979 550.895 54.4819H557.055C557.151 51.3139 555.087 49.7459 552.783 49.7459C550.367 49.7459 548.543 51.5059 548.543 53.9059C548.543 56.3379 550.303 58.0979 552.783 58.0979ZM552.719 51.6659C553.343 51.6659 554.127 51.9859 554.383 52.9459H550.959C551.167 52.2099 551.759 51.6659 552.719 51.6659ZM561.786 58.0979C563.803 58.0979 565.227 57.1219 565.227 55.6339C565.227 54.3699 564.587 53.5539 562.971 53.1219L561.515 52.7379C561.147 52.6419 560.699 52.5299 560.699 52.1139C560.699 51.7939 561.019 51.6019 561.515 51.6019C561.931 51.6019 562.347 51.7459 562.443 52.3379H564.875C564.763 50.6419 563.323 49.7459 561.562 49.7459C559.451 49.7459 558.219 50.7699 558.219 52.1619C558.219 53.3459 558.843 54.3219 560.235 54.6739L561.851 55.0899C562.475 55.2499 562.763 55.4099 562.763 55.7619C562.763 56.0499 562.491 56.2739 561.867 56.2739C561.179 56.2739 560.635 55.9539 560.603 55.3139H558.059C558.139 56.8819 559.611 58.0979 561.786 58.0979ZM570.588 58.0179C571.228 58.0179 571.676 57.9539 572.028 57.8579V55.7139C571.772 55.8099 571.516 55.8579 571.148 55.8579C570.188 55.8579 569.788 55.4579 569.788 54.4979V52.0179H572.028V49.9219H569.788V47.6979H567.372V49.9219H565.772V52.0179H567.372V54.9939C567.372 57.0259 568.812 58.0179 570.588 58.0179ZM582.732 58.1139C586.14 58.1139 588.876 55.8579 588.316 51.0419H582.412V53.4259H585.676C585.404 54.8019 584.428 55.6499 582.732 55.6499C580.62 55.6499 579.292 54.1459 579.292 52.2419C579.292 50.3379 580.62 48.8339 582.7 48.8339C583.612 48.8339 584.572 49.2019 585.116 49.9219H588.044C587.244 47.7139 585.004 46.3699 582.7 46.3699C579.228 46.3699 576.732 48.9459 576.732 52.2419C576.732 55.5379 579.228 58.1139 582.732 58.1139ZM589.867 57.9219H592.283V54.1299C592.283 52.9779 592.859 52.1779 593.899 52.1779C594.283 52.1779 594.603 52.2419 594.971 52.3699V49.9219C594.683 49.8419 594.427 49.8259 594.187 49.8259C593.307 49.8259 592.539 50.4179 592.283 51.1219V49.9219H589.867V57.9219ZM599.799 58.0979C601.815 58.0979 603.479 56.9299 603.991 55.2659H601.463C601.271 55.6979 600.631 56.0179 599.927 56.0179C598.631 56.0179 598.023 55.2979 597.911 54.4819H604.071C604.167 51.3139 602.103 49.7459 599.799 49.7459C597.383 49.7459 595.559 51.5059 595.559 53.9059C595.559 56.3379 597.319 58.0979 599.799 58.0979ZM599.735 51.6659C600.359 51.6659 601.143 51.9859 601.399 52.9459H597.975C598.183 52.2099 598.775 51.6659 599.735 51.6659ZM609.33 58.0979C611.346 58.0979 613.01 56.9299 613.522 55.2659H610.994C610.802 55.6979 610.162 56.0179 609.458 56.0179C608.162 56.0179 607.554 55.2979 607.442 54.4819H613.602C613.698 51.3139 611.634 49.7459 609.33 49.7459C606.914 49.7459 605.09 51.5059 605.09 53.9059C605.09 56.3379 606.85 58.0979 609.33 58.0979ZM609.266 51.6659C609.89 51.6659 610.674 51.9859 610.93 52.9459H607.506C607.714 52.2099 608.306 51.6659 609.266 51.6659ZM615.101 57.9219H617.517V54.0339C617.517 52.5939 618.221 51.9379 619.133 51.9379C619.997 51.9379 620.429 52.6099 620.429 53.7139V57.9219H622.845V53.2979C622.845 51.2019 621.709 49.7459 619.741 49.7459C618.701 49.7459 617.901 50.1939 617.517 50.7379V49.9219H615.101V57.9219Z" fill="white"/>
<line x1="524.562" y1="79.1875" x2="615.233" y2="79.1875" stroke="white"/>
<rect x="16" y="376" width="468" height="360" fill="#023430"/>
<path d="M60.858 505.65H61.964L62.818 502.85H64.834V501.828H63.154L63.896 499.434H65.842V498.412H64.218L65.058 495.71H63.966L63.112 498.412H60.592L61.432 495.71H60.326L59.486 498.412H57.484V499.434H59.164L58.408 501.828H56.462V502.85H58.086L57.218 505.65H58.338L59.192 502.85H61.726L60.858 505.65ZM60.27 499.434H62.79L62.048 501.828H59.528L60.27 499.434ZM74.2043 502.052V499.28C74.2043 497.082 72.7203 495.542 70.6763 495.542C68.6323 495.542 67.1623 497.082 67.1623 499.28V502.052C67.1623 504.264 68.6323 505.79 70.6763 505.79C72.7203 505.79 74.2043 504.264 74.2043 502.052ZM68.3663 502.052V499.28C68.3663 497.67 69.3323 496.718 70.6763 496.718C72.0343 496.718 73.0003 497.67 73.0003 499.28V502.052C73.0003 503.662 72.0343 504.614 70.6763 504.614C69.3323 504.614 68.3663 503.662 68.3663 502.052ZM82.1709 504.488H77.2149C77.4529 503.34 78.6149 502.766 79.7629 501.926C81.3869 500.75 82.0589 499.91 82.0589 498.454C82.0589 496.522 80.6449 495.542 78.9929 495.542C77.1589 495.542 75.7169 496.774 75.7169 498.678H76.9489C76.9629 497.39 77.9149 496.718 79.0069 496.718C80.0849 496.718 80.8269 497.404 80.8269 498.44C80.8269 499.602 80.2109 500.12 79.0629 500.974C77.5929 502.066 75.7309 503.046 75.7309 505.174V505.65H82.1709V504.488ZM90.2576 502.864C90.2576 501.73 89.6416 500.848 88.6336 500.442C89.3896 500.05 89.9636 499.238 89.9776 498.272C89.9916 496.606 88.6336 495.542 86.9536 495.542C85.1336 495.542 83.6356 496.746 83.6356 498.678H84.8676C84.8816 497.376 85.8196 496.718 86.9536 496.718C87.9476 496.718 88.7596 497.362 88.7456 498.314C88.7316 499.252 87.9476 499.924 86.9116 499.924H86.1136V501.03H86.8556C88.1436 501.03 89.0256 501.59 89.0256 502.822C89.0256 503.984 88.1156 504.614 87.0096 504.614C85.7776 504.614 84.7556 503.83 84.6856 502.626H83.4676C83.4816 504.46 85.0216 505.79 87.0096 505.79C88.9136 505.79 90.2576 504.614 90.2576 502.864ZM96.5027 505.65H97.7067V502.948H99.0787V501.814H97.7067V495.71H96.6567L91.2107 501.982V502.948H96.5027V505.65ZM96.5027 501.814H92.7927L96.5027 497.53V501.814ZM107.019 502.864C107.019 501.73 106.403 500.848 105.395 500.442C106.151 500.05 106.725 499.238 106.739 498.272C106.753 496.606 105.395 495.542 103.715 495.542C101.895 495.542 100.397 496.746 100.397 498.678H101.629C101.643 497.376 102.581 496.718 103.715 496.718C104.709 496.718 105.521 497.362 105.507 498.314C105.493 499.252 104.709 499.924 103.673 499.924H102.875V501.03H103.617C104.905 501.03 105.787 501.59 105.787 502.822C105.787 503.984 104.877 504.614 103.771 504.614C102.539 504.614 101.517 503.83 101.447 502.626H100.229C100.243 504.46 101.783 505.79 103.771 505.79C105.675 505.79 107.019 504.614 107.019 502.864ZM115.616 502.052V499.28C115.616 497.082 114.132 495.542 112.088 495.542C110.044 495.542 108.574 497.082 108.574 499.28V502.052C108.574 504.264 110.044 505.79 112.088 505.79C114.132 505.79 115.616 504.264 115.616 502.052ZM109.778 502.052V499.28C109.778 497.67 110.744 496.718 112.088 496.718C113.446 496.718 114.412 497.67 114.412 499.28V502.052C114.412 503.662 113.446 504.614 112.088 504.614C110.744 504.614 109.778 503.662 109.778 502.052ZM60.354 517.71H57.316V527.65H58.618V524.024H60.354C62.426 524.024 63.77 522.666 63.77 520.874C63.77 519.082 62.426 517.71 60.354 517.71ZM60.354 522.82H58.618V518.928H60.354C61.726 518.928 62.482 519.768 62.482 520.874C62.482 521.98 61.726 522.82 60.354 522.82ZM70.4051 524.738L73.9891 519.922V527.65H75.2771V517.71H74.1011L70.4051 522.666L66.7091 517.71H65.5191V527.65H66.8211V519.922L70.4051 524.738ZM77.2055 524.99C77.2615 526.502 78.5775 527.818 80.6635 527.818C82.5115 527.818 83.8275 526.754 83.8275 525.074C83.8275 523.59 82.9595 522.722 81.4475 522.176L80.1735 521.714C79.2075 521.364 78.7455 520.944 78.7455 520.104C78.7455 519.278 79.4875 518.76 80.4395 518.76C81.2515 518.76 82.0635 519.194 82.3155 520.23H83.6035C83.4775 518.928 82.4835 517.542 80.4675 517.542C78.7315 517.542 77.4435 518.522 77.4435 520.146C77.4575 521.546 78.1995 522.4 79.7395 522.946L81.1115 523.45C82.0355 523.786 82.5255 524.332 82.5255 525.116C82.5255 526.04 81.6855 526.6 80.6495 526.6C79.7115 526.6 78.6195 526.096 78.5075 524.99H77.2055ZM88.3458 524.962C88.3878 526.488 89.8858 527.79 91.6778 527.79C93.6098 527.79 95.0518 526.39 95.0518 524.64C95.0518 522.68 93.7498 521.21 91.8878 521.21C91.1458 521.21 90.5438 521.434 90.1518 521.728L90.6978 518.886H94.3798V517.71H89.7318L88.7098 523.016L89.8578 523.352C90.2358 522.75 90.8798 522.344 91.7338 522.344C92.9658 522.344 93.8198 523.296 93.8198 524.486C93.8198 525.662 92.9098 526.614 91.6778 526.614C90.6278 526.614 89.8018 525.9 89.5778 524.962H88.3458ZM96.1114 524.962C96.1534 526.488 97.6514 527.79 99.4434 527.79C101.375 527.79 102.817 526.39 102.817 524.64C102.817 522.68 101.515 521.21 99.6534 521.21C98.9114 521.21 98.3094 521.434 97.9174 521.728L98.4634 518.886H102.145V517.71H97.4974L96.4754 523.016L97.6234 523.352C98.0014 522.75 98.6454 522.344 99.4994 522.344C100.731 522.344 101.585 523.296 101.585 524.486C101.585 525.662 100.675 526.614 99.4434 526.614C98.3934 526.614 97.5674 525.9 97.3434 524.962H96.1114ZM110.779 524.864C110.779 523.73 110.163 522.848 109.155 522.442C109.911 522.05 110.485 521.238 110.499 520.272C110.513 518.606 109.155 517.542 107.475 517.542C105.655 517.542 104.157 518.746 104.157 520.678H105.389C105.403 519.376 106.341 518.718 107.475 518.718C108.469 518.718 109.281 519.362 109.267 520.314C109.253 521.252 108.469 521.924 107.433 521.924H106.635V523.03H107.377C108.665 523.03 109.547 523.59 109.547 524.822C109.547 525.984 108.637 526.614 107.531 526.614C106.299 526.614 105.277 525.83 105.207 524.626H103.989C104.003 526.46 105.543 527.79 107.531 527.79C109.435 527.79 110.779 526.614 110.779 524.864ZM115.515 522.68C115.515 525.578 117.755 527.818 120.667 527.818C123.173 527.818 124.993 526.18 125.427 524.374H124.055C123.621 525.62 122.319 526.586 120.667 526.586C118.455 526.586 116.817 524.878 116.817 522.68C116.817 520.482 118.455 518.774 120.667 518.774C122.319 518.774 123.621 519.74 124.055 520.986H125.427C124.993 519.18 123.173 517.542 120.667 517.542C117.755 517.542 115.515 519.782 115.515 522.68ZM56.644 544.68C56.644 547.578 58.884 549.818 61.796 549.818C64.302 549.818 66.122 548.18 66.556 546.374H65.184C64.75 547.62 63.448 548.586 61.796 548.586C59.584 548.586 57.946 546.878 57.946 544.68C57.946 542.482 59.584 540.774 61.796 540.774C63.448 540.774 64.75 541.74 65.184 542.986H66.556C66.122 541.18 64.302 539.542 61.796 539.542C58.884 539.542 56.644 541.782 56.644 544.68ZM73.2352 546.738L76.8192 541.922V549.65H78.1072V539.71H76.9312L73.2352 544.666L69.5392 539.71H68.3492V549.65H69.6512V541.922L73.2352 546.738ZM83.5076 549.65H84.7956V545.45L88.6736 539.71H87.1196L84.1516 544.134L81.1976 539.71H79.6436L83.5076 545.436V549.65ZM90.1832 549.65H91.4712V544.918L96.7492 549.65H98.5832L92.7872 544.442L97.5052 539.71H95.8112L91.4712 544.022V539.71H90.1832V549.65ZM103.438 549.65L108.17 540.718V539.71H101.646V540.886H106.742L102.094 549.65H103.438ZM115.604 546.668C115.604 545.478 115.03 544.554 114.05 544.064C114.68 543.63 115.058 542.93 115.058 542.104C115.058 540.62 113.91 539.542 112.272 539.542C110.676 539.542 109.472 540.62 109.472 542.104C109.472 542.93 109.864 543.63 110.508 544.064C109.514 544.554 108.926 545.478 108.926 546.668C108.926 548.474 110.326 549.79 112.272 549.79C114.246 549.79 115.604 548.474 115.604 546.668ZM110.662 542.132C110.662 541.306 111.306 540.676 112.272 540.676C113.266 540.676 113.868 541.306 113.868 542.132C113.868 542.902 113.28 543.602 112.272 543.602C111.292 543.602 110.662 542.902 110.662 542.132ZM110.144 546.668C110.144 545.548 110.97 544.68 112.272 544.68C113.602 544.68 114.386 545.548 114.386 546.668C114.386 547.76 113.602 548.642 112.272 548.642C110.97 548.642 110.144 547.76 110.144 546.668ZM116.505 551.19H117.639L123.043 539.71H121.909L116.505 551.19ZM128.358 549.65H129.562V546.948H130.934V545.814H129.562V539.71H128.512L123.066 545.982V546.948H128.358V549.65ZM128.358 545.814H124.648L128.358 541.53V545.814ZM138.805 546.668C138.805 545.478 138.231 544.554 137.251 544.064C137.881 543.63 138.259 542.93 138.259 542.104C138.259 540.62 137.111 539.542 135.473 539.542C133.877 539.542 132.673 540.62 132.673 542.104C132.673 542.93 133.065 543.63 133.709 544.064C132.715 544.554 132.127 545.478 132.127 546.668C132.127 548.474 133.527 549.79 135.473 549.79C137.447 549.79 138.805 548.474 138.805 546.668ZM133.863 542.132C133.863 541.306 134.507 540.676 135.473 540.676C136.467 540.676 137.069 541.306 137.069 542.132C137.069 542.902 136.481 543.602 135.473 543.602C134.493 543.602 133.863 542.902 133.863 542.132ZM133.345 546.668C133.345 545.548 134.171 544.68 135.473 544.68C136.803 544.68 137.587 545.548 137.587 546.668C137.587 547.76 136.803 548.642 135.473 548.642C134.171 548.642 133.345 547.76 133.345 546.668ZM139.706 551.19H140.84L146.244 539.71H145.11L139.706 551.19ZM148.733 549.65L153.465 540.718V539.71H146.941V540.886H152.037L147.389 549.65H148.733ZM160.076 546.486C160.076 544.75 158.634 543.28 156.968 543.28C156.842 543.28 156.716 543.294 156.576 543.308L159.614 539.71H158.088L154.462 543.98C153.846 544.708 153.342 545.464 153.342 546.514C153.342 548.32 154.784 549.79 156.716 549.79C158.648 549.79 160.076 548.32 160.076 546.486ZM154.574 546.486C154.574 545.31 155.498 544.344 156.716 544.344C157.92 544.344 158.844 545.31 158.844 546.486C158.844 547.662 157.92 548.628 156.716 548.628C155.498 548.628 154.574 547.662 154.574 546.486ZM160.898 551.19H162.032L167.436 539.71H166.302L160.898 551.19ZM172.751 549.65H173.955V546.948H175.327V545.814H173.955V539.71H172.905L167.459 545.982V546.948H172.751V549.65ZM172.751 545.814H169.041L172.751 541.53V545.814ZM176.706 549.65H178.246L181.886 545.352C182.502 544.624 183.006 543.868 183.006 542.818C183.006 541.012 181.564 539.542 179.632 539.542C177.7 539.542 176.272 541.012 176.272 542.86C176.272 544.582 177.714 546.052 179.38 546.052C179.52 546.052 179.646 546.052 179.772 546.024L176.706 549.65ZM177.504 542.846C177.504 541.67 178.414 540.704 179.632 540.704C180.85 540.704 181.774 541.67 181.774 542.846C181.774 544.022 180.85 544.988 179.632 544.988C178.414 544.988 177.504 544.022 177.504 542.846Z" fill="white"/>
<path d="M57.2 445H64.4V442.568H59.744V440.536H63.44V438.104H59.744V436.072H64.4V433.64H57.2V445ZM68.2849 445H70.5249L74.0289 437H71.3409L69.4049 441.848L67.4529 437H64.7809L68.2849 445ZM78.4864 445.176C80.5024 445.176 82.1664 444.008 82.6784 442.344H80.1504C79.9584 442.776 79.3184 443.096 78.6144 443.096C77.3184 443.096 76.7104 442.376 76.5984 441.56H82.7584C82.8544 438.392 80.7904 436.824 78.4864 436.824C76.0704 436.824 74.2464 438.584 74.2464 440.984C74.2464 443.416 76.0064 445.176 78.4864 445.176ZM78.4224 438.744C79.0464 438.744 79.8304 439.064 80.0864 440.024H76.6624C76.8704 439.288 77.4624 438.744 78.4224 438.744ZM84.2576 445H86.6736V441.208C86.6736 440.056 87.2496 439.256 88.2896 439.256C88.6736 439.256 88.9936 439.32 89.3616 439.448V437C89.0736 436.92 88.8176 436.904 88.5776 436.904C87.6976 436.904 86.9296 437.496 86.6736 438.2V437H84.2576V445ZM94.2211 448.504C96.2851 448.504 98.3011 447.464 98.3011 444.504V437H95.8851V437.8C95.5171 437.256 94.6851 436.824 93.7091 436.824C91.6611 436.824 89.9651 438.616 89.9651 440.856C89.9651 443.096 91.6611 444.888 93.7091 444.888C94.6851 444.888 95.5171 444.456 95.8851 443.912V444.856C95.8851 445.992 95.1171 446.504 94.2851 446.504C93.4691 446.504 92.9251 446.184 92.6691 445.432H90.3171C90.4451 447.16 91.9331 448.504 94.2211 448.504ZM94.2371 442.696C93.2611 442.696 92.3971 441.976 92.3971 440.856C92.3971 439.736 93.2611 439.016 94.2371 439.016C95.2131 439.016 96.0771 439.736 96.0771 440.856C96.0771 441.976 95.2131 442.696 94.2371 442.696ZM100.289 445H102.705V441.208C102.705 440.056 103.281 439.256 104.321 439.256C104.705 439.256 105.025 439.32 105.393 439.448V437C105.105 436.92 104.849 436.904 104.609 436.904C103.729 436.904 102.961 437.496 102.705 438.2V437H100.289V445ZM110.221 445.176C112.237 445.176 113.901 444.008 114.413 442.344H111.885C111.693 442.776 111.053 443.096 110.349 443.096C109.053 443.096 108.445 442.376 108.333 441.56H114.493C114.589 438.392 112.525 436.824 110.221 436.824C107.805 436.824 105.981 438.584 105.981 440.984C105.981 443.416 107.741 445.176 110.221 445.176ZM110.157 438.744C110.781 438.744 111.565 439.064 111.821 440.024H108.397C108.605 439.288 109.197 438.744 110.157 438.744ZM119.752 445.176C121.768 445.176 123.432 444.008 123.944 442.344H121.416C121.224 442.776 120.584 443.096 119.88 443.096C118.584 443.096 117.976 442.376 117.864 441.56H124.024C124.12 438.392 122.056 436.824 119.752 436.824C117.336 436.824 115.512 438.584 115.512 440.984C115.512 443.416 117.272 445.176 119.752 445.176ZM119.688 438.744C120.312 438.744 121.096 439.064 121.352 440.024H117.928C118.136 439.288 118.728 438.744 119.688 438.744ZM125.523 445H127.939V441.112C127.939 439.672 128.643 439.016 129.555 439.016C130.419 439.016 130.851 439.688 130.851 440.792V445H133.267V440.376C133.267 438.28 132.131 436.824 130.163 436.824C129.123 436.824 128.323 437.272 127.939 437.816V437H125.523V445Z" fill="white"/>
<line x1="56" y1="466.268" x2="146.671" y2="466.268" stroke="white"/>
<rect x="484" y="376" width="468" height="360" fill="#001E2B"/>
<path d="M531.069 499.961H532.175L533.029 497.161H535.045V496.139H533.365L534.107 493.745H536.053V492.723H534.429L535.269 490.021H534.177L533.323 492.723H530.803L531.643 490.021H530.537L529.697 492.723H527.695V493.745H529.375L528.619 496.139H526.673V497.161H528.297L527.429 499.961H528.549L529.403 497.161H531.937L531.069 499.961ZM530.481 493.745H533.001L532.259 496.139H529.739L530.481 493.745ZM544.415 496.363V493.591C544.415 491.393 542.931 489.853 540.887 489.853C538.843 489.853 537.373 491.393 537.373 493.591V496.363C537.373 498.575 538.843 500.101 540.887 500.101C542.931 500.101 544.415 498.575 544.415 496.363ZM538.577 496.363V493.591C538.577 491.981 539.543 491.029 540.887 491.029C542.245 491.029 543.211 491.981 543.211 493.591V496.363C543.211 497.973 542.245 498.925 540.887 498.925C539.543 498.925 538.577 497.973 538.577 496.363ZM553.138 496.363V493.591C553.138 491.393 551.654 489.853 549.61 489.853C547.566 489.853 546.096 491.393 546.096 493.591V496.363C546.096 498.575 547.566 500.101 549.61 500.101C551.654 500.101 553.138 498.575 553.138 496.363ZM547.3 496.363V493.591C547.3 491.981 548.266 491.029 549.61 491.029C550.968 491.029 551.934 491.981 551.934 493.591V496.363C551.934 497.973 550.968 498.925 549.61 498.925C548.266 498.925 547.3 497.973 547.3 496.363ZM556.009 499.961H557.213V490.021H555.071L554.091 491.211H556.009V499.961ZM559.847 499.961H565.643V498.729H561.149V495.495H564.803V494.263H561.149V491.253H565.643V490.021H559.847V499.961ZM573.45 498.799H568.494C568.732 497.651 569.894 497.077 571.042 496.237C572.666 495.061 573.338 494.221 573.338 492.765C573.338 490.833 571.924 489.853 570.272 489.853C568.438 489.853 566.996 491.085 566.996 492.989H568.228C568.242 491.701 569.194 491.029 570.286 491.029C571.364 491.029 572.106 491.715 572.106 492.751C572.106 493.913 571.49 494.431 570.342 495.285C568.872 496.377 567.01 497.357 567.01 499.485V499.961H573.45V498.799ZM575.447 499.961H579.003C581.019 499.961 582.335 498.715 582.335 497.063C582.335 495.733 581.579 495.033 580.613 494.683C581.243 494.291 581.677 493.633 581.677 492.653C581.677 491.253 580.557 490.021 578.709 490.021H575.447V499.961ZM576.749 494.291V491.197H578.709C579.773 491.197 580.403 491.911 580.403 492.751C580.403 493.633 579.773 494.291 578.709 494.291H576.749ZM576.749 498.785V495.411H579.073C580.389 495.411 581.061 496.139 581.061 497.105C581.061 498.085 580.389 498.785 579.059 498.785H576.749ZM530.565 512.021H527.527V521.961H528.829V518.335H530.565C532.637 518.335 533.981 516.977 533.981 515.185C533.981 513.393 532.637 512.021 530.565 512.021ZM530.565 517.131H528.829V513.239H530.565C531.937 513.239 532.693 514.079 532.693 515.185C532.693 516.291 531.937 517.131 530.565 517.131ZM540.616 519.049L544.2 514.233V521.961H545.488V512.021H544.312L540.616 516.977L536.92 512.021H535.73V521.961H537.032V514.233L540.616 519.049ZM547.416 519.301C547.472 520.813 548.788 522.129 550.874 522.129C552.722 522.129 554.038 521.065 554.038 519.385C554.038 517.901 553.17 517.033 551.658 516.487L550.384 516.025C549.418 515.675 548.956 515.255 548.956 514.415C548.956 513.589 549.698 513.071 550.65 513.071C551.462 513.071 552.274 513.505 552.526 514.541H553.814C553.688 513.239 552.694 511.853 550.678 511.853C548.942 511.853 547.654 512.833 547.654 514.457C547.668 515.857 548.41 516.711 549.95 517.257L551.322 517.761C552.246 518.097 552.736 518.643 552.736 519.427C552.736 520.351 551.896 520.911 550.86 520.911C549.922 520.911 548.83 520.407 548.718 519.301H547.416ZM565.179 520.799H560.223C560.461 519.651 561.623 519.077 562.771 518.237C564.395 517.061 565.067 516.221 565.067 514.765C565.067 512.833 563.653 511.853 562.001 511.853C560.167 511.853 558.725 513.085 558.725 514.989H559.957C559.971 513.701 560.923 513.029 562.015 513.029C563.093 513.029 563.835 513.715 563.835 514.751C563.835 515.913 563.219 516.431 562.071 517.285C560.601 518.377 558.739 519.357 558.739 521.485V521.961H565.179V520.799ZM566.895 521.961H568.435L572.075 517.663C572.691 516.935 573.195 516.179 573.195 515.129C573.195 513.323 571.753 511.853 569.821 511.853C567.889 511.853 566.461 513.323 566.461 515.171C566.461 516.893 567.903 518.363 569.569 518.363C569.709 518.363 569.835 518.363 569.961 518.335L566.895 521.961ZM567.693 515.157C567.693 513.981 568.603 513.015 569.821 513.015C571.039 513.015 571.963 513.981 571.963 515.157C571.963 516.333 571.039 517.299 569.821 517.299C568.603 517.299 567.693 516.333 567.693 515.157ZM580.617 518.797C580.617 517.061 579.175 515.591 577.509 515.591C577.383 515.591 577.257 515.605 577.117 515.619L580.155 512.021H578.629L575.003 516.291C574.387 517.019 573.883 517.775 573.883 518.825C573.883 520.631 575.325 522.101 577.257 522.101C579.189 522.101 580.617 520.631 580.617 518.797ZM575.115 518.797C575.115 517.621 576.039 516.655 577.257 516.655C578.461 516.655 579.385 517.621 579.385 518.797C579.385 519.973 578.461 520.939 577.257 520.939C576.039 520.939 575.115 519.973 575.115 518.797ZM585.22 516.991C585.22 519.889 587.46 522.129 590.372 522.129C592.878 522.129 594.698 520.491 595.132 518.685H593.76C593.326 519.931 592.024 520.897 590.372 520.897C588.16 520.897 586.522 519.189 586.522 516.991C586.522 514.793 588.16 513.085 590.372 513.085C592.024 513.085 593.326 514.051 593.76 515.297H595.132C594.698 513.491 592.878 511.853 590.372 511.853C587.46 511.853 585.22 514.093 585.22 516.991ZM526.855 538.991C526.855 541.889 529.095 544.129 532.007 544.129C534.513 544.129 536.333 542.491 536.767 540.685H535.395C534.961 541.931 533.659 542.897 532.007 542.897C529.795 542.897 528.157 541.189 528.157 538.991C528.157 536.793 529.795 535.085 532.007 535.085C533.659 535.085 534.961 536.051 535.395 537.297H536.767C536.333 535.491 534.513 533.853 532.007 533.853C529.095 533.853 526.855 536.093 526.855 538.991ZM543.446 541.049L547.03 536.233V543.961H548.318V534.021H547.142L543.446 538.977L539.75 534.021H538.56V543.961H539.862V536.233L543.446 541.049ZM553.719 543.961H555.007V539.761L558.885 534.021H557.331L554.363 538.445L551.409 534.021H549.855L553.719 539.747V543.961ZM560.394 543.961H561.682V539.229L566.96 543.961H568.794L562.998 538.753L567.716 534.021H566.022L561.682 538.333V534.021H560.394V543.961ZM578.787 540.979C578.787 539.789 578.213 538.865 577.233 538.375C577.863 537.941 578.241 537.241 578.241 536.415C578.241 534.931 577.093 533.853 575.455 533.853C573.859 533.853 572.655 534.931 572.655 536.415C572.655 537.241 573.047 537.941 573.691 538.375C572.697 538.865 572.109 539.789 572.109 540.979C572.109 542.785 573.509 544.101 575.455 544.101C577.429 544.101 578.787 542.785 578.787 540.979ZM573.845 536.443C573.845 535.617 574.489 534.987 575.455 534.987C576.449 534.987 577.051 535.617 577.051 536.443C577.051 537.213 576.463 537.913 575.455 537.913C574.475 537.913 573.845 537.213 573.845 536.443ZM573.327 540.979C573.327 539.859 574.153 538.991 575.455 538.991C576.785 538.991 577.569 539.859 577.569 540.979C577.569 542.071 576.785 542.953 575.455 542.953C574.153 542.953 573.327 542.071 573.327 540.979ZM580.485 543.961H582.025L585.665 539.663C586.281 538.935 586.785 538.179 586.785 537.129C586.785 535.323 585.343 533.853 583.411 533.853C581.479 533.853 580.051 535.323 580.051 537.171C580.051 538.893 581.493 540.363 583.159 540.363C583.299 540.363 583.425 540.363 583.551 540.335L580.485 543.961ZM581.283 537.157C581.283 535.981 582.193 535.015 583.411 535.015C584.629 535.015 585.553 535.981 585.553 537.157C585.553 538.333 584.629 539.299 583.411 539.299C582.193 539.299 581.283 538.333 581.283 537.157ZM586.73 545.501H587.864L593.268 534.021H592.134L586.73 545.501ZM595.757 543.961L600.489 535.029V534.021H593.965V535.197H599.061L594.413 543.961H595.757ZM601.035 541.273C601.077 542.799 602.575 544.101 604.367 544.101C606.299 544.101 607.741 542.701 607.741 540.951C607.741 538.991 606.439 537.521 604.577 537.521C603.835 537.521 603.233 537.745 602.841 538.039L603.387 535.197H607.069V534.021H602.421L601.399 539.327L602.547 539.663C602.925 539.061 603.569 538.655 604.423 538.655C605.655 538.655 606.509 539.607 606.509 540.797C606.509 541.973 605.599 542.925 604.367 542.925C603.317 542.925 602.491 542.211 602.267 541.273H601.035ZM608.55 545.501H609.684L615.088 534.021H613.954L608.55 545.501ZM615.883 541.273C615.925 542.799 617.423 544.101 619.215 544.101C621.147 544.101 622.589 542.701 622.589 540.951C622.589 538.991 621.287 537.521 619.425 537.521C618.683 537.521 618.081 537.745 617.689 538.039L618.235 535.197H621.917V534.021H617.269L616.247 539.327L617.395 539.663C617.773 539.061 618.417 538.655 619.271 538.655C620.503 538.655 621.357 539.607 621.357 540.797C621.357 541.973 620.447 542.925 619.215 542.925C618.165 542.925 617.339 542.211 617.115 541.273H615.883ZM623.649 541.273C623.691 542.799 625.189 544.101 626.981 544.101C628.913 544.101 630.355 542.701 630.355 540.951C630.355 538.991 629.053 537.521 627.191 537.521C626.449 537.521 625.847 537.745 625.455 538.039L626.001 535.197H629.683V534.021H625.035L624.013 539.327L625.161 539.663C625.539 539.061 626.183 538.655 627.037 538.655C628.269 538.655 629.123 539.607 629.123 540.797C629.123 541.973 628.213 542.925 626.981 542.925C625.931 542.925 625.105 542.211 624.881 541.273H623.649ZM631.163 545.501H632.297L637.701 534.021H636.567L631.163 545.501ZM644.711 540.797C644.711 539.061 643.269 537.591 641.603 537.591C641.477 537.591 641.351 537.605 641.211 537.619L644.249 534.021H642.723L639.097 538.291C638.481 539.019 637.977 539.775 637.977 540.825C637.977 542.631 639.419 544.101 641.351 544.101C643.283 544.101 644.711 542.631 644.711 540.797ZM639.209 540.797C639.209 539.621 640.133 538.655 641.351 538.655C642.555 538.655 643.479 539.621 643.479 540.797C643.479 541.973 642.555 542.939 641.351 542.939C640.133 542.939 639.209 541.973 639.209 540.797ZM646.179 543.961H647.719L651.359 539.663C651.975 538.935 652.479 538.179 652.479 537.129C652.479 535.323 651.037 533.853 649.105 533.853C647.173 533.853 645.745 535.323 645.745 537.171C645.745 538.893 647.187 540.363 648.853 540.363C648.993 540.363 649.119 540.363 649.245 540.335L646.179 543.961ZM646.977 537.157C646.977 535.981 647.887 535.015 649.105 535.015C650.323 535.015 651.247 535.981 651.247 537.157C651.247 538.333 650.323 539.299 649.105 539.299C647.887 539.299 646.977 538.333 646.977 537.157Z" fill="white"/>
<path d="M531.203 439.505C533.651 439.505 535.251 438 535.251 436.064C535.251 434.288 534.099 433.072 532.243 432.592L530.947 432.256C530.067 432.032 529.555 431.664 529.571 431.04C529.587 430.432 530.179 430.112 530.915 430.112C531.523 430.112 532.227 430.416 532.483 431.312H535.011C534.947 429.568 533.395 427.76 530.915 427.76C528.563 427.76 526.995 429.072 527.011 431.216C527.027 432.992 528.275 434.144 530.083 434.624L531.187 434.912C532.275 435.201 532.675 435.616 532.675 436.144C532.675 436.784 532.051 437.152 531.203 437.152C530.211 437.152 529.427 436.624 529.267 435.664H526.723C526.819 437.568 528.387 439.505 531.203 439.505ZM536.75 439.312H539.166V427.312H536.75V439.312ZM544.388 439.489C545.46 439.489 546.244 438.944 546.564 438.512V439.312H548.98V431.312H546.564V432.112C546.244 431.68 545.46 431.136 544.388 431.136C542.292 431.136 540.676 433.04 540.676 435.312C540.676 437.584 542.292 439.489 544.388 439.489ZM544.932 437.296C543.844 437.296 543.108 436.464 543.108 435.312C543.108 434.16 543.844 433.328 544.932 433.328C546.02 433.328 546.756 434.16 546.756 435.312C546.756 436.464 546.02 437.296 544.932 437.296ZM555.049 439.409C555.689 439.409 556.137 439.345 556.489 439.248V437.104C556.233 437.201 555.977 437.248 555.609 437.248C554.649 437.248 554.249 436.848 554.249 435.888V433.408H556.489V431.312H554.249V429.088H551.833V431.312H550.233V433.408H551.833V436.384C551.833 438.416 553.273 439.409 555.049 439.409ZM561.666 439.489C563.682 439.489 565.346 438.32 565.858 436.656H563.33C563.138 437.088 562.498 437.408 561.794 437.408C560.498 437.408 559.89 436.688 559.778 435.872H565.938C566.034 432.704 563.97 431.136 561.666 431.136C559.25 431.136 557.426 432.896 557.426 435.296C557.426 437.728 559.186 439.489 561.666 439.489ZM561.602 433.056C562.226 433.056 563.01 433.376 563.266 434.336H559.842C560.05 433.6 560.642 433.056 561.602 433.056ZM571.239 439.312H576.231C578.183 439.312 579.687 437.84 579.687 435.968C579.687 434.752 579.031 433.776 578.071 433.28C578.567 432.8 578.887 432.128 578.887 431.328C578.887 429.456 577.367 427.952 575.511 427.952H571.239V439.312ZM573.783 432.544V430.273H575.223C575.911 430.273 576.407 430.8 576.407 431.424C576.407 432.032 575.911 432.544 575.223 432.544H573.783ZM573.783 436.976V434.704H576.007C576.695 434.704 577.207 435.216 577.207 435.84C577.207 436.48 576.695 436.976 576.023 436.976H573.783ZM581.094 439.312H583.51V427.312H581.094V439.312ZM588.428 439.489C589.468 439.489 590.172 439.056 590.556 438.496V439.312H592.972V431.312H590.556V435.201C590.556 436.672 589.964 437.296 589.052 437.296C588.156 437.296 587.82 436.624 587.82 435.456V431.312H585.404V435.872C585.404 438.048 586.444 439.489 588.428 439.489ZM598.713 439.489C600.729 439.489 602.393 438.32 602.905 436.656H600.377C600.185 437.088 599.545 437.408 598.841 437.408C597.545 437.408 596.937 436.688 596.825 435.872H602.985C603.081 432.704 601.017 431.136 598.713 431.136C596.297 431.136 594.473 432.896 594.473 435.296C594.473 437.728 596.233 439.489 598.713 439.489ZM598.649 433.056C599.273 433.056 600.057 433.376 600.313 434.336H596.889C597.097 433.6 597.689 433.056 598.649 433.056Z" fill="white"/>
<line x1="526.211" y1="460.578" x2="616.882" y2="460.578" stroke="white"/>
</svg>
