<svg width="699" height="742" viewBox="0 0 699 742" fill="none" xmlns="http://www.w3.org/2000/svg">
<g style="mix-blend-mode:multiply" opacity="0.2" filter="url(#filter0_f_4911_64059)">
<path d="M121.12 596.819L329.411 513.088C343.189 507.55 358.568 507.556 372.341 513.118L579.828 596.831C594.675 602.819 594.634 623.927 579.763 629.862L372.14 712.721C358.486 718.17 343.272 718.182 329.612 712.745L121.185 629.868C106.285 623.945 106.249 602.801 121.12 596.819Z" fill="#001E2B"/>
</g>
<path d="M130.709 523.051L329.926 442.967C343.104 437.67 357.814 437.676 370.986 442.995L569.435 523.062C583.636 528.79 583.596 548.978 569.373 554.654L370.794 633.905C357.734 639.116 343.183 639.128 330.118 633.927L130.771 554.66C116.519 548.995 116.485 528.773 130.709 523.051Z" fill="#001E2B"/>
<path d="M130.709 519.832L329.926 439.748C343.104 434.451 357.814 434.457 370.986 439.776L569.435 519.843C583.636 525.571 583.596 545.759 569.373 551.436L370.794 630.686C357.734 635.897 343.183 635.909 330.118 630.708L130.771 551.441C116.519 545.776 116.485 525.554 130.709 519.832Z" fill="#023430"/>
<path d="M264.169 538.05H272.449V536.29H266.029V531.67H271.249V529.91H266.029V525.61H272.449V523.85H264.169V538.05ZM274.827 538.05H276.547V533.09C276.547 530.75 277.827 529.43 279.447 529.43C280.847 529.43 281.807 530.47 281.807 532.15V538.05H283.507V531.89C283.507 529.41 281.967 527.85 279.727 527.85C278.427 527.85 277.227 528.41 276.547 529.59V528.05H274.827V538.05ZM291.907 537.91V536.37C291.587 536.49 291.107 536.57 290.687 536.57C289.607 536.57 289.027 536.15 289.027 534.87V529.63H291.907V528.05H289.027V525.27H287.307V528.05H285.187V529.63H287.307V535.09C287.307 537.17 288.627 538.15 290.367 538.15C290.987 538.15 291.487 538.05 291.907 537.91ZM302.907 535.01H301.147C300.547 536.21 299.487 536.69 298.247 536.69C296.447 536.69 294.987 535.33 294.927 533.51H303.067C303.307 530.41 301.407 527.85 298.267 527.85C295.147 527.85 293.187 530.13 293.187 533.05C293.187 536.03 295.307 538.25 298.227 538.25C300.767 538.25 302.407 536.77 302.907 535.01ZM298.207 529.37C299.687 529.37 300.927 530.29 301.247 532.15H295.007C295.347 530.17 296.767 529.37 298.207 529.37ZM305.549 538.05H307.269V533.09C307.269 530.75 308.649 529.65 309.909 529.65C310.249 529.65 310.529 529.69 310.849 529.81V528.03C310.569 527.97 310.329 527.95 310.069 527.95C308.909 527.95 307.669 528.71 307.269 529.99V528.05H305.549V538.05ZM312.874 542.23H314.594V536.51C315.254 537.47 316.614 538.25 318.114 538.25C320.894 538.25 323.014 535.91 323.014 533.05C323.014 530.19 320.894 527.85 318.114 527.85C316.614 527.85 315.254 528.63 314.594 529.59V528.05H312.874V542.23ZM321.254 533.05C321.254 535.07 319.874 536.67 317.854 536.67C315.834 536.67 314.454 535.07 314.454 533.05C314.454 531.03 315.834 529.43 317.854 529.43C319.874 529.43 321.254 531.03 321.254 533.05ZM325.491 538.05H327.211V533.09C327.211 530.75 328.591 529.65 329.851 529.65C330.191 529.65 330.471 529.69 330.791 529.81V528.03C330.511 527.97 330.271 527.95 330.011 527.95C328.851 527.95 327.611 528.71 327.211 529.99V528.05H325.491V538.05ZM334.895 524.15C334.895 523.49 334.375 522.93 333.695 522.93C333.015 522.93 332.455 523.49 332.455 524.15C332.455 524.83 333.015 525.37 333.695 525.37C334.375 525.37 334.895 524.83 334.895 524.15ZM332.815 538.05H334.535V528.05H332.815V538.05ZM344.696 535.35C344.696 533.85 343.796 532.81 342.136 532.39L340.536 531.97C339.476 531.69 339.016 531.27 339.016 530.53C339.016 529.77 339.776 529.29 340.736 529.29C341.676 529.29 342.396 529.83 342.656 530.71H344.376C344.196 529.11 342.876 527.85 340.736 527.85C338.716 527.85 337.276 528.89 337.276 530.55C337.276 531.97 338.136 533.05 339.856 533.49L341.296 533.87C342.476 534.19 342.956 534.67 342.956 535.47C342.956 536.35 342.116 536.79 341.036 536.79C339.996 536.79 338.956 536.37 338.716 535.15H336.956C337.096 537.17 338.876 538.25 341.016 538.25C343.096 538.25 344.696 537.33 344.696 535.35ZM356.072 535.01H354.312C353.712 536.21 352.652 536.69 351.412 536.69C349.612 536.69 348.152 535.33 348.092 533.51H356.232C356.472 530.41 354.572 527.85 351.432 527.85C348.312 527.85 346.352 530.13 346.352 533.05C346.352 536.03 348.472 538.25 351.392 538.25C353.932 538.25 355.572 536.77 356.072 535.01ZM351.372 529.37C352.852 529.37 354.092 530.29 354.412 532.15H348.172C348.512 530.17 349.932 529.37 351.372 529.37ZM368.138 523.85H363.798V538.05H365.658V532.87H368.138C371.098 532.87 373.018 530.93 373.018 528.37C373.018 525.81 371.098 523.85 368.138 523.85ZM368.138 531.15H365.658V525.59H368.138C370.098 525.59 371.178 526.79 371.178 528.37C371.178 529.95 370.098 531.15 368.138 531.15ZM375.217 538.05H376.937V523.05H375.217V538.05ZM379.418 533.05C379.418 535.91 381.518 538.25 384.318 538.25C385.818 538.25 387.178 537.47 387.838 536.51V538.05H389.558V528.05H387.838V529.59C387.178 528.63 385.818 527.85 384.318 527.85C381.518 527.85 379.418 530.19 379.418 533.05ZM387.978 533.05C387.978 535.07 386.598 536.67 384.578 536.67C382.558 536.67 381.158 535.07 381.158 533.05C381.158 531.03 382.558 529.43 384.578 529.43C386.598 529.43 387.978 531.03 387.978 533.05ZM398.216 537.91V536.37C397.896 536.49 397.416 536.57 396.996 536.57C395.916 536.57 395.336 536.15 395.336 534.87V529.63H398.216V528.05H395.336V525.27H393.616V528.05H391.496V529.63H393.616V535.09C393.616 537.17 394.936 538.15 396.676 538.15C397.296 538.15 397.796 538.05 398.216 537.91ZM401.253 538.05H402.973V529.63H405.873V528.05H402.973V526.21C402.973 524.95 403.533 524.51 404.633 524.51C405.033 524.51 405.553 524.59 405.873 524.71V523.19C405.433 523.03 404.913 522.93 404.313 522.93C402.573 522.93 401.253 523.97 401.253 526.03V528.05H399.133V529.63H401.253V538.05ZM417.163 533.05C417.163 530.17 414.943 527.85 411.943 527.85C408.923 527.85 406.703 530.17 406.703 533.05C406.703 535.93 408.923 538.25 411.943 538.25C414.943 538.25 417.163 535.93 417.163 533.05ZM408.463 533.05C408.463 531.05 409.863 529.45 411.943 529.45C414.023 529.45 415.403 531.05 415.403 533.05C415.403 535.05 414.023 536.65 411.943 536.65C409.863 536.65 408.463 535.05 408.463 533.05ZM419.632 538.05H421.352V533.09C421.352 530.75 422.732 529.65 423.992 529.65C424.332 529.65 424.612 529.69 424.932 529.81V528.03C424.652 527.97 424.412 527.95 424.152 527.95C422.992 527.95 421.752 528.71 421.352 529.99V528.05H419.632V538.05ZM426.956 538.05H428.676V533.09C428.676 530.83 429.816 529.43 431.436 529.43C432.736 529.43 433.396 530.55 433.396 532.17V538.05H435.116V533.09C435.116 530.83 436.236 529.43 437.856 529.43C439.156 529.43 439.836 530.55 439.836 532.17V538.05H441.556V531.91C441.556 529.47 440.236 527.85 438.056 527.85C436.576 527.85 435.316 528.67 434.776 529.99C434.276 528.67 433.196 527.85 431.696 527.85C430.356 527.85 429.256 528.53 428.676 529.59V528.05H426.956V538.05Z" fill="#E3FCF7"/>
<g style="mix-blend-mode:multiply" opacity="0.2" filter="url(#filter1_f_4911_64059)">
<path d="M204.515 397.504L336.28 344.535C344.996 341.032 354.725 341.036 363.437 344.554L494.693 397.511C504.086 401.299 504.06 414.652 494.652 418.407L363.31 470.824C354.672 474.271 345.048 474.278 336.407 470.839L204.556 418.41C195.13 414.663 195.107 401.288 204.515 397.504Z" fill="#001E2B"/>
</g>
<g style="mix-blend-mode:multiply" opacity="0.2" filter="url(#filter2_f_4911_64059)">
<path d="M182.162 489.826L248.114 463.314C252.477 461.56 257.346 461.562 261.707 463.323L291.535 474.897C296.236 476.793 296.223 483.476 291.514 485.355L225.773 511.592C221.45 513.317 216.633 513.321 212.307 511.599L182.182 500.29C177.464 498.415 177.453 491.72 182.162 489.826Z" fill="#001E2B"/>
</g>
<g style="mix-blend-mode:multiply" opacity="0.2" filter="url(#filter3_f_4911_64059)">
<path d="M520.5 492.065L456.147 466.195C451.89 464.484 447.139 464.486 442.884 466.205L413.779 477.497C409.192 479.348 409.205 485.869 413.799 487.703L477.946 513.303C482.164 514.986 486.865 514.99 491.085 513.31L520.48 502.276C525.084 500.446 525.095 493.913 520.5 492.065Z" fill="#001E2B"/>
</g>
<g style="mix-blend-mode:multiply" opacity="0.2" filter="url(#filter4_f_4911_64059)">
<path d="M277.721 451.363L334.842 427.738C339.204 425.985 353.432 423.091 363.995 427.738L422.964 451.367C427.666 453.263 427.653 459.946 422.944 461.826L357.203 488.062C352.88 489.787 348.062 489.791 343.737 488.069L277.742 461.827C273.024 459.952 273.012 453.257 277.721 451.363Z" fill="#001E2B"/>
</g>
<path opacity="0.16" d="M130.709 266.096L329.926 186.013C343.104 180.716 357.814 180.722 370.986 186.041L569.435 266.108C583.636 271.835 583.596 292.024 569.373 297.7L370.794 376.95C357.734 382.162 343.183 382.173 330.118 376.973L130.771 297.706C116.519 292.041 116.485 271.818 130.709 266.096Z" fill="#00684A"/>
<path d="M247.71 286.467H255.99V284.707H249.57V280.087H254.79V278.327H249.57V274.027H255.99V272.267H247.71V286.467ZM257.083 286.467H259.223L262.263 282.687L265.303 286.467H267.423L263.343 281.407L267.103 276.467H265.003L262.263 280.067L259.503 276.467H257.423L261.183 281.407L257.083 286.467ZM269.188 290.647H270.908V284.927C271.568 285.887 272.928 286.667 274.428 286.667C277.208 286.667 279.328 284.327 279.328 281.467C279.328 278.607 277.208 276.267 274.428 276.267C272.928 276.267 271.568 277.047 270.908 278.007V276.467H269.188V290.647ZM277.568 281.467C277.568 283.487 276.188 285.087 274.168 285.087C272.148 285.087 270.768 283.487 270.768 281.467C270.768 279.447 272.148 277.847 274.168 277.847C276.188 277.847 277.568 279.447 277.568 281.467ZM281.026 281.467C281.026 284.327 283.126 286.667 285.926 286.667C287.426 286.667 288.786 285.887 289.446 284.927V286.467H291.166V276.467H289.446V278.007C288.786 277.047 287.426 276.267 285.926 276.267C283.126 276.267 281.026 278.607 281.026 281.467ZM289.586 281.467C289.586 283.487 288.206 285.087 286.186 285.087C284.166 285.087 282.766 283.487 282.766 281.467C282.766 279.447 284.166 277.847 286.186 277.847C288.206 277.847 289.586 279.447 289.586 281.467ZM294.403 286.467H296.123V281.507C296.123 279.167 297.403 277.847 299.023 277.847C300.423 277.847 301.383 278.887 301.383 280.567V286.467H303.083V280.307C303.083 277.827 301.543 276.267 299.303 276.267C298.003 276.267 296.803 276.827 296.123 278.007V276.467H294.403V286.467ZM305.401 281.467C305.401 284.327 307.501 286.667 310.301 286.667C311.801 286.667 313.161 285.887 313.821 284.927V286.467H315.541V271.467H313.821V278.007C313.161 277.047 311.801 276.267 310.301 276.267C307.501 276.267 305.401 278.607 305.401 281.467ZM313.961 281.467C313.961 283.487 312.581 285.087 310.561 285.087C308.541 285.087 307.141 283.487 307.141 281.467C307.141 279.447 308.541 277.847 310.561 277.847C312.581 277.847 313.961 279.447 313.961 281.467ZM327.718 283.427H325.958C325.358 284.627 324.298 285.107 323.058 285.107C321.258 285.107 319.798 283.747 319.738 281.927H327.878C328.118 278.827 326.218 276.267 323.078 276.267C319.958 276.267 317.998 278.547 317.998 281.467C317.998 284.447 320.118 286.667 323.038 286.667C325.578 286.667 327.218 285.187 327.718 283.427ZM323.018 277.787C324.498 277.787 325.738 278.707 326.058 280.567H319.818C320.158 278.587 321.578 277.787 323.018 277.787ZM329.58 281.467C329.58 284.327 331.68 286.667 334.48 286.667C335.98 286.667 337.34 285.887 338 284.927V286.467H339.72V271.467H338V278.007C337.34 277.047 335.98 276.267 334.48 276.267C331.68 276.267 329.58 278.607 329.58 281.467ZM338.14 281.467C338.14 283.487 336.76 285.087 334.74 285.087C332.72 285.087 331.32 283.487 331.32 281.467C331.32 279.447 332.72 277.847 334.74 277.847C336.76 277.847 338.14 279.447 338.14 281.467ZM347.082 279.367C347.082 283.507 350.282 286.707 354.442 286.707C358.022 286.707 360.622 284.367 361.242 281.787H359.282C358.662 283.567 356.802 284.947 354.442 284.947C351.282 284.947 348.942 282.507 348.942 279.367C348.942 276.227 351.282 273.787 354.442 273.787C356.802 273.787 358.662 275.167 359.282 276.947H361.242C360.622 274.367 358.022 272.027 354.442 272.027C350.282 272.027 347.082 275.227 347.082 279.367ZM362.764 281.467C362.764 284.327 364.864 286.667 367.664 286.667C369.164 286.667 370.524 285.887 371.184 284.927V286.467H372.904V276.467H371.184V278.007C370.524 277.047 369.164 276.267 367.664 276.267C364.864 276.267 362.764 278.607 362.764 281.467ZM371.324 281.467C371.324 283.487 369.944 285.087 367.924 285.087C365.904 285.087 364.504 283.487 364.504 281.467C364.504 279.447 365.904 277.847 367.924 277.847C369.944 277.847 371.324 279.447 371.324 281.467ZM376.141 290.647H377.861V284.927C378.521 285.887 379.881 286.667 381.381 286.667C384.161 286.667 386.281 284.327 386.281 281.467C386.281 278.607 384.161 276.267 381.381 276.267C379.881 276.267 378.521 277.047 377.861 278.007V276.467H376.141V290.647ZM384.521 281.467C384.521 283.487 383.141 285.087 381.121 285.087C379.101 285.087 377.721 283.487 377.721 281.467C377.721 279.447 379.101 277.847 381.121 277.847C383.141 277.847 384.521 279.447 384.521 281.467ZM387.979 281.467C387.979 284.327 390.079 286.667 392.879 286.667C394.379 286.667 395.739 285.887 396.399 284.927V286.467H398.119V276.467H396.399V278.007C395.739 277.047 394.379 276.267 392.879 276.267C390.079 276.267 387.979 278.607 387.979 281.467ZM396.539 281.467C396.539 283.487 395.159 285.087 393.139 285.087C391.119 285.087 389.719 283.487 389.719 281.467C389.719 279.447 391.119 277.847 393.139 277.847C395.159 277.847 396.539 279.447 396.539 281.467ZM403.076 284.927C403.736 285.887 405.096 286.667 406.596 286.667C409.376 286.667 411.496 284.327 411.496 281.467C411.496 278.607 409.376 276.267 406.596 276.267C405.096 276.267 403.736 277.047 403.076 278.007V271.467H401.356V286.467H403.076V284.927ZM409.736 281.467C409.736 283.487 408.356 285.087 406.336 285.087C404.316 285.087 402.936 283.487 402.936 281.467C402.936 279.447 404.316 277.847 406.336 277.847C408.356 277.847 409.736 279.447 409.736 281.467ZM416.034 272.567C416.034 271.907 415.514 271.347 414.834 271.347C414.154 271.347 413.594 271.907 413.594 272.567C413.594 273.247 414.154 273.787 414.834 273.787C415.514 273.787 416.034 273.247 416.034 272.567ZM413.954 286.467H415.674V276.467H413.954V286.467ZM418.934 286.467H420.654V271.467H418.934V286.467ZM425.995 272.567C425.995 271.907 425.475 271.347 424.795 271.347C424.115 271.347 423.555 271.907 423.555 272.567C423.555 273.247 424.115 273.787 424.795 273.787C425.475 273.787 425.995 273.247 425.995 272.567ZM423.915 286.467H425.635V276.467H423.915V286.467ZM434.315 286.327V284.787C433.995 284.907 433.515 284.987 433.095 284.987C432.015 284.987 431.435 284.567 431.435 283.287V278.047H434.315V276.467H431.435V273.687H429.715V276.467H427.595V278.047H429.715V283.507C429.715 285.587 431.035 286.567 432.775 286.567C433.395 286.567 433.895 286.467 434.315 286.327ZM438.593 272.567C438.593 271.907 438.073 271.347 437.393 271.347C436.713 271.347 436.153 271.907 436.153 272.567C436.153 273.247 436.713 273.787 437.393 273.787C438.073 273.787 438.593 273.247 438.593 272.567ZM436.513 286.467H438.233V276.467H436.513V286.467ZM450.433 283.427H448.673C448.073 284.627 447.013 285.107 445.773 285.107C443.973 285.107 442.513 283.747 442.453 281.927H450.593C450.833 278.827 448.933 276.267 445.793 276.267C442.673 276.267 440.713 278.547 440.713 281.467C440.713 284.447 442.833 286.667 445.753 286.667C448.293 286.667 449.933 285.187 450.433 283.427ZM445.733 277.787C447.213 277.787 448.453 278.707 448.773 280.567H442.533C442.873 278.587 444.293 277.787 445.733 277.787ZM459.975 283.767C459.975 282.267 459.075 281.227 457.415 280.807L455.815 280.387C454.755 280.107 454.295 279.687 454.295 278.947C454.295 278.187 455.055 277.707 456.015 277.707C456.955 277.707 457.675 278.247 457.935 279.127H459.655C459.475 277.527 458.155 276.267 456.015 276.267C453.995 276.267 452.555 277.307 452.555 278.967C452.555 280.387 453.415 281.467 455.135 281.907L456.575 282.287C457.755 282.607 458.235 283.087 458.235 283.887C458.235 284.767 457.395 285.207 456.315 285.207C455.275 285.207 454.235 284.787 453.995 283.567H452.235C452.375 285.587 454.155 286.667 456.295 286.667C458.375 286.667 459.975 285.747 459.975 283.767Z" fill="white"/>
<path opacity="0.3" d="M130.709 84.0507L329.926 3.96678C343.104 -1.32981 357.814 -1.32414 370.986 3.99513L569.435 84.062C583.636 89.7896 583.597 109.978 569.373 115.654L370.794 194.905C357.735 200.116 343.184 200.128 330.119 194.927L130.771 115.66C116.519 109.995 116.485 89.7726 130.709 84.0507Z" fill="#023430"/>
<path d="M273.354 107.184H277.434C281.794 107.184 284.994 104.144 284.994 100.084C284.994 96.0238 281.794 92.9838 277.434 92.9838H273.354V107.184ZM275.214 105.444V94.7238H277.434C280.854 94.7238 283.114 97.0038 283.114 100.084C283.114 103.164 280.854 105.444 277.434 105.444H275.214ZM297.168 102.184C297.168 99.3038 294.948 96.9838 291.948 96.9838C288.928 96.9838 286.708 99.3038 286.708 102.184C286.708 105.064 288.928 107.384 291.948 107.384C294.948 107.384 297.168 105.064 297.168 102.184ZM288.468 102.184C288.468 100.184 289.868 98.5838 291.948 98.5838C294.028 98.5838 295.408 100.184 295.408 102.184C295.408 104.184 294.028 105.784 291.948 105.784C289.868 105.784 288.468 104.184 288.468 102.184ZM309.117 103.664H307.277C306.837 104.924 305.637 105.804 304.077 105.804C301.997 105.804 300.597 104.204 300.597 102.184C300.597 100.164 301.997 98.5638 304.077 98.5638C305.637 98.5638 306.837 99.4438 307.277 100.704H309.117C308.557 98.5438 306.597 96.9838 304.077 96.9838C301.037 96.9838 298.857 99.3238 298.857 102.184C298.857 105.044 301.037 107.384 304.077 107.384C306.597 107.384 308.557 105.824 309.117 103.664ZM311.255 103.324C311.255 105.804 312.735 107.384 314.935 107.384C316.195 107.384 317.355 106.804 318.015 105.644V107.184H319.735V97.1838H318.015V102.144C318.015 104.444 316.795 105.804 315.235 105.804C313.855 105.804 312.975 104.744 312.975 103.064V97.1838H311.255V103.324ZM322.977 107.184H324.697V102.224C324.697 99.9638 325.837 98.5638 327.457 98.5638C328.757 98.5638 329.417 99.6838 329.417 101.304V107.184H331.137V102.224C331.137 99.9638 332.257 98.5638 333.877 98.5638C335.177 98.5638 335.857 99.6838 335.857 101.304V107.184H337.577V101.044C337.577 98.6038 336.257 96.9838 334.077 96.9838C332.597 96.9838 331.337 97.8038 330.797 99.1238C330.297 97.8038 329.217 96.9838 327.717 96.9838C326.377 96.9838 325.277 97.6638 324.697 98.7238V97.1838H322.977V107.184ZM349.612 104.144H347.852C347.252 105.344 346.192 105.824 344.952 105.824C343.152 105.824 341.692 104.464 341.632 102.644H349.772C350.012 99.5438 348.112 96.9838 344.972 96.9838C341.852 96.9838 339.892 99.2638 339.892 102.184C339.892 105.164 342.012 107.384 344.932 107.384C347.472 107.384 349.112 105.904 349.612 104.144ZM344.912 98.5038C346.392 98.5038 347.632 99.4238 347.952 101.284H341.712C342.052 99.3038 343.472 98.5038 344.912 98.5038ZM352.254 107.184H353.974V102.224C353.974 99.8838 355.254 98.5638 356.874 98.5638C358.274 98.5638 359.234 99.6038 359.234 101.284V107.184H360.934V101.024C360.934 98.5438 359.394 96.9838 357.154 96.9838C355.854 96.9838 354.654 97.5438 353.974 98.7238V97.1838H352.254V107.184ZM369.334 107.044V105.504C369.014 105.624 368.534 105.704 368.114 105.704C367.034 105.704 366.454 105.284 366.454 104.004V98.7638H369.334V97.1838H366.454V94.4038H364.734V97.1838H362.614V98.7638H364.734V104.224C364.734 106.304 366.054 107.284 367.794 107.284C368.414 107.284 368.914 107.184 369.334 107.044ZM383.596 103.024L388.716 96.1438V107.184H390.556V92.9838H388.876L383.596 100.064L378.316 92.9838H376.616V107.184H378.476V96.1438L383.596 103.024ZM403.555 102.184C403.555 99.3038 401.335 96.9838 398.335 96.9838C395.315 96.9838 393.095 99.3038 393.095 102.184C393.095 105.064 395.315 107.384 398.335 107.384C401.335 107.384 403.555 105.064 403.555 102.184ZM394.855 102.184C394.855 100.184 396.255 98.5838 398.335 98.5838C400.415 98.5838 401.795 100.184 401.795 102.184C401.795 104.184 400.415 105.784 398.335 105.784C396.255 105.784 394.855 104.184 394.855 102.184ZM405.244 102.184C405.244 105.044 407.344 107.384 410.144 107.384C411.644 107.384 413.004 106.604 413.664 105.644V107.184H415.384V92.1838H413.664V98.7238C413.004 97.7638 411.644 96.9838 410.144 96.9838C407.344 96.9838 405.244 99.3238 405.244 102.184ZM413.804 102.184C413.804 104.204 412.424 105.804 410.404 105.804C408.384 105.804 406.984 104.204 406.984 102.184C406.984 100.164 408.384 98.5638 410.404 98.5638C412.424 98.5638 413.804 100.164 413.804 102.184ZM427.561 104.144H425.801C425.201 105.344 424.141 105.824 422.901 105.824C421.101 105.824 419.641 104.464 419.581 102.644H427.721C427.961 99.5438 426.061 96.9838 422.921 96.9838C419.801 96.9838 417.841 99.2638 417.841 102.184C417.841 105.164 419.961 107.384 422.881 107.384C425.421 107.384 427.061 105.904 427.561 104.144ZM422.861 98.5038C424.341 98.5038 425.581 99.4238 425.901 101.284H419.661C420.001 99.3038 421.421 98.5038 422.861 98.5038ZM430.203 107.184H431.923V92.1838H430.203V107.184Z" fill="white"/>
<path d="M4.03024 328.836L79.4402 298.522C84.4285 296.517 89.9964 296.519 94.9826 298.533L170.102 328.841C175.477 331.009 175.462 338.65 170.078 340.799L94.9098 370.798C89.9665 372.771 84.4584 372.775 79.513 370.806L4.05377 340.801C-1.3409 338.657 -1.35374 331.002 4.03024 328.836Z" fill="#00ED64"/>
<path d="M130.303 381.785L205.713 351.471C210.701 349.466 216.269 349.469 221.255 351.482L296.374 381.79C301.75 383.958 301.735 391.6 296.351 393.748L221.182 423.747C216.239 425.72 210.731 425.724 205.785 423.756L130.326 393.751C124.932 391.606 124.919 383.951 130.303 381.785Z" fill="#00ED64"/>
<path d="M267.308 425.93L342.718 395.616C347.706 393.611 353.274 393.614 358.26 395.627L433.379 425.935C438.754 428.103 438.739 435.745 433.355 437.893L358.187 467.892C353.244 469.865 347.736 469.869 342.79 467.901L267.331 437.896C261.936 435.751 261.924 428.096 267.308 425.93Z" fill="#00ED64"/>
<path d="M401.931 384.043L477.341 353.729C482.329 351.724 487.897 351.726 492.883 353.739L568.002 384.047C573.377 386.215 573.362 393.857 567.979 396.006L492.81 426.004C487.867 427.977 482.359 427.981 477.413 426.013L401.954 396.008C396.559 393.863 396.547 386.209 401.931 384.043Z" fill="#00ED64"/>
<path d="M528.03 330.816L603.44 300.502C608.428 298.497 613.996 298.499 618.983 300.512L694.102 330.82C699.477 332.988 699.462 340.63 694.078 342.779L618.91 372.777C613.966 374.75 608.458 374.754 603.513 372.786L528.054 342.781C522.659 340.636 522.646 332.982 528.03 330.816Z" fill="#00ED64"/>
<path d="M45.4563 339H46.7303V330.292H49.8243V329.06H42.3623V330.292H45.4563V339ZM49.9438 339H51.1478V335.528C51.1478 333.89 52.1138 333.12 52.9958 333.12C53.2338 333.12 53.4298 333.148 53.6538 333.232V331.986C53.4578 331.944 53.2898 331.93 53.1078 331.93C52.2958 331.93 51.4278 332.462 51.1478 333.358V332H49.9438V339ZM54.2923 335.5C54.2923 337.502 55.7623 339.14 57.7223 339.14C58.7723 339.14 59.7243 338.594 60.1863 337.922V339H61.3903V332H60.1863V333.078C59.7243 332.406 58.7723 331.86 57.7223 331.86C55.7623 331.86 54.2923 333.498 54.2923 335.5ZM60.2843 335.5C60.2843 336.914 59.3183 338.034 57.9043 338.034C56.4903 338.034 55.5103 336.914 55.5103 335.5C55.5103 334.086 56.4903 332.966 57.9043 332.966C59.3183 332.966 60.2843 334.086 60.2843 335.5ZM63.6567 339H64.8607V335.528C64.8607 333.89 65.7567 332.966 66.8907 332.966C67.8707 332.966 68.5427 333.694 68.5427 334.87V339H69.7327V334.688C69.7327 332.952 68.6547 331.86 67.0867 331.86C66.1767 331.86 65.3367 332.252 64.8607 333.078V332H63.6567V339ZM76.7308 337.11C76.7308 336.06 76.1008 335.332 74.9388 335.038L73.8188 334.744C73.0768 334.548 72.7548 334.254 72.7548 333.736C72.7548 333.204 73.2868 332.868 73.9588 332.868C74.6168 332.868 75.1208 333.246 75.3028 333.862H76.5068C76.3808 332.742 75.4568 331.86 73.9588 331.86C72.5448 331.86 71.5368 332.588 71.5368 333.75C71.5368 334.744 72.1388 335.5 73.3428 335.808L74.3508 336.074C75.1768 336.298 75.5128 336.634 75.5128 337.194C75.5128 337.81 74.9248 338.118 74.1688 338.118C73.4408 338.118 72.7128 337.824 72.5448 336.97H71.3128C71.4108 338.384 72.6568 339.14 74.1548 339.14C75.6108 339.14 76.7308 338.496 76.7308 337.11ZM77.89 335.5C77.89 337.502 79.36 339.14 81.32 339.14C82.37 339.14 83.322 338.594 83.784 337.922V339H84.988V332H83.784V333.078C83.322 332.406 82.37 331.86 81.32 331.86C79.36 331.86 77.89 333.498 77.89 335.5ZM83.882 335.5C83.882 336.914 82.916 338.034 81.502 338.034C80.088 338.034 79.108 336.914 79.108 335.5C79.108 334.086 80.088 332.966 81.502 332.966C82.916 332.966 83.882 334.086 83.882 335.5ZM93.8904 336.536H92.6024C92.2944 337.418 91.4544 338.034 90.3624 338.034C88.9064 338.034 87.9264 336.914 87.9264 335.5C87.9264 334.086 88.9064 332.966 90.3624 332.966C91.4544 332.966 92.2944 333.582 92.6024 334.464H93.8904C93.4984 332.952 92.1264 331.86 90.3624 331.86C88.2344 331.86 86.7084 333.498 86.7084 335.5C86.7084 337.502 88.2344 339.14 90.3624 339.14C92.1264 339.14 93.4984 338.048 93.8904 336.536ZM99.2105 338.902V337.824C98.9865 337.908 98.6505 337.964 98.3565 337.964C97.6005 337.964 97.1945 337.67 97.1945 336.774V333.106H99.2105V332H97.1945V330.054H95.9905V332H94.5065V333.106H95.9905V336.928C95.9905 338.384 96.9145 339.07 98.1325 339.07C98.5665 339.07 98.9165 339 99.2105 338.902ZM102.205 329.27C102.205 328.808 101.841 328.416 101.365 328.416C100.889 328.416 100.497 328.808 100.497 329.27C100.497 329.746 100.889 330.124 101.365 330.124C101.841 330.124 102.205 329.746 102.205 329.27ZM100.749 339H101.953V332H100.749V339ZM110.997 335.5C110.997 333.484 109.443 331.86 107.343 331.86C105.229 331.86 103.675 333.484 103.675 335.5C103.675 337.516 105.229 339.14 107.343 339.14C109.443 339.14 110.997 337.516 110.997 335.5ZM104.907 335.5C104.907 334.1 105.887 332.98 107.343 332.98C108.799 332.98 109.765 334.1 109.765 335.5C109.765 336.9 108.799 338.02 107.343 338.02C105.887 338.02 104.907 336.9 104.907 335.5ZM112.725 339H113.929V335.528C113.929 333.89 114.825 332.966 115.959 332.966C116.939 332.966 117.611 333.694 117.611 334.87V339H118.801V334.688C118.801 332.952 117.723 331.86 116.155 331.86C115.245 331.86 114.405 332.252 113.929 333.078V332H112.725V339ZM120.423 335.5C120.423 337.502 121.893 339.14 123.853 339.14C124.903 339.14 125.855 338.594 126.317 337.922V339H127.521V332H126.317V333.078C125.855 332.406 124.903 331.86 123.853 331.86C121.893 331.86 120.423 333.498 120.423 335.5ZM126.415 335.5C126.415 336.914 125.449 338.034 124.035 338.034C122.621 338.034 121.641 336.914 121.641 335.5C121.641 334.086 122.621 332.966 124.035 332.966C125.449 332.966 126.415 334.086 126.415 335.5ZM129.788 339H130.992V328.5H129.788V339Z" fill="#023430"/>
<path d="M190.273 391.34C190.329 392.852 191.645 394.168 193.731 394.168C195.579 394.168 196.895 393.104 196.895 391.424C196.895 389.94 196.027 389.072 194.515 388.526L193.241 388.064C192.275 387.714 191.813 387.294 191.813 386.454C191.813 385.628 192.555 385.11 193.507 385.11C194.319 385.11 195.131 385.544 195.383 386.58H196.671C196.545 385.278 195.551 383.892 193.535 383.892C191.799 383.892 190.511 384.872 190.511 386.496C190.525 387.896 191.267 388.75 192.807 389.296L194.179 389.8C195.103 390.136 195.593 390.682 195.593 391.466C195.593 392.39 194.753 392.95 193.717 392.95C192.779 392.95 191.687 392.446 191.575 391.34H190.273ZM204.924 391.872H203.692C203.272 392.712 202.53 393.048 201.662 393.048C200.402 393.048 199.38 392.096 199.338 390.822H205.036C205.204 388.652 203.874 386.86 201.676 386.86C199.492 386.86 198.12 388.456 198.12 390.5C198.12 392.586 199.604 394.14 201.648 394.14C203.426 394.14 204.574 393.104 204.924 391.872ZM201.634 387.924C202.67 387.924 203.538 388.568 203.762 389.87H199.394C199.632 388.484 200.626 387.924 201.634 387.924ZM206.227 390.5C206.227 392.502 207.697 394.14 209.657 394.14C210.707 394.14 211.659 393.594 212.121 392.922V394H213.325V387H212.121V388.078C211.659 387.406 210.707 386.86 209.657 386.86C207.697 386.86 206.227 388.498 206.227 390.5ZM212.219 390.5C212.219 391.914 211.253 393.034 209.839 393.034C208.425 393.034 207.445 391.914 207.445 390.5C207.445 389.086 208.425 387.966 209.839 387.966C211.253 387.966 212.219 389.086 212.219 390.5ZM215.592 394H216.796V390.528C216.796 388.89 217.762 388.12 218.644 388.12C218.882 388.12 219.078 388.148 219.302 388.232V386.986C219.106 386.944 218.938 386.93 218.756 386.93C217.944 386.93 217.076 387.462 216.796 388.358V387H215.592V394ZM227.109 391.536H225.821C225.513 392.418 224.673 393.034 223.581 393.034C222.125 393.034 221.145 391.914 221.145 390.5C221.145 389.086 222.125 387.966 223.581 387.966C224.673 387.966 225.513 388.582 225.821 389.464H227.109C226.717 387.952 225.345 386.86 223.581 386.86C221.453 386.86 219.927 388.498 219.927 390.5C219.927 392.502 221.453 394.14 223.581 394.14C225.345 394.14 226.717 393.048 227.109 391.536ZM228.703 394H229.907V390.528C229.907 388.89 230.803 387.966 231.937 387.966C232.917 387.966 233.589 388.694 233.589 389.87V394H234.779V389.688C234.779 387.952 233.701 386.86 232.133 386.86C231.223 386.86 230.383 387.252 229.907 388.078V383.5H228.703V394Z" fill="#023430"/>
<path d="M319.134 438H321.99C325.042 438 327.282 435.872 327.282 433.03C327.282 430.188 325.042 428.06 321.99 428.06H319.134V438ZM320.436 436.782V429.278H321.99C324.384 429.278 325.966 430.874 325.966 433.03C325.966 435.186 324.384 436.782 321.99 436.782H320.436ZM328.496 434.5C328.496 436.502 329.966 438.14 331.926 438.14C332.976 438.14 333.928 437.594 334.39 436.922V438H335.594V431H334.39V432.078C333.928 431.406 332.976 430.86 331.926 430.86C329.966 430.86 328.496 432.498 328.496 434.5ZM334.488 434.5C334.488 435.914 333.522 437.034 332.108 437.034C330.694 437.034 329.714 435.914 329.714 434.5C329.714 433.086 330.694 431.966 332.108 431.966C333.522 431.966 334.488 433.086 334.488 434.5ZM341.654 437.902V436.824C341.43 436.908 341.094 436.964 340.8 436.964C340.044 436.964 339.638 436.67 339.638 435.774V432.106H341.654V431H339.638V429.054H338.434V431H336.95V432.106H338.434V435.928C338.434 437.384 339.358 438.07 340.576 438.07C341.01 438.07 341.36 438 341.654 437.902ZM342.551 434.5C342.551 436.502 344.021 438.14 345.981 438.14C347.031 438.14 347.983 437.594 348.445 436.922V438H349.649V431H348.445V432.078C347.983 431.406 347.031 430.86 345.981 430.86C344.021 430.86 342.551 432.498 342.551 434.5ZM348.543 434.5C348.543 435.914 347.577 437.034 346.163 437.034C344.749 437.034 343.769 435.914 343.769 434.5C343.769 433.086 344.749 431.966 346.163 431.966C347.577 431.966 348.543 433.086 348.543 434.5ZM355.292 438H356.496V427.5H355.292V438ZM358.232 434.5C358.232 436.502 359.702 438.14 361.662 438.14C362.712 438.14 363.664 437.594 364.126 436.922V438H365.33V431H364.126V432.078C363.664 431.406 362.712 430.86 361.662 430.86C359.702 430.86 358.232 432.498 358.232 434.5ZM364.224 434.5C364.224 435.914 363.258 437.034 361.844 437.034C360.43 437.034 359.45 435.914 359.45 434.5C359.45 433.086 360.43 431.966 361.844 431.966C363.258 431.966 364.224 433.086 364.224 434.5ZM367.597 438H368.801V434.5L372.595 438H374.219L370.005 434.094L373.449 431H371.853L368.801 433.73V427.5H367.597V438ZM380.95 435.872H379.718C379.298 436.712 378.556 437.048 377.688 437.048C376.428 437.048 375.406 436.096 375.364 434.822H381.062C381.23 432.652 379.9 430.86 377.702 430.86C375.518 430.86 374.146 432.456 374.146 434.5C374.146 436.586 375.63 438.14 377.674 438.14C379.452 438.14 380.6 437.104 380.95 435.872ZM377.66 431.924C378.696 431.924 379.564 432.568 379.788 433.87H375.42C375.658 432.484 376.652 431.924 377.66 431.924Z" fill="#023430"/>
<path d="M443.18 391.088L446.764 386.272V394H448.052V384.06H446.876L443.18 389.016L439.484 384.06H438.294V394H439.596V386.272L443.18 391.088ZM457.152 390.5C457.152 388.484 455.598 386.86 453.498 386.86C451.384 386.86 449.83 388.484 449.83 390.5C449.83 392.516 451.384 394.14 453.498 394.14C455.598 394.14 457.152 392.516 457.152 390.5ZM451.062 390.5C451.062 389.1 452.042 387.98 453.498 387.98C454.954 387.98 455.92 389.1 455.92 390.5C455.92 391.9 454.954 393.02 453.498 393.02C452.042 393.02 451.062 391.9 451.062 390.5ZM460.084 392.922C460.546 393.594 461.498 394.14 462.548 394.14C464.494 394.14 465.978 392.502 465.978 390.5C465.978 388.498 464.494 386.86 462.548 386.86C461.498 386.86 460.546 387.406 460.084 388.078V383.5H458.88V394H460.084V392.922ZM464.746 390.5C464.746 391.914 463.78 393.034 462.366 393.034C460.952 393.034 459.986 391.914 459.986 390.5C459.986 389.086 460.952 387.966 462.366 387.966C463.78 387.966 464.746 389.086 464.746 390.5ZM469.154 384.27C469.154 383.808 468.79 383.416 468.314 383.416C467.838 383.416 467.446 383.808 467.446 384.27C467.446 384.746 467.838 385.124 468.314 385.124C468.79 385.124 469.154 384.746 469.154 384.27ZM467.698 394H468.902V387H467.698V394ZM471.184 394H472.388V383.5H471.184V394ZM480.929 391.872H479.697C479.277 392.712 478.535 393.048 477.667 393.048C476.407 393.048 475.385 392.096 475.343 390.822H481.041C481.209 388.652 479.879 386.86 477.681 386.86C475.497 386.86 474.125 388.456 474.125 390.5C474.125 392.586 475.609 394.14 477.653 394.14C479.431 394.14 480.579 393.104 480.929 391.872ZM477.639 387.924C478.675 387.924 479.543 388.568 479.767 389.87H475.399C475.637 388.484 476.631 387.924 477.639 387.924ZM488.451 396.24C487.261 393.93 486.757 391.816 486.757 389.52C486.757 387.224 487.261 385.11 488.451 382.8H487.471C486.267 384.984 485.679 387.21 485.679 389.52C485.679 391.83 486.267 394.056 487.471 396.24H488.451ZM490.193 394H491.495V389.478H492.461L496.283 394H497.921L494.099 389.464C495.625 389.24 496.549 388.26 496.549 386.804C496.549 385.166 495.415 384.06 493.581 384.06H490.193V394ZM491.495 388.316V385.264H493.427C494.561 385.264 495.247 385.796 495.247 386.804C495.247 387.798 494.561 388.316 493.427 388.316H491.495ZM504.95 391.872H503.718C503.298 392.712 502.556 393.048 501.688 393.048C500.428 393.048 499.406 392.096 499.364 390.822H505.062C505.23 388.652 503.9 386.86 501.702 386.86C499.518 386.86 498.146 388.456 498.146 390.5C498.146 392.586 499.63 394.14 501.674 394.14C503.452 394.14 504.6 393.104 504.95 391.872ZM501.66 387.924C502.696 387.924 503.564 388.568 503.788 389.87H499.42C499.658 388.484 500.652 387.924 501.66 387.924ZM506.254 390.5C506.254 392.502 507.724 394.14 509.684 394.14C510.734 394.14 511.686 393.594 512.148 392.922V394H513.352V387H512.148V388.078C511.686 387.406 510.734 386.86 509.684 386.86C507.724 386.86 506.254 388.498 506.254 390.5ZM512.246 390.5C512.246 391.914 511.28 393.034 509.866 393.034C508.452 393.034 507.472 391.914 507.472 390.5C507.472 389.086 508.452 387.966 509.866 387.966C511.28 387.966 512.246 389.086 512.246 390.5ZM515.618 394H516.822V383.5H515.618V394ZM519.104 394H520.308V390.528C520.308 388.946 521.106 387.966 522.24 387.966C523.15 387.966 523.612 388.75 523.612 389.884V394H524.816V390.528C524.816 388.946 525.6 387.966 526.734 387.966C527.644 387.966 528.12 388.75 528.12 389.884V394H529.324V389.702C529.324 387.994 528.4 386.86 526.874 386.86C525.838 386.86 524.956 387.434 524.578 388.358C524.228 387.434 523.472 386.86 522.422 386.86C521.484 386.86 520.714 387.336 520.308 388.078V387H519.104V394ZM530.449 396.24H531.429C532.633 394.056 533.221 391.83 533.221 389.52C533.221 387.21 532.633 384.984 531.429 382.8H530.449C531.639 385.11 532.143 387.224 532.143 389.52C532.143 391.816 531.639 393.93 530.449 396.24Z" fill="#023430"/>
<path d="M577.296 342H578.64L579.914 339.102H584.548L585.822 342H587.18L582.77 332.06H581.692L577.296 342ZM580.418 337.926L582.224 333.824L584.03 337.926H580.418ZM588.395 342H589.599V338.528C589.599 336.89 590.495 335.966 591.629 335.966C592.609 335.966 593.281 336.694 593.281 337.87V342H594.471V337.688C594.471 335.952 593.393 334.86 591.825 334.86C590.915 334.86 590.075 335.252 589.599 336.078V335H588.395V342ZM596.093 338.5C596.093 340.502 597.563 342.14 599.523 342.14C600.573 342.14 601.525 341.594 601.987 340.922V342H603.191V335H601.987V336.078C601.525 335.406 600.573 334.86 599.523 334.86C597.563 334.86 596.093 336.498 596.093 338.5ZM602.085 338.5C602.085 339.914 601.119 341.034 599.705 341.034C598.291 341.034 597.311 339.914 597.311 338.5C597.311 337.086 598.291 335.966 599.705 335.966C601.119 335.966 602.085 337.086 602.085 338.5ZM605.458 342H606.662V331.5H605.458V342ZM610.806 344.926L615.398 335H614.054L611.66 340.306L609.252 335H607.922L610.988 341.636L609.462 344.926H610.806ZM620.394 341.902V340.824C620.17 340.908 619.834 340.964 619.54 340.964C618.784 340.964 618.378 340.67 618.378 339.774V336.106H620.394V335H618.378V333.054H617.174V335H615.69V336.106H617.174V339.928C617.174 341.384 618.098 342.07 619.316 342.07C619.75 342.07 620.1 342 620.394 341.902ZM623.388 332.27C623.388 331.808 623.024 331.416 622.548 331.416C622.072 331.416 621.68 331.808 621.68 332.27C621.68 332.746 622.072 333.124 622.548 333.124C623.024 333.124 623.388 332.746 623.388 332.27ZM621.932 342H623.136V335H621.932V342ZM632.054 339.536H630.766C630.458 340.418 629.618 341.034 628.526 341.034C627.07 341.034 626.09 339.914 626.09 338.5C626.09 337.086 627.07 335.966 628.526 335.966C629.618 335.966 630.458 336.582 630.766 337.464H632.054C631.662 335.952 630.29 334.86 628.526 334.86C626.398 334.86 624.872 336.498 624.872 338.5C624.872 340.502 626.398 342.14 628.526 342.14C630.29 342.14 631.662 341.048 632.054 339.536ZM633.103 338.5C633.103 340.502 634.573 342.14 636.533 342.14C637.583 342.14 638.535 341.594 638.997 340.922V342H640.201V335H638.997V336.078C638.535 335.406 637.583 334.86 636.533 334.86C634.573 334.86 633.103 336.498 633.103 338.5ZM639.095 338.5C639.095 339.914 638.129 341.034 636.715 341.034C635.301 341.034 634.321 339.914 634.321 338.5C634.321 337.086 635.301 335.966 636.715 335.966C638.129 335.966 639.095 337.086 639.095 338.5ZM642.467 342H643.671V331.5H642.467V342Z" fill="#023430"/>
<defs>
<filter id="filter0_f_4911_64059" x="84.9883" y="483.94" width="530.951" height="257.875" filterUnits="userSpaceOnUse" color-interpolation-filters="sRGB">
<feFlood flood-opacity="0" result="BackgroundImageFix"/>
<feBlend mode="normal" in="SourceGraphic" in2="BackgroundImageFix" result="shape"/>
<feGaussianBlur stdDeviation="12.5" result="effect1_foregroundBlur_4911_64059"/>
</filter>
<filter id="filter1_f_4911_64059" x="172.473" y="316.912" width="354.25" height="181.502" filterUnits="userSpaceOnUse" color-interpolation-filters="sRGB">
<feFlood flood-opacity="0" result="BackgroundImageFix"/>
<feBlend mode="normal" in="SourceGraphic" in2="BackgroundImageFix" result="shape"/>
<feGaussianBlur stdDeviation="12.5" result="effect1_foregroundBlur_4911_64059"/>
</filter>
<filter id="filter2_f_4911_64059" x="153.637" y="437" width="166.417" height="100.888" filterUnits="userSpaceOnUse" color-interpolation-filters="sRGB">
<feFlood flood-opacity="0" result="BackgroundImageFix"/>
<feBlend mode="normal" in="SourceGraphic" in2="BackgroundImageFix" result="shape"/>
<feGaussianBlur stdDeviation="12.5" result="effect1_foregroundBlur_4911_64059"/>
</filter>
<filter id="filter3_f_4911_64059" x="385.346" y="439.914" width="163.594" height="99.6536" filterUnits="userSpaceOnUse" color-interpolation-filters="sRGB">
<feFlood flood-opacity="0" result="BackgroundImageFix"/>
<feBlend mode="normal" in="SourceGraphic" in2="BackgroundImageFix" result="shape"/>
<feGaussianBlur stdDeviation="12.5" result="effect1_foregroundBlur_4911_64059"/>
</filter>
<filter id="filter4_f_4911_64059" x="249.196" y="400.226" width="202.287" height="114.133" filterUnits="userSpaceOnUse" color-interpolation-filters="sRGB">
<feFlood flood-opacity="0" result="BackgroundImageFix"/>
<feBlend mode="normal" in="SourceGraphic" in2="BackgroundImageFix" result="shape"/>
<feGaussianBlur stdDeviation="12.5" result="effect1_foregroundBlur_4911_64059"/>
</filter>
</defs>
</svg>
