<?xml version="1.0" encoding="utf-8"?>
<svg xmlns="http://www.w3.org/2000/svg" width="96" height="32" viewBox="0 0 96 32" fill="none">
<path d="M55.7634 28C58.6633 28 60.949 27.1679 62.6205 25.5038C64.292 23.8396 65.1278 21.5639 65.1278 18.6767C65.1278 16.391 64.4934 14.5063 63.2247 13.0226C61.956 11.5388 60.3751 10.797 58.4821 10.797C57.2335 10.797 55.8842 11.1378 54.4342 11.8195C54.4342 9.01253 54.4947 6.40602 54.6155 4L47.2448 5.38346V6.04511L47.9698 6.16541C48.4934 6.20551 48.8559 6.38596 49.0573 6.70677C49.2587 7.02757 49.3996 7.54887 49.4802 8.27068C49.601 9.67419 49.6514 12.8722 49.6312 17.8647C49.6111 22.8571 49.5607 25.9549 49.4802 27.1579C52.1385 27.7193 54.2329 28 55.7634 28ZM12.506 27.5789V26.6165L11.1768 26.4962C10.4116 26.3759 9.86784 26.0852 9.54563 25.6241C9.22341 25.1629 9.02203 24.391 8.94147 23.3083C8.78037 21.3835 8.69981 19.1779 8.69981 16.6917L11.2977 16.7519C12.7074 16.792 13.6539 17.8747 14.1372 20H15.1038V12.1805H14.1372C13.6539 14.2657 12.7074 15.3283 11.2977 15.3684L8.69981 15.4286C8.69981 11.0977 8.78037 7.98998 8.94147 6.10526H12.7476C15.4462 6.10526 17.3191 7.84962 18.3663 11.3383L19.5142 10.9774L19.3933 4.4812H0V5.44361L1.02706 5.56391C1.79232 5.68421 2.33606 5.97494 2.65828 6.43609C2.98049 6.89724 3.18188 7.66917 3.26243 8.75188C3.6652 13.9649 3.6652 18.817 3.26243 23.3083C3.18188 24.391 2.98049 25.1629 2.65828 25.6241C2.33606 26.0852 1.79232 26.3759 1.02706 26.4962L0 26.6165V27.5789H12.506ZM25.3744 28C28.0327 28 30.1271 27.1679 31.6576 25.5038C33.1882 23.8396 33.9534 21.7644 33.9534 19.2782C33.9534 16.7519 33.2385 14.6767 31.8087 13.0526C30.3789 11.4286 28.3348 10.6165 25.6765 10.6165C23.0183 10.6165 20.9239 11.4586 19.3933 13.1429C17.8628 14.787 17.0975 16.8521 17.0975 19.3383C17.0975 21.8647 17.8125 23.9399 19.2423 25.5639C20.6721 27.188 22.7162 28 25.3744 28ZM88.9314 28C91.1466 28 92.8785 27.5088 94.1271 26.5263C95.3757 25.5439 96 24.1704 96 22.406C96 21.2431 95.6879 20.3008 95.0636 19.5789C94.4393 18.8571 93.4021 18.2155 91.9522 17.6541C90.3411 17.0526 89.2436 16.5213 88.6595 16.0602C88.0755 15.599 87.7835 15.0075 87.7835 14.2857C87.7835 13.5639 87.995 12.9724 88.4179 12.5113C88.8408 12.0501 89.3946 11.8195 90.0793 11.8195C92.0126 11.8195 93.4223 13.203 94.3084 15.9699L95.1542 15.7293L94.9729 11.5188C93.6438 10.9173 91.9924 10.6165 90.0189 10.6165C88.005 10.6165 86.3839 11.1278 85.1554 12.1504C83.927 13.1729 83.3128 14.4261 83.3128 15.9098C83.3128 17.2331 83.6853 18.2456 84.4305 18.9474C85.1756 19.6491 86.3134 20.2807 87.8439 20.8421C89.2133 21.3233 90.1498 21.7945 90.6532 22.2556C91.1567 22.7168 91.4084 23.2882 91.4084 23.9699C91.4084 24.6516 91.1567 25.2531 90.6532 25.7744C90.1498 26.2957 89.4751 26.5564 88.6293 26.5564C86.4947 26.5564 84.8836 25.0125 83.7961 21.9248L82.9503 22.1654L83.1315 26.9774C84.8634 27.6591 86.7967 28 88.9314 28ZM44.3449 27.5789V26.6767L43.0157 26.5564C42.0894 26.4361 41.5658 25.7343 41.4449 24.4511C41.2033 21.6441 41.1831 18.6967 41.3845 15.609C41.6665 15.1278 42.3008 14.8371 43.2876 14.7368C44.2744 14.6366 45.3518 14.9273 46.5198 15.609L48.3323 11.0977C47.6476 10.7769 46.9025 10.6165 46.0969 10.6165C45.2914 10.6165 44.4355 10.9474 43.5293 11.609C42.623 12.2707 41.9081 13.2231 41.3845 14.4662L41.4449 10.6165L34.0743 12.0602V12.7218L34.7992 12.782C35.7256 12.9023 36.2492 13.604 36.37 14.8872C36.652 17.8947 36.652 21.0827 36.37 24.4511C36.2492 25.7343 35.7256 26.4361 34.7992 26.5564L34.0743 26.6767V27.5789H44.3449ZM74.9755 28C76.4657 28 77.7948 27.6992 78.9629 27.0977C80.1309 26.4962 81.0371 25.7744 81.6816 24.9323L81.1982 24.3308C80.151 25.1328 78.9226 25.5338 77.5129 25.5338C75.5796 25.5338 74.0894 24.8922 73.0422 23.609C71.995 22.3258 71.5117 20.6416 71.5922 18.5564H81.9232C81.9232 16.2306 81.3291 14.3358 80.141 12.8722C78.9528 11.4085 77.2511 10.6767 75.0359 10.6767C72.3373 10.6767 70.2429 11.5288 68.7527 13.2331C67.2624 14.9373 66.5173 17.0125 66.5173 19.4586C66.5173 21.9449 67.3128 23.99 68.9037 25.594C70.4947 27.198 72.5186 28 74.9755 28ZM25.6161 26.9173C24.5286 26.9173 23.703 26.1955 23.1391 24.7519C22.5752 23.3083 22.2933 21.4837 22.2933 19.2782C22.2933 14.2256 23.3405 11.6992 25.4349 11.6992C26.5223 11.6992 27.348 12.411 27.9119 13.8346C28.4758 15.2581 28.7577 17.0727 28.7577 19.2782C28.7577 24.3709 27.7105 26.9173 25.6161 26.9173ZM71.6526 17.3534C71.6929 15.9098 71.9748 14.6065 72.4984 13.4436C73.022 12.2807 73.7269 11.6992 74.613 11.6992C76.0629 11.6992 76.7879 13.5439 76.7879 17.2331L71.6526 17.3534ZM55.8842 26.797C55.4412 26.797 55.0183 26.7569 54.6155 26.6767C54.4947 25.1128 54.4342 20.5213 54.4342 12.9023C54.8773 12.7419 55.4613 12.6617 56.1863 12.6617C57.3543 12.6617 58.2807 13.2531 58.9654 14.4361C59.6501 15.619 59.9925 17.1128 59.9925 18.9173C59.9925 21.1629 59.6098 23.0376 58.8446 24.5414C58.0793 26.0451 57.0925 26.797 55.8842 26.797Z" fill="black"/>
</svg>