<?xml version="1.0" encoding="utf-8"?>
<svg xmlns="http://www.w3.org/2000/svg" width="740" height="604" viewBox="0 0 740 604" fill="none">
<g clip-path="url(#clip0_107_18630)">
<path d="M222.497 73.7483C222.507 93.3042 230.281 112.056 244.109 125.884C257.937 139.712 276.689 147.486 296.245 147.497C315.804 147.497 334.562 155.266 348.393 169.097C362.223 182.927 369.993 201.686 369.993 221.245C369.993 240.804 362.223 259.562 348.393 273.393C334.562 287.223 315.804 294.993 296.245 294.993H148.748C129.191 295 110.437 302.773 96.6084 316.602C82.7795 330.43 75.0073 349.184 75 368.741V516.252C75.0073 535.809 82.7795 554.563 96.6084 568.392C110.437 582.221 129.191 589.993 148.748 590H517.503C556.627 589.985 594.143 574.433 621.803 546.764C649.462 519.094 665 481.572 665 442.448V73.7483C664.996 54.1901 657.225 35.4341 643.396 21.6044C629.566 7.77471 610.81 0.00365061 591.252 0H296.245C255.543 0.57831 222.497 33.6246 222.497 73.7483Z" fill="#014E3D"/>
<path d="M574.57 105.56C582.059 105.56 588.13 99.489 588.13 92C588.13 84.511 582.059 78.44 574.57 78.44C567.081 78.44 561.01 84.511 561.01 92C561.01 99.489 567.081 105.56 574.57 105.56Z" fill="white" stroke="#061621" stroke-miterlimit="10"/>
<path d="M566.33 102.77C566.33 102.77 583.48 97.05 585.87 84.43C588.79 88.43 589.87 97.32 583.48 102.1C577.09 106.88 571 105.29 566.33 102.77Z" fill="#023430" stroke="#061621" stroke-miterlimit="10"/>
<path d="M574.57 126.42V113.8" stroke="#061621" stroke-miterlimit="10"/>
<path d="M574.57 195.53V133.2" stroke="#061621" stroke-miterlimit="10"/>
<path d="M130.44 357.39L143.6 368.82L156.62 380.25L140.14 385.96L123.66 391.55L127.12 374.4L130.44 357.39Z" fill="white" stroke="#001E2B" stroke-miterlimit="10"/>
<path d="M136.82 375.86L123.66 391.55L156.62 380.25L136.82 375.86Z" fill="#001E2B"/>
<path d="M136.82 375.86L130.44 357.39" stroke="#001E2B" stroke-miterlimit="10"/>
<path d="M397.42 328.69L290.97 379.98V419.72L397.42 471.15L504 419.72V379.98L397.42 328.69Z" fill="#FFE212"/>
<path d="M504 379.98L397.42 431.41L290.97 379.98L397.42 328.69L504 379.98Z" fill="white"/>
<path d="M397.42 328.69L290.97 379.98V419.72L397.42 471.15L504 419.72V379.98L397.42 328.69Z" stroke="#231F20" stroke-miterlimit="10"/>
<path d="M290.97 379.98L397.42 431.41V471.15" stroke="#231F20" stroke-miterlimit="10"/>
<path d="M397.42 431.41C397.42 431.41 500 382 504 380V419.74L480.48 431.17L496.7 383.59" fill="#001E2B"/>
<path d="M397.42 431.41C397.42 431.41 500 382 504 380V419.74L480.48 431.17L496.7 383.59" stroke="#001E2B" stroke-miterlimit="10"/>
<path d="M263.2 396.86L156.62 448.29V488.03L263.2 539.32L369.65 488.03V448.29L263.2 396.86Z" fill="#00ED64"/>
<path d="M369.65 448.29L263.2 499.59L156.62 448.29L263.2 396.86L369.65 448.29Z" fill="white"/>
<path d="M263.2 396.86L156.62 448.29V488.03L263.2 539.32L369.65 488.03V448.29L263.2 396.86Z" stroke="#231F20" stroke-miterlimit="10"/>
<path d="M156.62 448.29L263.2 499.59V539.32" stroke="#231F20" stroke-miterlimit="10"/>
<path d="M263.2 499.59C263.2 499.59 365.79 450.15 369.78 448.16V487.89L346.26 499.32L362.47 451.75" fill="#001E2B"/>
<path d="M263.2 499.59C263.2 499.59 365.79 450.15 369.78 448.16V487.89L346.26 499.32L362.47 451.75" stroke="#001E2B" stroke-miterlimit="10"/>
<path d="M532.31 396.86L425.86 448.29V488.03L532.31 539.32L638.89 488.03V448.29L532.31 396.86Z" fill="#00ED64"/>
<path d="M638.89 448.29L532.31 499.59L425.86 448.29L532.31 396.86L638.89 448.29Z" fill="white"/>
<path d="M532.31 396.86L425.86 448.29V488.03L532.31 539.32L638.89 488.03V448.29L532.31 396.86Z" stroke="#231F20" stroke-miterlimit="10"/>
<path d="M425.86 448.29L532.31 499.59V539.32" stroke="#231F20" stroke-miterlimit="10"/>
<path d="M532.31 499.59C532.31 499.59 634.91 450.15 638.89 448.16V487.89L615.37 499.32L631.58 451.75" fill="#001E2B"/>
<path d="M532.31 499.59C532.31 499.59 634.91 450.15 638.89 448.16V487.89L615.37 499.32L631.58 451.75" stroke="#001E2B" stroke-miterlimit="10"/>
<path d="M397.42 461.45L290.97 512.88V552.61L397.42 603.91L504 552.61V512.88L397.42 461.45Z" fill="#FFE212"/>
<path d="M504 512.88L397.42 564.18L290.97 512.88L397.42 461.45L504 512.88Z" fill="white"/>
<path d="M397.42 461.45L290.97 512.88V552.61L397.42 603.91L504 552.61V512.88L397.42 461.45Z" stroke="#231F20" stroke-miterlimit="10"/>
<path d="M290.97 512.88L397.42 564.18V603.91" stroke="#231F20" stroke-miterlimit="10"/>
<path d="M397.42 564.18C397.42 564.18 500 514.74 504 512.75V552.48L480.48 563.91L496.7 516.33" fill="#001E2B"/>
<path d="M397.42 564.18C397.42 564.18 500 514.74 504 512.75V552.48L480.48 563.91L496.7 516.33" stroke="#001E2B" stroke-miterlimit="10"/>
<path d="M397.42 537.73C428.685 537.73 454.03 526.604 454.03 512.88C454.03 499.156 428.685 488.03 397.42 488.03C366.155 488.03 340.81 499.156 340.81 512.88C340.81 526.604 366.155 537.73 397.42 537.73Z" fill="#FFC010"/>
<path d="M263.2 473.14C294.465 473.14 319.81 462.014 319.81 448.29C319.81 434.566 294.465 423.44 263.2 423.44C231.935 423.44 206.59 434.566 206.59 448.29C206.59 462.014 231.935 473.14 263.2 473.14Z" fill="#00C954"/>
<path d="M532.31 473.14C563.575 473.14 588.92 462.014 588.92 448.29C588.92 434.566 563.575 423.44 532.31 423.44C501.045 423.44 475.7 434.566 475.7 448.29C475.7 462.014 501.045 473.14 532.31 473.14Z" fill="#00C954"/>
<path d="M235.56 62.5V306.49H464.8V142.1L385.06 62.5H235.56Z" fill="white" stroke="#231F20" stroke-miterlimit="10"/>
<path d="M464.8 142.1L385.06 62.5V142.1H464.8Z" fill="white" stroke="#231F20" stroke-linejoin="round"/>
<path d="M393.97 142.1L388.39 159.65L464.8 142.1H393.97Z" fill="#001E2B"/>
<path d="M265.33 84.83V328.82H494.44V164.43L414.83 84.83H265.33Z" fill="white" stroke="#231F20" stroke-miterlimit="10"/>
<path d="M494.44 164.43L414.83 84.83V164.43H494.44Z" fill="white" stroke="#231F20" stroke-linejoin="round"/>
<path d="M423.6 164.43L418.15 181.97L494.44 164.43H423.6Z" fill="#001E2B"/>
<path d="M295.09 107.15V351.15H524.2V186.76L444.6 107.15H295.09Z" fill="white" stroke="#231F20" stroke-miterlimit="10"/>
<path d="M524.2 186.76L444.6 107.15V186.76H524.2Z" fill="white" stroke="#231F20" stroke-linejoin="round"/>
<path d="M453.37 186.76L447.92 204.3L524.2 186.76H453.37Z" fill="#001E2B"/>
<path d="M397.42 317.66V510.62" stroke="#001E2B" stroke-miterlimit="10" stroke-dasharray="2 2"/>
<path d="M532.31 244.3C545.709 257.692 556.339 273.593 563.591 291.095C570.843 308.596 574.576 327.355 574.576 346.3C574.576 365.245 570.843 384.004 563.591 401.505C556.339 419.007 545.709 434.908 532.31 448.3" stroke="#061621" stroke-miterlimit="10" stroke-dasharray="2 2"/>
<path d="M263.2 182C245.697 199.478 231.811 220.235 222.337 243.083C212.863 265.932 207.987 290.425 207.987 315.16C207.987 339.895 212.863 364.388 222.337 387.237C231.811 410.085 245.697 430.842 263.2 448.32" stroke="#061621" stroke-miterlimit="10" stroke-dasharray="2 2"/>
<path d="M469.45 317.66H335.1C331.051 317.639 327.174 316.021 324.311 313.158C321.448 310.296 319.831 306.419 319.81 302.37V298H484.6V302.38C484.605 306.412 483.015 310.282 480.176 313.145C477.338 316.008 473.481 317.631 469.45 317.66V317.66Z" fill="#001E2B" stroke="#001E2B" stroke-miterlimit="10"/>
<path d="M471.45 311.14H333C329.51 311.14 326.163 309.757 323.691 307.294C321.219 304.832 319.823 301.489 319.81 298V298C319.815 294.505 321.207 291.155 323.68 288.686C326.153 286.217 329.505 284.83 333 284.83H471.31C474.799 284.838 478.144 286.228 480.61 288.697C483.077 291.165 484.465 294.51 484.47 298V298C484.501 299.724 484.186 301.436 483.544 303.037C482.902 304.637 481.946 306.092 480.732 307.317C479.519 308.542 478.072 309.511 476.478 310.168C474.884 310.824 473.174 311.155 471.45 311.14V311.14Z" fill="#FFE212" stroke="#231F20" stroke-miterlimit="10"/>
<path d="M593.44 243.37H385.06C381.015 243.346 377.142 241.729 374.281 238.868C371.421 236.008 369.803 232.135 369.78 228.09V223.7H608.59V228.09C608.604 230.09 608.223 232.073 607.469 233.924C606.714 235.776 605.601 237.461 604.193 238.881C602.785 240.301 601.11 241.429 599.264 242.199C597.419 242.969 595.44 243.367 593.44 243.37V243.37Z" fill="#001E2B" stroke="#001E2B" stroke-miterlimit="10"/>
<path d="M595.44 237H383.07C379.582 236.992 376.239 235.603 373.773 233.137C371.307 230.67 369.918 227.328 369.91 223.84C369.918 220.353 371.307 217.011 373.774 214.547C376.24 212.082 379.583 210.695 383.07 210.69H595.44C598.924 210.7 602.263 212.089 604.727 214.553C607.191 217.017 608.579 220.356 608.59 223.84V223.84C608.582 227.326 607.194 230.667 604.73 233.133C602.266 235.599 598.926 236.989 595.44 237Z" fill="#B1FF05" stroke="#231F20" stroke-miterlimit="10"/>
<path d="M396.36 182H203.4C199.355 181.976 195.482 180.359 192.621 177.499C189.761 174.638 188.143 170.765 188.12 166.72V162.3H411.64V166.69C411.644 168.699 411.252 170.689 410.485 172.547C409.719 174.404 408.594 176.092 407.175 177.514C405.756 178.936 404.07 180.064 402.214 180.834C400.358 181.604 398.369 182 396.36 182Z" fill="#001E2B" stroke="#001E2B" stroke-miterlimit="10"/>
<path d="M398.49 175.59H201.27C197.785 175.582 194.445 174.194 191.98 171.73C189.516 169.265 188.128 165.925 188.12 162.44V162.44C188.128 158.954 189.515 155.613 191.98 153.147C194.444 150.681 197.784 149.291 201.27 149.28H398.35C401.838 149.288 405.18 150.677 407.647 153.143C410.113 155.61 411.502 158.952 411.51 162.44V162.44C411.52 164.159 411.192 165.863 410.543 167.455C409.894 169.046 408.937 170.494 407.728 171.716C406.518 172.937 405.08 173.908 403.495 174.573C401.91 175.238 400.209 175.583 398.49 175.59V175.59Z" fill="#00ED64" stroke="#231F20" stroke-miterlimit="10"/>
<path d="M524.21 351.01H295.1V363.5H524.21V351.01Z" fill="#001E2B" stroke="#001E2B" stroke-miterlimit="10"/>
<path d="M295.1 328.82H265.33V341.31H295.1V328.82Z" fill="#001E2B" stroke="#001E2B" stroke-miterlimit="10"/>
<path d="M265.33 306.49H235.56V318.98H265.33V306.49Z" fill="#001E2B" stroke="#001E2B" stroke-miterlimit="10"/>
<path d="M204.73 162.44H395.03" stroke="#001E2B" stroke-miterlimit="10" stroke-dasharray="2 2"/>
<path d="M386.39 223.83H591.98" stroke="#001E2B" stroke-miterlimit="10" stroke-dasharray="2 2"/>
<path d="M336.96 299.05H467.46" stroke="#001E2B" stroke-miterlimit="10" stroke-dasharray="2 2"/>
</g>
<defs>
<clipPath id="clip0_107_18630">
<rect width="740" height="604" fill="white"/>
</clipPath>
</defs>
</svg>