<?xml version="1.0" encoding="utf-8"?>
<svg xmlns="http://www.w3.org/2000/svg" width="668" height="560" viewBox="0 0 668 560" fill="none">
<path d="M156.14 280C117.423 280 86 311.36 86 349.44V490.56C86 529.2 117.423 560 155.579 560H296.421C335.138 560 366 528.64 366 490V489.44C366 450.8 396.862 419.44 435.579 419.44H576.421C615.138 419.44 646 388.08 646 350V348.88C646 310.24 614.577 279.44 575.86 279.44H575.298C536.581 279.44 505.158 248.08 505.158 209.44L505.719 140.56C506.281 62.72 443.435 0 365.439 0C288.004 0 225.719 62.16 225.158 139.44V210C226.281 249.2 194.858 280 156.14 280Z" fill="#014E3D"/>
<path d="M466.854 96.2309L455.777 84.9082L461.07 67.9241L472.392 78.7545L466.854 96.2309Z" fill="#061621" stroke="#061621" stroke-miterlimit="10" stroke-linejoin="round"/>
<path d="M466.854 96.2309L482.485 93.2771L487.777 76.1699L472.393 78.7545L466.854 96.2309Z" fill="white" stroke="#061621" stroke-miterlimit="10" stroke-linejoin="round"/>
<path d="M476.454 65.5857L461.069 67.9241L472.392 78.7545L487.776 76.17L476.454 65.5857Z" fill="white" stroke="#061621" stroke-miterlimit="10" stroke-linejoin="round"/>
<path d="M154.039 79.2463H225.47" stroke="#061621" stroke-miterlimit="10" stroke-dasharray="2 2"/>
<path d="M110 61.3647H181.431" stroke="#061621" stroke-miterlimit="10" stroke-dasharray="2 2"/>
<path d="M533 119.293V353.09C533 357.57 529.389 361.192 524.922 361.192H172.077C167.611 361.192 164 357.57 164 353.09V119.293C164 114.814 167.611 111.192 172.077 111.192H524.922C529.389 111.192 533 114.814 533 119.293Z" fill="white" stroke="#001E2B" stroke-miterlimit="10"/>
<path d="M533.001 119.116V139H164.001V119.116C164.013 116.959 164.869 114.895 166.382 113.374C167.895 111.854 169.942 111 172.076 111H524.935C525.992 110.995 527.04 111.202 528.019 111.607C528.997 112.013 529.887 112.61 530.636 113.364C531.386 114.118 531.981 115.015 532.386 116.002C532.792 116.989 533.001 118.047 533.001 119.116Z" fill="#FFC010" stroke="#001E2B" stroke-miterlimit="10"/>
<path d="M533.202 138.965H163.587" stroke="#001E2B" stroke-miterlimit="10"/>
<path d="M488.744 111.694L483.097 129.639L471.803 118.094L474.062 111.192H488.116L488.744 111.694Z" fill="#001E2B" stroke="#001E2B" stroke-miterlimit="10" stroke-linejoin="round"/>
<path d="M503.804 111.192L499.035 126.627L483.223 129.639L488.745 111.694L492.384 111.192H503.804Z" fill="#001E2B" stroke="#001E2B" stroke-miterlimit="10" stroke-linejoin="round"/>
<path d="M492.383 111.192L488.744 111.694L488.117 111.192H492.383Z" fill="#001E2B" stroke="#001E2B" stroke-miterlimit="10" stroke-linejoin="round"/>
<path d="M266.977 163.6V213.44C266.977 215.247 265.455 216.769 263.648 216.769H163.683V212.394H149.13V163.6C149.13 161.793 150.652 160.271 152.459 160.271H263.648C265.551 160.271 266.977 161.698 266.977 163.6Z" fill="#001E2B"/>
<path d="M266.977 163.6V213.44C266.977 215.247 265.455 216.769 263.648 216.769H163.683V212.394H149.13V163.6C149.13 161.793 150.652 160.271 152.459 160.271H263.648C265.551 160.271 266.977 161.698 266.977 163.6Z" stroke="#001E2B" stroke-width="0.4351" stroke-miterlimit="10"/>
<path d="M262.698 159.225V209.065C262.698 210.872 261.176 212.394 259.369 212.394H148.085C146.277 212.394 144.756 210.872 144.756 209.065V159.225C144.756 157.418 146.277 155.896 148.085 155.896H259.369C261.176 155.896 262.698 157.418 262.698 159.225Z" fill="white"/>
<path d="M262.698 159.225V209.065C262.698 210.872 261.176 212.394 259.369 212.394H148.085C146.277 212.394 144.756 210.872 144.756 209.065V159.225C144.756 157.418 146.277 155.896 148.085 155.896H259.369C261.176 155.896 262.698 157.418 262.698 159.225Z" stroke="#001E2B" stroke-width="0.4351" stroke-miterlimit="10"/>
<path d="M196.592 183.194C196.402 182.908 196.307 182.623 196.212 182.338C196.117 181.957 196.117 181.672 196.117 181.291V177.487C196.117 176.155 195.831 175.204 195.166 174.633C194.5 173.967 193.453 173.682 192.122 173.682C191.456 173.682 190.885 173.777 190.315 173.872C189.839 173.967 189.268 174.158 188.793 174.443C188.698 174.538 188.603 174.538 188.508 174.728C188.412 174.823 188.412 175.014 188.412 175.109V175.68C188.412 175.965 188.507 176.06 188.698 176.06C188.793 176.06 188.793 176.06 188.888 176.06C189.078 176.06 189.173 175.965 189.268 175.87C189.649 175.68 190.124 175.584 190.505 175.489C190.885 175.394 191.361 175.299 191.741 175.299C192.597 175.299 193.263 175.489 193.644 175.87C194.024 176.25 194.214 176.821 194.214 177.772V178.628C193.739 178.533 193.263 178.438 192.883 178.343C192.502 178.248 192.027 178.248 191.646 178.248C190.41 178.248 189.459 178.533 188.793 179.199C188.127 179.769 187.747 180.625 187.747 181.577C187.747 182.433 188.032 183.194 188.603 183.859C189.268 184.43 190.124 184.715 190.98 184.715C192.312 184.715 193.549 184.145 194.405 183.098C194.5 183.384 194.69 183.574 194.785 183.764C194.88 183.954 195.07 184.145 195.166 184.335C195.261 184.43 195.356 184.525 195.546 184.525C195.641 184.525 195.736 184.525 195.831 184.43L196.592 183.954C196.687 183.859 196.782 183.764 196.782 183.574C196.687 183.384 196.687 183.289 196.592 183.194ZM194.214 180.34C194.214 180.721 194.214 181.006 194.119 181.386C194.024 181.672 193.929 181.957 193.739 182.147C193.453 182.528 193.073 182.718 192.597 182.908C192.217 183.003 191.837 183.098 191.361 183.098C190.885 183.098 190.505 183.003 190.124 182.718C189.839 182.433 189.649 181.957 189.649 181.482C189.649 181.006 189.839 180.435 190.22 180.15C190.6 179.865 191.171 179.674 191.932 179.674C192.312 179.674 192.693 179.674 192.978 179.769C193.358 179.769 193.739 179.865 194.024 179.96V180.34H194.214ZM211.05 173.967H210.003C209.813 173.967 209.718 173.967 209.528 174.063C209.433 174.158 209.338 174.348 209.338 174.538L207.34 182.338L205.533 174.538C205.533 174.348 205.438 174.253 205.343 174.063C205.248 173.967 205.057 173.967 204.867 173.967H203.916C203.726 173.967 203.631 173.967 203.44 174.063C203.345 174.158 203.25 174.348 203.25 174.538L201.443 182.242L199.446 174.538C199.446 174.348 199.351 174.253 199.255 174.063C199.16 173.967 198.97 173.967 198.78 173.967H197.543C197.448 173.967 197.353 174.063 197.353 174.253C197.353 174.443 197.448 174.538 197.448 174.728L200.207 183.764C200.207 183.954 200.302 184.05 200.492 184.24C200.587 184.335 200.777 184.335 200.968 184.335H202.014C202.204 184.335 202.394 184.335 202.489 184.24C202.584 184.145 202.68 183.954 202.68 183.764L204.487 176.25L206.294 183.764C206.294 183.954 206.389 184.05 206.484 184.24C206.579 184.335 206.769 184.335 206.96 184.335H208.006C208.196 184.335 208.291 184.335 208.482 184.24C208.577 184.145 208.672 183.954 208.767 183.764L211.525 174.728C211.525 174.633 211.62 174.538 211.62 174.443C211.62 174.348 211.62 174.348 211.62 174.253V174.158C211.335 174.063 211.145 173.967 211.05 173.967ZM219.325 179.769C218.944 179.294 218.373 178.913 217.517 178.628L215.9 178.153C215.425 178.057 214.949 177.772 214.569 177.487C214.379 177.296 214.188 176.916 214.188 176.631C214.188 176.25 214.379 175.775 214.759 175.584C215.235 175.299 215.805 175.204 216.281 175.299C217.042 175.299 217.803 175.394 218.564 175.775C218.659 175.87 218.849 175.87 219.039 175.87C219.23 175.87 219.325 175.775 219.325 175.489V174.919C219.325 174.823 219.325 174.633 219.23 174.538C219.134 174.443 219.039 174.348 218.849 174.253C218.659 174.158 218.564 174.063 218.373 174.063C218.183 173.967 217.993 173.967 217.708 173.872C217.517 173.872 217.232 173.777 216.947 173.777C216.661 173.777 216.376 173.682 216.186 173.682C215.71 173.682 215.235 173.777 214.759 173.872C214.284 173.967 213.903 174.253 213.523 174.443C213.142 174.728 212.857 175.014 212.667 175.394C212.476 175.775 212.381 176.25 212.381 176.726C212.381 177.296 212.571 177.962 212.952 178.438C213.428 179.009 214.093 179.484 214.854 179.579L216.566 180.15C217.042 180.245 217.422 180.435 217.708 180.721C217.898 180.911 217.993 181.196 217.993 181.577C217.993 182.052 217.803 182.433 217.422 182.718C216.852 183.003 216.281 183.098 215.71 183.098C215.235 183.098 214.759 183.003 214.284 183.003C213.808 182.908 213.428 182.813 212.952 182.623C212.857 182.528 212.762 182.528 212.667 182.528C212.571 182.528 212.571 182.528 212.476 182.528C212.286 182.528 212.191 182.623 212.191 182.908V183.479C212.191 183.574 212.191 183.669 212.286 183.764C212.381 183.954 212.476 184.05 212.667 184.05C213.047 184.24 213.523 184.43 213.998 184.525C214.569 184.62 215.235 184.715 215.805 184.715C216.376 184.715 216.947 184.62 217.517 184.43C217.993 184.335 218.469 184.05 218.849 183.764C219.23 183.479 219.515 183.098 219.705 182.718C219.895 182.338 219.99 181.862 219.99 181.386C219.895 180.816 219.705 180.245 219.325 179.769Z" fill="#252F3E"/>
<path fill-rule="evenodd" clip-rule="evenodd" d="M217.994 190.327C214.189 193.18 208.577 194.702 203.822 194.702C197.449 194.702 191.267 192.42 186.511 188.044C186.13 187.759 186.511 187.283 186.891 187.569C192.218 190.612 198.21 192.134 204.297 192.134C208.863 192.134 213.333 191.183 217.518 189.471C217.994 189.186 218.564 189.851 217.994 190.327Z" fill="#FF9900"/>
<path fill-rule="evenodd" clip-rule="evenodd" d="M219.515 188.52C219.039 187.854 216.281 188.235 215.045 188.33C214.664 188.425 214.569 188.044 214.949 187.759C217.137 186.237 220.751 186.618 221.132 187.188C221.512 187.664 221.037 191.278 218.944 193.085C218.659 193.371 218.374 193.18 218.469 192.895C219.039 191.754 220.086 189.091 219.515 188.52Z" fill="#FF9900"/>
<path d="M404.323 216.769H293.039C291.232 216.769 289.71 215.247 289.71 213.44V163.6C289.71 161.793 291.232 160.271 293.039 160.271H404.228C406.035 160.271 407.557 161.793 407.557 163.6V213.44C407.652 215.247 406.13 216.769 404.323 216.769Z" fill="#001E2B"/>
<path d="M404.323 216.769H293.039C291.232 216.769 289.71 215.247 289.71 213.44V163.6C289.71 161.793 291.232 160.271 293.039 160.271H404.228C406.035 160.271 407.557 161.793 407.557 163.6V213.44C407.652 215.247 406.13 216.769 404.323 216.769Z" stroke="#001E2B" stroke-width="0.4351" stroke-miterlimit="10"/>
<path d="M399.947 212.394H288.758C286.951 212.394 285.429 210.872 285.429 209.065V159.225C285.429 157.418 286.951 155.896 288.758 155.896H399.947C401.754 155.896 403.276 157.418 403.276 159.225V209.065C403.276 210.967 401.849 212.394 399.947 212.394Z" fill="white"/>
<path d="M399.947 212.394H288.758C286.951 212.394 285.429 210.872 285.429 209.065V159.225C285.429 157.418 286.951 155.896 288.758 155.896H399.947C401.754 155.896 403.276 157.418 403.276 159.225V209.065C403.276 210.967 401.849 212.394 399.947 212.394Z" stroke="#001E2B" stroke-width="0.4351" stroke-miterlimit="10"/>
<path d="M356.86 188.235C354.102 188.33 351.724 186.047 351.724 183.289C351.724 183.194 351.724 183.099 351.724 183.004C351.724 181.577 352.2 180.245 353.151 179.294C354.102 178.343 355.434 177.772 356.86 177.772C358.287 177.772 359.619 178.343 360.475 179.389L359.619 180.245C358.953 179.389 357.907 178.914 356.86 178.914C355.814 178.914 354.863 179.294 354.102 180.055C353.341 180.816 352.961 181.862 352.961 182.908C352.961 183.955 353.341 185.001 354.102 185.762C354.863 186.523 355.814 186.903 356.86 186.903C358.002 186.903 359.143 186.333 359.904 185.477L360.855 186.428C360.38 186.998 359.809 187.474 359.143 187.759C358.382 188.045 357.621 188.235 356.86 188.235ZM363.138 177.962V187.949H361.901V177.962H363.138ZM364.184 184.525C364.184 183.574 364.469 182.623 365.135 181.957C365.801 181.291 366.752 180.911 367.608 180.911C368.559 180.911 369.415 181.291 370.081 181.957C370.747 182.623 371.127 183.574 371.127 184.525C371.127 185.477 370.842 186.428 370.081 187.093C369.415 187.759 368.559 188.14 367.608 188.14C366.657 188.14 365.706 187.759 365.135 187.093C364.565 186.428 364.184 185.572 364.184 184.525ZM365.516 184.525C365.516 185.191 365.706 185.857 366.182 186.333C367.038 187.189 368.369 187.284 369.225 186.428L369.32 186.333C369.796 185.857 369.986 185.191 369.986 184.525C369.986 183.86 369.796 183.194 369.32 182.718C368.559 181.862 367.133 181.767 366.277 182.623L366.182 182.718C365.706 183.289 365.421 183.955 365.516 184.525ZM378.261 187.949H377.025V186.998H376.929C376.739 187.379 376.359 187.664 376.073 187.854C375.693 188.045 375.217 188.14 374.837 188.235C374.076 188.235 373.41 188.045 372.935 187.474C372.459 186.903 372.174 186.142 372.269 185.477V181.196H373.505V185.381C373.41 186.237 373.981 186.998 374.837 187.093C374.932 187.093 375.122 187.093 375.217 187.093C375.693 187.093 376.169 186.903 376.454 186.523C376.834 186.142 377.025 185.572 376.929 185.001V181.196H378.166L378.261 187.949ZM382.636 188.235C381.78 188.235 380.924 187.854 380.354 187.189C379.688 186.523 379.402 185.572 379.402 184.62C379.402 183.669 379.688 182.718 380.354 182.052C380.924 181.387 381.78 181.006 382.636 181.006C383.112 181.006 383.587 181.101 383.968 181.291C384.348 181.482 384.729 181.767 384.919 182.147H385.014V181.196V178.058H386.251V188.045H385.014V187.093H384.919C384.729 187.474 384.348 187.759 383.968 187.949C383.587 188.14 383.112 188.235 382.636 188.235ZM382.827 186.998C383.397 186.998 383.968 186.808 384.348 186.333C384.729 185.857 385.014 185.191 384.919 184.525C384.919 183.86 384.729 183.289 384.348 182.718C383.968 182.243 383.397 182.052 382.827 182.052C382.256 182.052 381.685 182.338 381.305 182.718C380.924 183.194 380.639 183.86 380.734 184.525C380.734 185.191 380.924 185.762 381.305 186.333C381.685 186.808 382.256 186.998 382.827 186.998Z" fill="#5F6368"/>
<path d="M308.257 188.235C305.118 188.235 302.55 185.762 302.55 182.623C302.645 179.484 305.118 177.011 308.257 177.011C309.684 177.011 311.111 177.582 312.157 178.533L311.015 179.579C310.255 178.818 309.303 178.438 308.257 178.438C305.974 178.438 304.167 180.245 304.167 182.433C304.167 182.433 304.167 182.433 304.167 182.528C304.167 184.811 305.974 186.618 308.162 186.618C308.162 186.618 308.162 186.618 308.257 186.618C309.303 186.618 310.35 186.237 311.111 185.476C311.586 184.906 311.872 184.24 311.967 183.574H308.257V182.052H313.488C313.584 182.338 313.584 182.718 313.584 183.003C313.584 184.335 313.108 185.667 312.252 186.618C311.111 187.664 309.684 188.235 308.257 188.235Z" fill="#4285F4"/>
<path d="M321.574 184.525C321.669 186.523 320.147 188.14 318.15 188.235C316.153 188.33 314.536 186.808 314.441 184.811C314.441 184.715 314.441 184.62 314.441 184.525C314.345 182.528 315.867 180.911 317.865 180.816C319.862 180.721 321.479 182.242 321.574 184.24C321.574 184.335 321.574 184.43 321.574 184.525ZM319.957 184.525C320.052 183.384 319.291 182.433 318.15 182.338C317.009 182.242 316.057 183.003 315.962 184.145C315.962 184.24 315.962 184.43 315.962 184.525C315.867 185.667 316.628 186.618 317.77 186.713C318.911 186.808 319.862 186.047 319.957 184.906C320.052 184.811 320.052 184.715 319.957 184.525Z" fill="#EA4335"/>
<path d="M329.659 184.525C329.754 186.523 328.232 188.14 326.235 188.235C324.237 188.33 322.62 186.808 322.525 184.811C322.525 184.715 322.525 184.62 322.525 184.525C322.43 182.528 323.952 180.911 325.949 180.816C327.947 180.721 329.564 182.242 329.659 184.24C329.659 184.335 329.659 184.43 329.659 184.525ZM328.042 184.525C328.137 183.384 327.281 182.433 326.14 182.338C324.998 182.242 324.047 183.098 323.952 184.24C323.952 184.335 323.952 184.43 323.952 184.525C323.857 185.667 324.713 186.618 325.854 186.713C326.996 186.808 327.947 185.952 328.042 184.811C328.042 184.811 328.042 184.62 328.042 184.525Z" fill="#FBBC04"/>
<path d="M337.458 181.196V187.664C337.458 190.327 335.841 191.469 334.034 191.469C332.608 191.469 331.371 190.613 330.8 189.281L332.227 188.71C332.512 189.471 333.273 189.947 334.034 190.042C335.271 190.042 335.937 189.281 335.937 187.949V187.379C335.461 187.949 334.7 188.235 334.034 188.235C332.037 188.235 330.42 186.618 330.42 184.62C330.42 182.623 332.037 181.006 334.034 181.006C334.795 181.006 335.461 181.291 335.937 181.862H336.032V181.291H337.458V181.196ZM336.032 184.62C336.127 183.479 335.271 182.528 334.129 182.433C334.129 182.433 334.129 182.433 334.034 182.433C332.893 182.433 331.942 183.479 332.037 184.62C331.942 185.762 332.893 186.713 334.034 186.808C335.271 186.713 336.127 185.762 336.032 184.62Z" fill="#4285F4"/>
<path d="M340.311 177.297V187.949H338.694V177.297H340.311Z" fill="#34A853"/>
<path d="M346.589 185.762L347.825 186.618C347.159 187.664 346.018 188.235 344.782 188.235C342.879 188.235 341.262 186.713 341.167 184.811C341.167 184.716 341.167 184.716 341.167 184.62C340.977 182.813 342.404 181.196 344.211 181.006C345.733 180.911 347.159 181.862 347.635 183.289L347.825 183.669L342.974 185.667C343.26 186.332 344.021 186.808 344.782 186.808C345.542 186.808 346.208 186.428 346.589 185.762ZM342.784 184.43L346.018 183.099C345.733 182.623 345.257 182.338 344.686 182.338C343.545 182.433 342.689 183.384 342.784 184.43Z" fill="#EA4335"/>
<path d="M543.856 160.271V209.16C543.856 210.967 542.334 212.489 540.527 212.489H532.918V216.864H433.714C431.906 216.864 430.385 215.342 430.385 213.535V163.6C430.385 161.793 431.906 160.271 433.714 160.271H543.856Z" fill="#001E2B"/>
<path d="M543.856 160.271V209.16C543.856 210.967 542.334 212.489 540.527 212.489H532.918V216.864H433.714C431.906 216.864 430.385 215.342 430.385 213.535V163.6C430.385 161.793 431.906 160.271 433.714 160.271H543.856Z" stroke="#001E2B" stroke-width="0.4351" stroke-miterlimit="10"/>
<path d="M543.856 159.225V209.065C543.856 210.872 542.334 212.394 540.527 212.394H429.338C427.531 212.394 426.009 210.872 426.009 209.065V159.225C426.009 157.418 427.531 155.896 429.338 155.896H540.527C542.429 155.896 543.856 157.418 543.856 159.225Z" fill="white"/>
<path d="M543.856 159.225V209.065C543.856 210.872 542.334 212.394 540.527 212.394H429.338C427.531 212.394 426.009 210.872 426.009 209.065V159.225C426.009 157.418 427.531 155.896 429.338 155.896H540.527C542.429 155.896 543.856 157.418 543.856 159.225Z" stroke="#001E2B" stroke-width="0.4351" stroke-miterlimit="10"/>
<path d="M481.274 173.677C480.798 173.677 480.418 173.963 480.227 174.438L473.855 193.271C473.855 193.366 473.76 193.461 473.76 193.652C473.76 194.222 474.235 194.698 474.806 194.698H479.942C480.418 194.698 480.798 194.412 480.988 193.937L487.361 175.104C487.361 175.009 487.456 174.914 487.456 174.724C487.456 174.153 486.98 173.677 486.41 173.677H481.274Z" fill="url(#paint0_linear_106_18453)"/>
<path d="M486.6 187.279L480.322 187.374C480.132 187.374 479.942 187.564 479.942 187.755C479.942 187.85 480.037 187.945 480.037 188.04L486.79 194.318C486.98 194.508 487.266 194.603 487.646 194.603H495.16L486.6 187.279Z" fill="#0078D3"/>
<path d="M481.273 173.678C480.798 173.678 480.417 173.963 480.227 174.439L473.854 193.271L482.319 190.228L486.79 194.413C486.98 194.603 487.265 194.698 487.646 194.698H495.16L486.695 187.279H483.366L487.551 175.009L486.505 173.583H481.273V173.678Z" fill="url(#paint1_linear_106_18453)"/>
<path d="M481.274 173.677C481.749 173.677 482.13 173.963 482.32 174.438L488.693 193.271C488.693 193.366 488.788 193.461 488.788 193.652C488.788 194.222 488.312 194.698 487.742 194.698H495.161C495.731 194.698 496.207 194.222 496.207 193.652C496.207 193.556 496.207 193.461 496.112 193.271L489.739 174.438C489.549 173.963 489.168 173.677 488.693 173.677H481.274Z" fill="url(#paint2_linear_106_18453)"/>
<path d="M497.63 272.493H199.256V406.319H497.63V272.493Z" fill="#FFEEA9" stroke="#001E2B" stroke-miterlimit="10"/>
<path d="M383.207 329.372H355.339C353.722 329.372 352.485 328.135 352.485 326.518C352.485 324.902 353.722 323.665 355.339 323.665H383.207C384.824 323.665 386.061 324.902 386.061 326.518C386.061 328.04 384.729 329.372 383.207 329.372Z" fill="#001E2B" stroke="#001E2B" stroke-miterlimit="10"/>
<path d="M344.401 316.151H310.825V336.791H344.401V316.151Z" stroke="#001E2B" stroke-miterlimit="10"/>
<path d="M386.061 406.32H352.485C352.485 405.559 352.771 404.798 353.341 404.322C353.817 403.751 354.578 403.466 355.339 403.466H383.207C384.729 403.466 386.061 404.703 386.061 406.32Z" fill="#001E2B" stroke="#001E2B" stroke-miterlimit="10"/>
<path d="M383.207 369.225H355.339C353.722 369.225 352.485 367.988 352.485 366.372C352.485 364.755 353.722 363.518 355.339 363.518H383.207C384.824 363.518 386.061 364.755 386.061 366.372C386.061 367.988 384.729 369.225 383.207 369.225Z" fill="#001E2B" stroke="#001E2B" stroke-miterlimit="10"/>
<path d="M344.4 356.099H310.824V376.739H344.4V356.099Z" stroke="#001E2B" stroke-miterlimit="10"/>
<path d="M344.4 395.952H310.824V406.225H344.4V395.952Z" stroke="#001E2B" stroke-miterlimit="10"/>
<path d="M310.824 323.094H344.4" stroke="#001E2B" stroke-miterlimit="10"/>
<path d="M310.824 329.943H344.4" stroke="#001E2B" stroke-miterlimit="10"/>
<path d="M333.176 395.952V406.32" stroke="#001E2B" stroke-miterlimit="10"/>
<path d="M321.952 395.952V406.32" stroke="#001E2B" stroke-miterlimit="10"/>
<path d="M325.763 363L314.344 356.099H310.824V358.382L320.5 364.201L320.748 364.351M329.367 363L340.786 356.099H344.4V358.382L334.724 364.201C334.724 364.201 334.571 364.293 334.412 364.389M320.748 368.225L320.5 368.376L310.824 374.266V376.739H314.058L325.763 369.65M329.367 369.65L341.071 376.739H344.4V374.266L334.724 368.376L334.412 368.203" stroke="#001E2B" stroke-miterlimit="10"/>
<path d="M344.4 364.374H329.277V356.099H325.853V364.374H310.824V368.274H325.853V376.739H329.277V368.274H344.4V364.374Z" stroke="#001E2B" stroke-miterlimit="10"/>
<path d="M483.932 329.372H456.064C454.447 329.372 453.21 328.135 453.21 326.518C453.21 324.902 454.447 323.665 456.064 323.665H483.932C485.549 323.665 486.786 324.902 486.786 326.518C486.786 328.04 485.549 329.372 483.932 329.372Z" fill="#001E2B" stroke="#001E2B" stroke-miterlimit="10"/>
<path d="M445.221 316.151H411.646V336.791H445.221V316.151Z" stroke="#001E2B" stroke-miterlimit="10"/>
<path d="M428.387 331.464C431.118 331.464 433.333 329.25 433.333 326.518C433.333 323.787 431.118 321.573 428.387 321.573C425.655 321.573 423.441 323.787 423.441 326.518C423.441 329.25 425.655 331.464 428.387 331.464Z" stroke="#001E2B" stroke-miterlimit="10"/>
<path d="M483.933 369.225H456.064C454.447 369.225 453.211 367.988 453.211 366.372C453.211 364.755 454.447 363.518 456.064 363.518H483.933C485.55 363.518 486.786 364.755 486.786 366.372C486.786 367.988 485.55 369.225 483.933 369.225Z" fill="#001E2B" stroke="#001E2B" stroke-miterlimit="10"/>
<path d="M445.221 356.099H411.646V376.739H445.221V356.099Z" stroke="#001E2B" stroke-miterlimit="10"/>
<path d="M428.387 371.317C431.118 371.317 433.333 369.103 433.333 366.372C433.333 363.64 431.118 361.426 428.387 361.426C425.655 361.426 423.441 363.64 423.441 366.372C423.441 369.103 425.655 371.317 428.387 371.317Z" stroke="#001E2B" stroke-miterlimit="10"/>
<path d="M423.441 366.372C424.392 367.323 426.104 368.654 428.387 366.372C429.338 365.42 431.05 364.089 433.333 366.372" stroke="#001E2B" stroke-miterlimit="10"/>
<path d="M416.972 357.716L413.262 361.426" stroke="#001E2B" stroke-miterlimit="10"/>
<path d="M418.017 358.762L414.213 362.472" stroke="#001E2B" stroke-miterlimit="10"/>
<path d="M418.968 359.713L415.259 363.518" stroke="#001E2B" stroke-miterlimit="10"/>
<path d="M439.23 371.603L437.708 373.03" stroke="#001E2B" stroke-miterlimit="10"/>
<path d="M441.513 369.32L439.991 370.747" stroke="#001E2B" stroke-miterlimit="10"/>
<path d="M440.18 372.554L438.754 374.076" stroke="#001E2B" stroke-miterlimit="10"/>
<path d="M442.464 370.366L441.037 371.793" stroke="#001E2B" stroke-miterlimit="10"/>
<path d="M441.226 373.6L439.8 375.122" stroke="#001E2B" stroke-miterlimit="10"/>
<path d="M443.51 371.317L441.988 372.839" stroke="#001E2B" stroke-miterlimit="10"/>
<path d="M439.991 361.996L441.513 363.518" stroke="#001E2B" stroke-miterlimit="10"/>
<path d="M437.708 359.713L439.23 361.235" stroke="#001E2B" stroke-miterlimit="10"/>
<path d="M441.988 359.999L443.51 361.425" stroke="#001E2B" stroke-miterlimit="10"/>
<path d="M439.8 357.716L441.226 359.238" stroke="#001E2B" stroke-miterlimit="10"/>
<path d="M438.754 358.762L442.463 362.472" stroke="#001E2B" stroke-miterlimit="10"/>
<path d="M413.262 371.317L416.971 375.122" stroke="#001E2B" stroke-miterlimit="10"/>
<path d="M415.259 369.32L418.968 373.03" stroke="#001E2B" stroke-miterlimit="10"/>
<path d="M414.213 370.366L415.735 371.793" stroke="#001E2B" stroke-miterlimit="10"/>
<path d="M416.496 372.554L418.018 374.076" stroke="#001E2B" stroke-miterlimit="10"/>
<path d="M486.785 406.32H453.304C453.304 405.559 453.59 404.798 454.16 404.322C454.636 403.752 455.397 403.466 456.158 403.466H483.931C485.548 403.466 486.785 404.703 486.785 406.32Z" fill="#001E2B" stroke="#001E2B" stroke-miterlimit="10"/>
<path d="M445.031 395.952H411.36V406.225H445.031V395.952Z" stroke="#001E2B" stroke-miterlimit="10"/>
<path d="M421.061 406.32L411.359 399.567" stroke="#001E2B" stroke-miterlimit="10"/>
<path d="M445.03 403.847H428.765L417.542 396.047" stroke="#001E2B" stroke-miterlimit="10"/>
<path d="M285.239 406.32H251.759C251.759 405.559 252.044 404.798 252.615 404.322C253.09 403.751 253.851 403.466 254.612 403.466H282.385C284.002 403.466 285.239 404.703 285.239 406.32Z" fill="#001E2B" stroke="#001E2B" stroke-miterlimit="10"/>
<path d="M243.673 356.099H210.098V376.739H243.673V356.099Z" stroke="#001E2B" stroke-miterlimit="10"/>
<path d="M282.383 369.225H254.515C252.898 369.225 251.661 367.988 251.661 366.372C251.661 364.755 252.898 363.518 254.515 363.518H282.383C284 363.518 285.237 364.755 285.237 366.372C285.237 367.988 284 369.225 282.383 369.225Z" fill="#001E2B" stroke="#001E2B" stroke-miterlimit="10"/>
<path d="M243.673 395.952H210.098V406.225H243.673V395.952Z" stroke="#001E2B" stroke-miterlimit="10"/>
<path d="M232.449 356.099V376.739" stroke="#001E2B" stroke-miterlimit="10"/>
<path d="M221.225 356.099V376.739" stroke="#001E2B" stroke-miterlimit="10"/>
<path d="M243.674 316.151H210.099V336.791H243.674V316.151Z" stroke="#001E2B" stroke-miterlimit="10"/>
<path d="M282.384 329.372H254.516C252.899 329.372 251.662 328.135 251.662 326.518C251.662 324.902 252.899 323.665 254.516 323.665H282.384C284.001 323.665 285.238 324.902 285.238 326.518C285.238 328.04 284.001 329.372 282.384 329.372Z" fill="#001E2B" stroke="#001E2B" stroke-miterlimit="10"/>
<path d="M224.84 323.094H243.578" stroke="#001E2B" stroke-miterlimit="10"/>
<path d="M210.098 329.943H243.578" stroke="#001E2B" stroke-miterlimit="10"/>
<path d="M210.098 336.791H243.578" stroke="#001E2B" stroke-miterlimit="10"/>
<path d="M224.84 329.942V316.151" stroke="#001E2B" stroke-miterlimit="10"/>
<path d="M212.952 320.907C213.582 320.907 214.093 320.396 214.093 319.765C214.093 319.135 213.582 318.624 212.952 318.624C212.322 318.624 211.811 319.135 211.811 319.765C211.811 320.396 212.322 320.907 212.952 320.907Z" fill="#001E2B"/>
<path d="M216.852 320.907C217.482 320.907 217.993 320.396 217.993 319.765C217.993 319.135 217.482 318.624 216.852 318.624C216.222 318.624 215.711 319.135 215.711 319.765C215.711 320.396 216.222 320.907 216.852 320.907Z" fill="#001E2B"/>
<path d="M220.751 320.907C221.382 320.907 221.893 320.396 221.893 319.765C221.893 319.135 221.382 318.624 220.751 318.624C220.121 318.624 219.61 319.135 219.61 319.765C219.61 320.396 220.121 320.907 220.751 320.907Z" fill="#001E2B"/>
<path d="M212.952 328.04C213.582 328.04 214.093 327.529 214.093 326.899C214.093 326.269 213.582 325.758 212.952 325.758C212.322 325.758 211.811 326.269 211.811 326.899C211.811 327.529 212.322 328.04 212.952 328.04Z" fill="#001E2B"/>
<path d="M216.852 328.04C217.482 328.04 217.993 327.529 217.993 326.899C217.993 326.269 217.482 325.758 216.852 325.758C216.222 325.758 215.711 326.269 215.711 326.899C215.711 327.529 216.222 328.04 216.852 328.04Z" fill="#001E2B"/>
<path d="M220.751 328.04C221.382 328.04 221.893 327.529 221.893 326.899C221.893 326.269 221.382 325.758 220.751 325.758C220.121 325.758 219.61 326.269 219.61 326.899C219.61 327.529 220.121 328.04 220.751 328.04Z" fill="#001E2B"/>
<path d="M214.568 324.426C215.198 324.426 215.71 323.915 215.71 323.285C215.71 322.654 215.198 322.143 214.568 322.143C213.938 322.143 213.427 322.654 213.427 323.285C213.427 323.915 213.938 324.426 214.568 324.426Z" fill="#001E2B"/>
<path d="M218.467 324.426C219.098 324.426 219.609 323.915 219.609 323.285C219.609 322.654 219.098 322.143 218.467 322.143C217.837 322.143 217.326 322.654 217.326 323.285C217.326 323.915 217.837 324.426 218.467 324.426Z" fill="#001E2B"/>
<path d="M222.367 324.426C222.997 324.426 223.508 323.915 223.508 323.285C223.508 322.654 222.997 322.143 222.367 322.143C221.736 322.143 221.225 322.654 221.225 323.285C221.225 323.915 221.736 324.426 222.367 324.426Z" fill="#001E2B"/>
<path d="M226.838 395.952L235.208 401.183L243.578 406.32H226.838H210.098L218.468 401.183L226.838 395.952Z" stroke="#001E2B" stroke-miterlimit="10"/>
<path d="M555.936 266.12C555.936 272.398 553.368 278.105 549.183 282.195C545.093 286.285 539.386 288.853 533.108 288.948V294.655H169.771C167.773 294.655 165.776 294.37 163.874 293.894C158.642 292.467 154.077 289.233 151.033 284.858C148.465 281.149 146.943 276.678 146.943 271.827C146.943 265.55 149.511 259.843 153.696 255.753C156.455 252.995 159.974 250.902 163.969 249.856C165.871 249.38 167.868 249.095 169.866 249.095H538.91C543.761 249.095 548.232 250.617 551.941 253.185C554.414 256.894 555.936 261.365 555.936 266.12Z" fill="#001E2B"/>
<path d="M555.936 266.12C555.936 272.398 553.368 278.105 549.183 282.195C545.093 286.285 539.386 288.853 533.108 288.948V294.655H169.771C167.773 294.655 165.776 294.37 163.874 293.894C158.642 292.467 154.077 289.233 151.033 284.858C148.465 281.149 146.943 276.678 146.943 271.827C146.943 265.55 149.511 259.843 153.696 255.753C156.455 252.995 159.974 250.902 163.969 249.856C165.871 249.38 167.868 249.095 169.866 249.095H538.91C543.761 249.095 548.232 250.617 551.941 253.185C554.414 256.894 555.936 261.365 555.936 266.12Z" stroke="#001E2B" stroke-width="0.9151" stroke-miterlimit="10"/>
<path d="M555.701 265.827C555.701 272.105 553.132 277.812 548.947 281.902C544.857 285.992 539.151 288.56 532.873 288.655H163.638C158.883 288.655 154.412 287.133 150.798 284.565C144.901 280.475 141.001 273.532 141.001 265.827C141.001 259.55 143.569 253.843 147.754 249.753C151.844 245.663 157.456 243.095 163.733 243H533.063C540.768 243 547.616 246.899 551.706 252.797C554.179 256.601 555.701 261.072 555.701 265.827Z" fill="white"/>
<path d="M555.935 266.12C555.935 272.398 553.367 278.105 549.182 282.195C545.092 286.285 539.385 288.853 533.107 288.948H163.873C159.117 288.948 154.647 287.426 151.032 284.858C145.135 280.768 141.235 273.825 141.235 266.12C141.235 259.843 143.803 254.136 147.988 250.046C152.078 245.956 157.69 243.388 163.968 243.293H533.298C541.002 243.293 547.85 247.193 551.94 253.09C554.413 256.894 555.935 261.365 555.935 266.12Z" stroke="#001E2B" stroke-width="0.9151" stroke-miterlimit="10"/>
<path d="M522.644 279.817H494.871C488.973 279.817 484.218 275.061 484.218 269.164C484.218 263.267 488.973 258.511 494.871 258.511H522.644C528.541 258.511 533.297 263.267 533.297 269.164C533.297 274.966 528.446 279.817 522.644 279.817Z" fill="white" stroke="#001E2B" stroke-miterlimit="10"/>
<path d="M529.874 267.262C529.874 272.303 525.784 276.393 520.743 276.393C515.702 276.393 511.612 272.303 511.612 267.262V261.65H529.874V267.262Z" fill="#001E2B" stroke="#001E2B" stroke-miterlimit="10"/>
<path d="M520.743 270.876C525.785 270.876 529.874 266.788 529.874 261.745C529.874 256.702 525.785 252.614 520.743 252.614C515.7 252.614 511.612 256.702 511.612 261.745C511.612 266.788 515.7 270.876 520.743 270.876Z" fill="#00ED64" stroke="#001E2B" stroke-width="0.9525" stroke-miterlimit="10"/>
<path d="M243.223 260.22L247.957 266.592L252.727 260.22H254.239V273H252.583V263.064L247.975 269.256L243.367 263.064V273H241.693V260.22H243.223ZM260.536 273.18C260.044 273.18 259.594 273.096 259.186 272.928C258.778 272.748 258.43 272.502 258.142 272.19C257.854 271.878 257.626 271.5 257.458 271.056C257.302 270.6 257.224 270.09 257.224 269.526V264H258.772V269.292C258.772 270.048 258.952 270.648 259.312 271.092C259.684 271.536 260.182 271.758 260.806 271.758C261.154 271.758 261.478 271.686 261.778 271.542C262.09 271.386 262.354 271.17 262.57 270.894C262.798 270.606 262.978 270.258 263.11 269.85C263.242 269.442 263.308 268.98 263.308 268.464V264H264.856V273H263.308V271.614C263.008 272.142 262.612 272.538 262.12 272.802C261.64 273.054 261.112 273.18 260.536 273.18ZM267.773 259.5H269.321V273H267.773V259.5ZM275.748 273.09C275.352 273.09 274.986 273.036 274.65 272.928C274.314 272.808 274.02 272.64 273.768 272.424C273.528 272.196 273.336 271.908 273.192 271.56C273.06 271.212 272.994 270.804 272.994 270.336V265.422H271.086V264H272.994V261.498H274.542V264H277.134V265.422H274.542V270.138C274.542 270.714 274.668 271.116 274.92 271.344C275.172 271.56 275.544 271.668 276.036 271.668C276.228 271.668 276.42 271.656 276.612 271.632C276.816 271.596 276.99 271.548 277.134 271.488V272.874C276.942 272.934 276.732 272.982 276.504 273.018C276.276 273.066 276.024 273.09 275.748 273.09ZM279.903 261.588C279.591 261.588 279.327 261.486 279.111 261.282C278.895 261.066 278.787 260.802 278.787 260.49C278.787 260.19 278.895 259.932 279.111 259.716C279.327 259.5 279.591 259.392 279.903 259.392C280.215 259.392 280.473 259.5 280.677 259.716C280.881 259.932 280.983 260.19 280.983 260.49C280.983 260.802 280.881 261.066 280.677 261.282C280.473 261.486 280.215 261.588 279.903 261.588ZM279.111 264H280.659V273H279.111V264ZM283.306 267.186H287.896V268.734H283.306V267.186ZM296.531 273.216C295.595 273.216 294.719 273.048 293.903 272.712C293.099 272.376 292.397 271.914 291.797 271.326C291.209 270.726 290.747 270.024 290.411 269.22C290.075 268.416 289.907 267.546 289.907 266.61C289.907 265.674 290.075 264.804 290.411 264C290.747 263.196 291.209 262.5 291.797 261.912C292.397 261.312 293.099 260.844 293.903 260.508C294.719 260.172 295.595 260.004 296.531 260.004C297.335 260.004 298.079 260.13 298.763 260.382C299.447 260.622 300.053 260.946 300.581 261.354C301.121 261.762 301.565 262.236 301.913 262.776C302.261 263.304 302.507 263.856 302.651 264.432H300.887C300.743 264.036 300.533 263.664 300.257 263.316C299.993 262.968 299.669 262.668 299.285 262.416C298.913 262.152 298.493 261.948 298.025 261.804C297.557 261.66 297.059 261.588 296.531 261.588C295.823 261.588 295.163 261.72 294.551 261.984C293.951 262.236 293.429 262.59 292.985 263.046C292.541 263.49 292.193 264.018 291.941 264.63C291.701 265.242 291.581 265.902 291.581 266.61C291.581 267.318 291.701 267.978 291.941 268.59C292.193 269.202 292.541 269.736 292.985 270.192C293.429 270.636 293.951 270.99 294.551 271.254C295.163 271.506 295.823 271.632 296.531 271.632C297.059 271.632 297.557 271.56 298.025 271.416C298.493 271.272 298.913 271.074 299.285 270.822C299.669 270.558 299.993 270.252 300.257 269.904C300.533 269.556 300.743 269.184 300.887 268.788H302.651C302.507 269.364 302.261 269.922 301.913 270.462C301.565 270.99 301.121 271.458 300.581 271.866C300.053 272.274 299.447 272.604 298.763 272.856C298.079 273.096 297.335 273.216 296.531 273.216ZM304.723 259.5H306.271V273H304.723V259.5ZM313.201 273.18C312.517 273.18 311.887 273.06 311.311 272.82C310.735 272.568 310.237 272.232 309.817 271.812C309.397 271.392 309.067 270.9 308.827 270.336C308.599 269.76 308.485 269.148 308.485 268.5C308.485 267.852 308.599 267.246 308.827 266.682C309.067 266.106 309.397 265.608 309.817 265.188C310.237 264.768 310.735 264.438 311.311 264.198C311.887 263.946 312.517 263.82 313.201 263.82C313.873 263.82 314.497 263.946 315.073 264.198C315.649 264.438 316.147 264.768 316.567 265.188C316.987 265.608 317.311 266.106 317.539 266.682C317.779 267.246 317.899 267.852 317.899 268.5C317.899 269.148 317.779 269.76 317.539 270.336C317.311 270.9 316.987 271.392 316.567 271.812C316.147 272.232 315.649 272.568 315.073 272.82C314.497 273.06 313.873 273.18 313.201 273.18ZM313.201 271.74C313.669 271.74 314.095 271.656 314.479 271.488C314.863 271.32 315.187 271.092 315.451 270.804C315.727 270.504 315.937 270.162 316.081 269.778C316.237 269.382 316.315 268.956 316.315 268.5C316.315 268.056 316.237 267.636 316.081 267.24C315.937 266.844 315.727 266.502 315.451 266.214C315.187 265.914 314.863 265.68 314.479 265.512C314.095 265.344 313.669 265.26 313.201 265.26C312.733 265.26 312.307 265.344 311.923 265.512C311.539 265.68 311.209 265.914 310.933 266.214C310.657 266.502 310.441 266.844 310.285 267.24C310.141 267.636 310.069 268.056 310.069 268.5C310.069 268.956 310.141 269.382 310.285 269.778C310.441 270.162 310.657 270.504 310.933 270.804C311.209 271.092 311.539 271.32 311.923 271.488C312.307 271.656 312.733 271.74 313.201 271.74ZM323.307 273.18C322.815 273.18 322.365 273.096 321.957 272.928C321.549 272.748 321.201 272.502 320.913 272.19C320.625 271.878 320.397 271.5 320.229 271.056C320.073 270.6 319.995 270.09 319.995 269.526V264H321.543V269.292C321.543 270.048 321.723 270.648 322.083 271.092C322.455 271.536 322.953 271.758 323.577 271.758C323.925 271.758 324.249 271.686 324.549 271.542C324.861 271.386 325.125 271.17 325.341 270.894C325.569 270.606 325.749 270.258 325.881 269.85C326.013 269.442 326.079 268.98 326.079 268.464V264H327.627V273H326.079V271.614C325.779 272.142 325.383 272.538 324.891 272.802C324.411 273.054 323.883 273.18 323.307 273.18ZM334.253 273.18C333.617 273.18 333.029 273.06 332.489 272.82C331.961 272.568 331.499 272.232 331.103 271.812C330.707 271.38 330.395 270.882 330.167 270.318C329.951 269.754 329.843 269.148 329.843 268.5C329.843 267.852 329.951 267.246 330.167 266.682C330.395 266.118 330.707 265.626 331.103 265.206C331.499 264.774 331.961 264.438 332.489 264.198C333.029 263.946 333.617 263.82 334.253 263.82C334.937 263.82 335.561 263.976 336.125 264.288C336.689 264.588 337.121 264.954 337.421 265.386V259.5H338.969V273H337.421V271.614C337.121 272.046 336.689 272.418 336.125 272.73C335.561 273.03 334.937 273.18 334.253 273.18ZM334.487 271.758C334.943 271.758 335.357 271.674 335.729 271.506C336.101 271.338 336.419 271.11 336.683 270.822C336.959 270.522 337.169 270.174 337.313 269.778C337.469 269.382 337.547 268.956 337.547 268.5C337.547 268.044 337.469 267.618 337.313 267.222C337.169 266.826 336.959 266.484 336.683 266.196C336.419 265.896 336.101 265.662 335.729 265.494C335.357 265.326 334.943 265.242 334.487 265.242C334.031 265.242 333.611 265.326 333.227 265.494C332.855 265.662 332.531 265.896 332.255 266.196C331.991 266.484 331.781 266.826 331.625 267.222C331.481 267.618 331.409 268.044 331.409 268.5C331.409 268.956 331.481 269.382 331.625 269.778C331.781 270.174 331.991 270.522 332.255 270.822C332.531 271.11 332.855 271.338 333.227 271.506C333.611 271.674 334.031 271.758 334.487 271.758ZM341.955 275.574H340.929L342.135 273C341.919 272.892 341.739 272.736 341.595 272.532C341.463 272.316 341.397 272.07 341.397 271.794C341.397 271.434 341.523 271.122 341.775 270.858C342.039 270.582 342.357 270.444 342.729 270.444C343.101 270.444 343.413 270.582 343.665 270.858C343.929 271.122 344.061 271.434 344.061 271.794C344.061 271.95 344.037 272.094 343.989 272.226C343.941 272.358 343.881 272.484 343.809 272.604L341.955 275.574ZM352.594 260.22L357.328 266.592L362.098 260.22H363.61V273H361.954V263.064L357.346 269.256L352.738 263.064V273H351.064V260.22H352.594ZM369.907 273.18C369.415 273.18 368.965 273.096 368.557 272.928C368.149 272.748 367.801 272.502 367.513 272.19C367.225 271.878 366.997 271.5 366.829 271.056C366.673 270.6 366.595 270.09 366.595 269.526V264H368.143V269.292C368.143 270.048 368.323 270.648 368.683 271.092C369.055 271.536 369.553 271.758 370.177 271.758C370.525 271.758 370.849 271.686 371.149 271.542C371.461 271.386 371.725 271.17 371.941 270.894C372.169 270.606 372.349 270.258 372.481 269.85C372.613 269.442 372.679 268.98 372.679 268.464V264H374.227V273H372.679V271.614C372.379 272.142 371.983 272.538 371.491 272.802C371.011 273.054 370.483 273.18 369.907 273.18ZM377.145 259.5H378.693V273H377.145V259.5ZM385.119 273.09C384.723 273.09 384.357 273.036 384.021 272.928C383.685 272.808 383.391 272.64 383.139 272.424C382.899 272.196 382.707 271.908 382.563 271.56C382.431 271.212 382.365 270.804 382.365 270.336V265.422H380.457V264H382.365V261.498H383.913V264H386.505V265.422H383.913V270.138C383.913 270.714 384.039 271.116 384.291 271.344C384.543 271.56 384.915 271.668 385.407 271.668C385.599 271.668 385.791 271.656 385.983 271.632C386.187 271.596 386.361 271.548 386.505 271.488V272.874C386.313 272.934 386.103 272.982 385.875 273.018C385.647 273.066 385.395 273.09 385.119 273.09ZM389.274 261.588C388.962 261.588 388.698 261.486 388.482 261.282C388.266 261.066 388.158 260.802 388.158 260.49C388.158 260.19 388.266 259.932 388.482 259.716C388.698 259.5 388.962 259.392 389.274 259.392C389.586 259.392 389.844 259.5 390.048 259.716C390.252 259.932 390.354 260.19 390.354 260.49C390.354 260.802 390.252 261.066 390.048 261.282C389.844 261.486 389.586 261.588 389.274 261.588ZM388.482 264H390.03V273H388.482V264ZM392.677 267.186H397.267V268.734H392.677V267.186ZM400.142 260.22H404.498C405.086 260.22 405.614 260.304 406.082 260.472C406.562 260.64 406.964 260.88 407.288 261.192C407.624 261.504 407.876 261.876 408.044 262.308C408.224 262.74 408.314 263.22 408.314 263.748C408.314 264.684 408.032 265.452 407.468 266.052C406.916 266.652 406.142 267.024 405.146 267.168L410.078 273H407.972L403.058 267.186H401.816V273H400.142V260.22ZM404.3 265.692C405.032 265.692 405.602 265.53 406.01 265.206C406.43 264.882 406.64 264.396 406.64 263.748C406.64 263.1 406.43 262.608 406.01 262.272C405.602 261.936 405.032 261.768 404.3 261.768H401.816V265.692H404.3ZM414.904 273.18C414.244 273.18 413.638 273.066 413.086 272.838C412.534 272.598 412.054 272.268 411.646 271.848C411.25 271.428 410.938 270.936 410.71 270.372C410.482 269.796 410.368 269.172 410.368 268.5C410.368 267.84 410.47 267.228 410.674 266.664C410.89 266.088 411.196 265.59 411.592 265.17C411.988 264.75 412.468 264.42 413.032 264.18C413.596 263.94 414.232 263.82 414.94 263.82C415.648 263.82 416.278 263.958 416.83 264.234C417.394 264.498 417.862 264.864 418.234 265.332C418.618 265.788 418.894 266.328 419.062 266.952C419.242 267.564 419.308 268.218 419.26 268.914H411.934C411.946 269.322 412.03 269.7 412.186 270.048C412.354 270.396 412.57 270.702 412.834 270.966C413.098 271.218 413.41 271.416 413.77 271.56C414.13 271.704 414.514 271.776 414.922 271.776C415.486 271.776 415.99 271.662 416.434 271.434C416.89 271.194 417.256 270.804 417.532 270.264H419.116C419.008 270.66 418.834 271.038 418.594 271.398C418.354 271.746 418.054 272.052 417.694 272.316C417.346 272.58 416.938 272.79 416.47 272.946C416.002 273.102 415.48 273.18 414.904 273.18ZM414.886 265.188C414.562 265.188 414.244 265.236 413.932 265.332C413.62 265.428 413.332 265.578 413.068 265.782C412.816 265.986 412.594 266.244 412.402 266.556C412.21 266.868 412.078 267.246 412.006 267.69H417.622C417.478 266.85 417.154 266.226 416.65 265.818C416.146 265.398 415.558 265.188 414.886 265.188ZM425.454 276.942C424.854 276.942 424.302 276.864 423.798 276.708C423.294 276.552 422.85 276.336 422.466 276.06C422.094 275.784 421.788 275.454 421.548 275.07C421.32 274.698 421.17 274.284 421.098 273.828H422.61C422.814 274.428 423.162 274.866 423.654 275.142C424.146 275.43 424.758 275.574 425.49 275.574C425.898 275.574 426.276 275.508 426.624 275.376C426.972 275.244 427.272 275.046 427.524 274.782C427.776 274.518 427.974 274.188 428.118 273.792C428.262 273.408 428.334 272.964 428.334 272.46V271.398C428.022 271.854 427.59 272.232 427.038 272.532C426.486 272.832 425.874 272.982 425.202 272.982C424.578 272.982 423.996 272.868 423.456 272.64C422.916 272.4 422.448 272.076 422.052 271.668C421.656 271.248 421.344 270.762 421.116 270.21C420.9 269.646 420.792 269.04 420.792 268.392C420.792 267.756 420.9 267.162 421.116 266.61C421.344 266.046 421.656 265.56 422.052 265.152C422.448 264.732 422.916 264.408 423.456 264.18C423.996 263.94 424.578 263.82 425.202 263.82C425.874 263.82 426.486 263.97 427.038 264.27C427.59 264.558 428.022 264.93 428.334 265.386V264H429.882V272.442C429.882 273.198 429.762 273.852 429.522 274.404C429.294 274.968 428.982 275.436 428.586 275.808C428.19 276.192 427.722 276.474 427.182 276.654C426.642 276.846 426.066 276.942 425.454 276.942ZM425.418 271.542C425.862 271.542 426.27 271.464 426.642 271.308C427.026 271.152 427.35 270.936 427.614 270.66C427.878 270.372 428.082 270.036 428.226 269.652C428.382 269.268 428.46 268.848 428.46 268.392C428.46 267.948 428.382 267.534 428.226 267.15C428.082 266.754 427.878 266.418 427.614 266.142C427.35 265.866 427.026 265.65 426.642 265.494C426.27 265.326 425.862 265.242 425.418 265.242C424.962 265.242 424.548 265.326 424.176 265.494C423.804 265.65 423.486 265.866 423.222 266.142C422.958 266.418 422.748 266.754 422.592 267.15C422.448 267.534 422.376 267.948 422.376 268.392C422.376 268.848 422.448 269.268 422.592 269.652C422.748 270.036 422.958 270.372 423.222 270.66C423.486 270.936 423.804 271.152 424.176 271.308C424.548 271.464 424.962 271.542 425.418 271.542ZM433.589 261.588C433.277 261.588 433.013 261.486 432.797 261.282C432.581 261.066 432.473 260.802 432.473 260.49C432.473 260.19 432.581 259.932 432.797 259.716C433.013 259.5 433.277 259.392 433.589 259.392C433.901 259.392 434.159 259.5 434.363 259.716C434.567 259.932 434.669 260.19 434.669 260.49C434.669 260.802 434.567 261.066 434.363 261.282C434.159 261.486 433.901 261.588 433.589 261.588ZM432.797 264H434.345V273H432.797V264ZM441.275 273.18C440.591 273.18 439.961 273.06 439.385 272.82C438.809 272.568 438.311 272.232 437.891 271.812C437.471 271.392 437.141 270.9 436.901 270.336C436.673 269.76 436.559 269.148 436.559 268.5C436.559 267.852 436.673 267.246 436.901 266.682C437.141 266.106 437.471 265.608 437.891 265.188C438.311 264.768 438.809 264.438 439.385 264.198C439.961 263.946 440.591 263.82 441.275 263.82C441.947 263.82 442.571 263.946 443.147 264.198C443.723 264.438 444.221 264.768 444.641 265.188C445.061 265.608 445.385 266.106 445.613 266.682C445.853 267.246 445.973 267.852 445.973 268.5C445.973 269.148 445.853 269.76 445.613 270.336C445.385 270.9 445.061 271.392 444.641 271.812C444.221 272.232 443.723 272.568 443.147 272.82C442.571 273.06 441.947 273.18 441.275 273.18ZM441.275 271.74C441.743 271.74 442.169 271.656 442.553 271.488C442.937 271.32 443.261 271.092 443.525 270.804C443.801 270.504 444.011 270.162 444.155 269.778C444.311 269.382 444.389 268.956 444.389 268.5C444.389 268.056 444.311 267.636 444.155 267.24C444.011 266.844 443.801 266.502 443.525 266.214C443.261 265.914 442.937 265.68 442.553 265.512C442.169 265.344 441.743 265.26 441.275 265.26C440.807 265.26 440.381 265.344 439.997 265.512C439.613 265.68 439.283 265.914 439.007 266.214C438.731 266.502 438.515 266.844 438.359 267.24C438.215 267.636 438.143 268.056 438.143 268.5C438.143 268.956 438.215 269.382 438.359 269.778C438.515 270.162 438.731 270.504 439.007 270.804C439.283 271.092 439.613 271.32 439.997 271.488C440.381 271.656 440.807 271.74 441.275 271.74ZM448.195 264H449.743V265.386C450.055 264.846 450.463 264.45 450.967 264.198C451.471 263.946 452.017 263.82 452.605 263.82C453.109 263.82 453.571 263.904 453.991 264.072C454.411 264.24 454.765 264.486 455.053 264.81C455.353 265.122 455.587 265.506 455.755 265.962C455.923 266.406 456.007 266.904 456.007 267.456V273H454.477V267.69C454.477 266.934 454.279 266.34 453.883 265.908C453.499 265.464 452.989 265.242 452.353 265.242C451.993 265.242 451.651 265.314 451.327 265.458C451.015 265.602 450.739 265.818 450.499 266.106C450.271 266.382 450.085 266.724 449.941 267.132C449.809 267.54 449.743 268.008 449.743 268.536V273H448.195V264Z" fill="black"/>
<path d="M125.541 457.788L131.723 468.536L137.906 479.284H125.541H113.176L119.358 468.536L125.541 457.788Z" fill="white" stroke="#061621" stroke-miterlimit="10"/>
<path d="M136.139 478.784H114.943L125.541 472.262L136.139 478.784Z" fill="#001E2B" stroke="#061621"/>
<path d="M125.542 471.675V457.788" stroke="#061621" stroke-miterlimit="10"/>
<path d="M125.541 368V408.233" stroke="#061621" stroke-miterlimit="10"/>
<path d="M125.542 422.12V438.004" stroke="#061621" stroke-miterlimit="10"/>
<defs>
<linearGradient id="paint0_linear_106_18453" x1="480.659" y1="173.691" x2="480.659" y2="194.679" gradientUnits="userSpaceOnUse">
<stop stop-color="#104887"/>
<stop offset="1" stop-color="#0767B9"/>
</linearGradient>
<linearGradient id="paint1_linear_106_18453" x1="483.803" y1="185.647" x2="485.822" y2="184.962" gradientUnits="userSpaceOnUse">
<stop stop-opacity="0"/>
<stop offset="0.5" stop-opacity="0.05"/>
<stop offset="1" stop-opacity="0.25"/>
</linearGradient>
<linearGradient id="paint2_linear_106_18453" x1="488.675" y1="173.691" x2="488.675" y2="194.679" gradientUnits="userSpaceOnUse">
<stop stop-color="#3CCCF4"/>
<stop offset="1" stop-color="#2894E1"/>
</linearGradient>
</defs>
</svg>