<?xml version="1.0" encoding="utf-8"?>
<svg xmlns="http://www.w3.org/2000/svg" width="760" height="674" viewBox="0 0 760 674" fill="none">
<path d="M634.631 0.0116027C623.489 -0.174061 612.423 1.87015 602.082 6.02402C591.742 10.1779 582.336 16.3575 574.419 24.1995C566.502 32.0414 560.233 41.3873 555.981 51.6876C551.729 61.9878 549.579 73.0343 549.659 84.1774V84.8505C549.626 107.19 540.725 128.604 524.912 144.384C509.098 160.164 487.666 169.02 465.326 169.005H464.653C442.311 168.994 420.879 177.852 405.066 193.634C389.253 209.416 380.352 230.83 380.32 253.171C380.291 275.513 371.391 296.929 355.577 312.711C339.763 328.494 318.329 337.352 295.987 337.337H211.665C118.56 337.337 43 412.741 43 505.657C43 598.574 118.526 674 211.632 674C304.738 674 380.287 598.585 380.287 505.668V420.156C380.287 373.698 418.072 336.002 463.946 336.002H633.274C644.304 335.999 655.225 333.817 665.408 329.58C675.592 325.343 684.838 319.136 692.616 311.315C700.393 303.494 706.548 294.213 710.727 284.005C714.906 273.798 717.026 262.865 716.967 251.836V84.1884C718.28 37.7301 680.55 0.695788 634.631 0.0116027Z" fill="#014E3D"/>
<path d="M198.32 382.64V472.38" stroke="#061621" stroke-miterlimit="10" stroke-dasharray="2 2"/>
<path d="M535.83 200.84L379.54 471.57L585.69 590.53L700.59 391.68L670.33 278.52L535.83 200.84Z" fill="white" stroke="#231F20" stroke-miterlimit="10"/>
<path d="M700.59 391.68L670.33 278.52L628.93 350.29L700.59 391.68Z" fill="white" stroke="#231F20" stroke-linejoin="round"/>
<path d="M663.6 290.23L539.54 218.58L395.89 467.39L580.59 573.95L689.46 385.19L628.93 350.29L663.6 290.23Z" fill="#FFE212" stroke="#001E2B" stroke-miterlimit="10"/>
<path d="M636.82 354.81L622.79 367.68L700.59 391.68L636.82 354.81Z" fill="#001E2B"/>
<path d="M643.54 324.78L542.9 266.69C542.429 266.431 542.015 266.079 541.684 265.656C541.352 265.233 541.109 264.748 540.969 264.229C540.829 263.71 540.795 263.168 540.869 262.635C540.943 262.103 541.123 261.591 541.4 261.13L541.63 260.67C541.888 260.198 542.239 259.784 542.662 259.451C543.084 259.118 543.57 258.874 544.089 258.733C544.608 258.592 545.15 258.557 545.683 258.631C546.216 258.704 546.728 258.884 547.19 259.16L648 317.25L643.54 324.78Z" fill="#FFEEA9" stroke="#001E2B" stroke-miterlimit="10"/>
<path d="M604.93 346.46L523.93 299.62C523.458 299.361 523.044 299.01 522.711 298.588C522.378 298.165 522.134 297.68 521.993 297.161C521.852 296.642 521.817 296.1 521.89 295.567C521.964 295.034 522.144 294.522 522.42 294.06L522.65 293.59C522.909 293.118 523.261 292.703 523.685 292.37C524.109 292.038 524.595 291.794 525.115 291.654C525.636 291.514 526.179 291.48 526.712 291.555C527.246 291.63 527.758 291.812 528.22 292.09L609.22 338.93C609.691 339.189 610.106 339.54 610.439 339.962C610.772 340.385 611.016 340.87 611.157 341.389C611.298 341.908 611.333 342.45 611.259 342.983C611.186 343.516 611.006 344.028 610.73 344.49L610.5 344.96C609.93 345.865 609.041 346.522 608.008 346.8C606.976 347.078 605.877 346.956 604.93 346.46V346.46Z" fill="#FFEEA9" stroke="#001E2B" stroke-miterlimit="10"/>
<path d="M634.15 412.2L502.67 336.26C502.198 336.001 501.784 335.65 501.451 335.228C501.118 334.805 500.874 334.32 500.733 333.801C500.592 333.282 500.557 332.74 500.63 332.207C500.704 331.674 500.884 331.162 501.16 330.7L501.4 330.23C501.658 329.758 502.01 329.344 502.432 329.011C502.855 328.678 503.34 328.434 503.859 328.293C504.378 328.152 504.92 328.117 505.453 328.191C505.986 328.264 506.498 328.444 506.96 328.72L638.44 404.72C638.911 404.979 639.326 405.33 639.659 405.752C639.992 406.175 640.236 406.66 640.377 407.179C640.518 407.698 640.553 408.24 640.479 408.773C640.406 409.306 640.226 409.818 639.95 410.28L639.72 410.75C639.456 411.218 639.101 411.628 638.675 411.956C638.25 412.283 637.762 412.522 637.243 412.657C636.723 412.793 636.181 412.822 635.65 412.743C635.118 412.665 634.608 412.48 634.15 412.2V412.2Z" fill="#FFEEA9" stroke="#001E2B" stroke-miterlimit="10"/>
<path d="M591.83 485.6L460.35 409.6C459.878 409.341 459.464 408.99 459.131 408.568C458.798 408.145 458.554 407.66 458.413 407.141C458.272 406.622 458.237 406.08 458.31 405.547C458.384 405.014 458.564 404.502 458.84 404.04L459.08 403.57C459.339 403.099 459.691 402.686 460.114 402.354C460.537 402.022 461.022 401.779 461.541 401.639C462.06 401.499 462.602 401.465 463.134 401.539C463.667 401.613 464.179 401.794 464.64 402.07L596.12 478.01C596.593 478.269 597.009 478.62 597.342 479.043C597.676 479.467 597.921 479.953 598.062 480.473C598.203 480.993 598.237 481.537 598.163 482.071C598.089 482.605 597.907 483.118 597.63 483.58L597.4 484.04C597.139 484.511 596.788 484.926 596.366 485.26C595.944 485.594 595.46 485.841 594.941 485.986C594.423 486.131 593.881 486.172 593.347 486.105C592.813 486.039 592.297 485.867 591.83 485.6Z" fill="#FFEEA9" stroke="#001E2B" stroke-miterlimit="10"/>
<path d="M612.93 449L481.45 373C480.978 372.741 480.563 372.389 480.23 371.965C479.897 371.541 479.654 371.055 479.514 370.534C479.374 370.014 479.34 369.471 479.415 368.938C479.49 368.404 479.672 367.891 479.95 367.43L480.18 366.97C480.438 366.498 480.789 366.084 481.212 365.751C481.634 365.418 482.12 365.174 482.639 365.033C483.158 364.892 483.7 364.857 484.233 364.931C484.766 365.004 485.278 365.184 485.74 365.46L617.22 441.4C617.693 441.659 618.109 442.01 618.442 442.433C618.776 442.857 619.021 443.343 619.162 443.863C619.303 444.384 619.337 444.927 619.263 445.461C619.189 445.995 619.007 446.508 618.73 446.97L618.5 447.43C617.966 448.373 617.081 449.067 616.038 449.362C614.995 449.656 613.878 449.526 612.93 449V449Z" fill="#FFEEA9" stroke="#001E2B" stroke-miterlimit="10"/>
<path d="M570.61 522.35L439.13 446.41C438.658 446.151 438.243 445.798 437.91 445.375C437.577 444.951 437.334 444.465 437.194 443.944C437.053 443.424 437.02 442.881 437.095 442.348C437.17 441.814 437.352 441.301 437.63 440.84L437.86 440.38C438.118 439.908 438.469 439.494 438.892 439.161C439.314 438.828 439.8 438.584 440.319 438.443C440.838 438.302 441.38 438.267 441.913 438.341C442.446 438.414 442.958 438.594 443.42 438.87L574.9 514.82C575.371 515.079 575.786 515.43 576.119 515.852C576.452 516.275 576.696 516.76 576.837 517.279C576.978 517.798 577.013 518.34 576.939 518.873C576.866 519.406 576.686 519.918 576.41 520.38L576.18 520.84C575.632 521.769 574.743 522.447 573.702 522.729C572.661 523.011 571.551 522.875 570.61 522.35V522.35Z" fill="#FFEEA9" stroke="#001E2B" stroke-miterlimit="10"/>
<path d="M401.45 140.9L320.64 442.81L550.56 504.38L610.04 282.46L551.48 181.13L401.45 140.9Z" fill="white" stroke="#231F20" stroke-miterlimit="10"/>
<path d="M610.04 282.46L551.48 181.13L530.15 261.13L610.04 282.46Z" fill="white" stroke="#231F20" stroke-linejoin="round"/>
<path d="M335.71 434.35L409.92 157.36L547.66 194.34L529.69 261.25L597.28 279.45L541.05 489.31L335.71 434.35Z" fill="#B1FF05"/>
<path d="M410 157.71L547.28 194.46L529.57 260.9L529.45 261.48L530.03 261.59L597.03 279.59L540.93 489L336.06 434.12L410 157.71ZM409.65 157.01L335.36 434.47L541.28 489.66L597.63 279.1L530 261L548 194L409.68 157L409.65 157.01Z" fill="#00222F"/>
<path d="M538.96 263.45L528.64 279.56L610.04 282.46L538.96 263.45Z" fill="#001E2B"/>
<path d="M537.69 232.72L425.34 202.58C424.815 202.453 424.321 202.221 423.888 201.897C423.456 201.574 423.093 201.167 422.822 200.699C422.551 200.232 422.377 199.715 422.312 199.179C422.246 198.643 422.29 198.099 422.44 197.58L422.55 197.12C422.677 196.595 422.909 196.101 423.232 195.669C423.556 195.236 423.963 194.873 424.43 194.602C424.898 194.331 425.415 194.158 425.951 194.092C426.487 194.026 427.031 194.07 427.55 194.22L539.9 224.36L537.69 232.72Z" fill="#00ED64" stroke="#001E2B" stroke-miterlimit="10"/>
<path d="M505.92 263.56L415.48 239.33C414.955 239.203 414.461 238.971 414.028 238.647C413.596 238.324 413.233 237.917 412.962 237.449C412.691 236.982 412.517 236.465 412.452 235.929C412.386 235.393 412.43 234.849 412.58 234.33L412.7 233.86C412.827 233.335 413.059 232.841 413.382 232.409C413.706 231.976 414.113 231.613 414.58 231.342C415.048 231.071 415.565 230.898 416.101 230.832C416.637 230.766 417.181 230.81 417.7 230.96L508.14 255.2C508.665 255.327 509.158 255.559 509.591 255.883C510.024 256.206 510.387 256.613 510.658 257.081C510.929 257.548 511.102 258.065 511.168 258.601C511.234 259.137 511.19 259.681 511.04 260.2L510.92 260.67C510.791 261.194 510.558 261.687 510.235 262.118C509.911 262.55 509.503 262.912 509.036 263.182C508.569 263.452 508.052 263.624 507.517 263.689C506.981 263.754 506.438 263.71 505.92 263.56Z" fill="#00ED64" stroke="#001E2B" stroke-miterlimit="10"/>
<path d="M551.25 319.57L404.58 280.26C404.055 280.133 403.561 279.901 403.128 279.577C402.696 279.254 402.333 278.847 402.062 278.379C401.791 277.912 401.617 277.395 401.552 276.859C401.486 276.323 401.53 275.779 401.68 275.26L401.8 274.8C401.927 274.275 402.159 273.781 402.482 273.349C402.806 272.916 403.213 272.553 403.68 272.282C404.148 272.011 404.665 271.838 405.201 271.772C405.737 271.706 406.281 271.75 406.8 271.9L553.46 311.21C553.985 311.337 554.478 311.569 554.911 311.893C555.344 312.216 555.707 312.623 555.978 313.091C556.249 313.558 556.422 314.075 556.488 314.611C556.554 315.147 556.51 315.691 556.36 316.21L556.25 316.68C555.964 317.722 555.279 318.61 554.343 319.151C553.407 319.692 552.296 319.843 551.25 319.57Z" fill="#00ED64" stroke="#001E2B" stroke-miterlimit="10"/>
<path d="M529.22 401.42L382.55 362.12C382.028 361.987 381.539 361.751 381.11 361.426C380.681 361.101 380.321 360.694 380.051 360.228C379.781 359.763 379.606 359.248 379.537 358.715C379.469 358.181 379.507 357.639 379.65 357.12L379.77 356.66C379.897 356.135 380.129 355.641 380.452 355.209C380.776 354.776 381.183 354.413 381.65 354.142C382.118 353.871 382.635 353.697 383.171 353.632C383.707 353.566 384.251 353.61 384.77 353.76L531.55 393.06C532.071 393.193 532.561 393.429 532.99 393.754C533.419 394.079 533.779 394.486 534.049 394.952C534.319 395.417 534.493 395.932 534.562 396.465C534.631 396.999 534.593 397.541 534.45 398.06L534.33 398.52C534.024 399.574 533.319 400.467 532.364 401.009C531.41 401.551 530.282 401.698 529.22 401.42V401.42Z" fill="#00ED64" stroke="#001E2B" stroke-miterlimit="10"/>
<path d="M540.24 360.49L393.57 321.19C393.045 321.063 392.551 320.831 392.118 320.507C391.686 320.184 391.323 319.777 391.052 319.309C390.781 318.842 390.607 318.325 390.542 317.789C390.476 317.253 390.52 316.709 390.67 316.19L390.78 315.73C390.913 315.209 391.149 314.719 391.474 314.29C391.799 313.861 392.206 313.501 392.671 313.231C393.137 312.961 393.651 312.786 394.185 312.718C394.719 312.649 395.261 312.687 395.78 312.83L542.45 352.14C542.975 352.267 543.468 352.499 543.901 352.823C544.334 353.146 544.697 353.553 544.968 354.021C545.239 354.488 545.412 355.005 545.478 355.541C545.544 356.077 545.5 356.621 545.35 357.14L545.23 357.6C545.101 358.123 544.869 358.615 544.546 359.045C544.223 359.476 543.816 359.837 543.35 360.107C542.884 360.377 542.368 360.55 541.834 360.616C541.299 360.682 540.757 360.639 540.24 360.49Z" fill="#00ED64" stroke="#001E2B" stroke-miterlimit="10"/>
<path d="M518.32 442.35L371.65 403.05C371.126 402.922 370.633 402.689 370.201 402.365C369.77 402.041 369.408 401.634 369.138 401.167C368.868 400.699 368.696 400.182 368.63 399.647C368.565 399.111 368.609 398.568 368.76 398.05L368.87 397.59C368.997 397.065 369.229 396.571 369.552 396.139C369.876 395.706 370.283 395.343 370.75 395.072C371.218 394.801 371.735 394.627 372.271 394.562C372.807 394.496 373.351 394.54 373.87 394.69L520.53 434C521.05 434.135 521.539 434.371 521.967 434.696C522.396 435.022 522.755 435.429 523.025 435.894C523.295 436.359 523.47 436.873 523.539 437.406C523.609 437.94 523.571 438.481 523.43 439L523.31 439.46C523.181 439.983 522.949 440.475 522.626 440.905C522.303 441.336 521.896 441.697 521.43 441.967C520.964 442.237 520.448 442.41 519.914 442.476C519.379 442.542 518.837 442.499 518.32 442.35Z" fill="#00ED64" stroke="#001E2B" stroke-miterlimit="10"/>
<path d="M259.19 117.13V429.6H497.34V199.91L414.55 117.13H259.19Z" fill="white" stroke="#231F20" stroke-miterlimit="10"/>
<path d="M497.34 199.91L414.55 117.13V199.91H497.34Z" fill="white" stroke="#231F20" stroke-linejoin="round"/>
<path d="M414.55 130.58H271.36V417.77H484.58V199.91H414.55V130.58Z" fill="#FFE212" stroke="#001E2B" stroke-miterlimit="10"/>
<path d="M423.71 199.91L417.92 218.11L497.34 199.91H423.71Z" fill="#001E2B"/>
<path d="M414.55 170.46H298.26C297.187 170.447 296.162 170.015 295.403 169.257C294.645 168.498 294.213 167.473 294.2 166.4V165.82C294.215 164.748 294.648 163.724 295.406 162.966C296.164 162.208 297.188 161.776 298.26 161.76H414.55V170.46Z" fill="#FFEEA9" stroke="#001E2B" stroke-miterlimit="10"/>
<path d="M391.94 208.49H298.26C297.187 208.477 296.162 208.045 295.403 207.287C294.645 206.528 294.213 205.503 294.2 204.43V203.85C294.215 202.778 294.648 201.754 295.406 200.996C296.164 200.238 297.188 199.806 298.26 199.79H391.94C393.012 199.803 394.038 200.235 394.796 200.994C395.555 201.752 395.987 202.777 396 203.85V204.43C396.008 204.965 395.908 205.497 395.707 205.993C395.506 206.489 395.207 206.94 394.829 207.319C394.45 207.698 393.999 207.996 393.503 208.197C393.007 208.399 392.475 208.498 391.94 208.49Z" fill="#FFEEA9" stroke="#001E2B" stroke-miterlimit="10"/>
<path d="M450.15 250.93H298.26C297.188 250.914 296.164 250.482 295.406 249.724C294.648 248.966 294.215 247.942 294.2 246.87V246.29C294.215 245.218 294.648 244.194 295.406 243.436C296.164 242.678 297.188 242.245 298.26 242.23H450.15C451.222 242.245 452.245 242.678 453.003 243.436C453.761 244.194 454.194 245.218 454.21 246.29V246.87C454.194 247.942 453.761 248.966 453.003 249.724C452.245 250.482 451.222 250.914 450.15 250.93V250.93Z" fill="#FFEEA9" stroke="#001E2B" stroke-miterlimit="10"/>
<path d="M450.15 335.68H298.26C297.187 335.667 296.162 335.235 295.403 334.477C294.645 333.718 294.213 332.693 294.2 331.62V331C294.228 329.938 294.667 328.928 295.424 328.182C296.181 327.436 297.197 327.013 298.26 327H450.15C451.212 327.013 452.229 327.436 452.986 328.182C453.743 328.928 454.181 329.938 454.21 331V331.58C454.207 332.66 453.78 333.695 453.02 334.462C452.26 335.229 451.229 335.667 450.15 335.68V335.68Z" fill="#FFEEA9" stroke="#001E2B" stroke-miterlimit="10"/>
<path d="M378.49 293.25H298.26C297.188 293.234 296.164 292.802 295.406 292.044C294.648 291.286 294.215 290.262 294.2 289.19V288.72C294.215 287.649 294.648 286.626 295.407 285.87C296.165 285.113 297.189 284.683 298.26 284.67H378.49C379.562 284.68 380.587 285.11 381.346 285.867C382.104 286.624 382.537 287.648 382.55 288.72V289.3C382.561 289.831 382.463 290.359 382.262 290.851C382.061 291.343 381.76 291.788 381.379 292.159C380.998 292.529 380.545 292.817 380.048 293.005C379.551 293.193 379.02 293.276 378.49 293.25V293.25Z" fill="#FFEEA9" stroke="#001E2B" stroke-miterlimit="10"/>
<path d="M450.15 293.25H407.15C406.078 293.234 405.054 292.802 404.296 292.044C403.538 291.286 403.105 290.262 403.09 289.19V288.72C403.105 287.649 403.538 286.626 404.297 285.87C405.055 285.113 406.079 284.683 407.15 284.67H450.15C451.221 284.683 452.245 285.113 453.003 285.87C453.761 286.626 454.194 287.649 454.21 288.72V289.3C454.203 289.826 454.093 290.346 453.885 290.829C453.678 291.313 453.377 291.751 452.999 292.117C452.622 292.484 452.176 292.773 451.688 292.968C451.199 293.162 450.676 293.258 450.15 293.25V293.25Z" fill="#FFEEA9" stroke="#001E2B" stroke-miterlimit="10"/>
<path d="M341.28 378H298.28C297.207 377.987 296.182 377.555 295.423 376.797C294.665 376.038 294.233 375.013 294.22 373.94V373.36C294.235 372.289 294.668 371.266 295.427 370.51C296.185 369.753 297.209 369.323 298.28 369.31H341.28C342.35 369.323 343.372 369.754 344.129 370.511C344.886 371.267 345.317 372.29 345.33 373.36V373.94C345.338 374.475 345.239 375.005 345.038 375.501C344.838 375.996 344.54 376.447 344.162 376.825C343.785 377.204 343.335 377.503 342.84 377.704C342.345 377.906 341.814 378.007 341.28 378V378Z" fill="#001E2B" stroke="#001E2B" stroke-miterlimit="10"/>
<path d="M450.15 378H365.39C364.317 377.987 363.292 377.555 362.533 376.797C361.775 376.038 361.343 375.013 361.33 373.94V373.36C361.345 372.289 361.778 371.266 362.537 370.51C363.295 369.753 364.319 369.323 365.39 369.31H450.15C451.221 369.323 452.244 369.753 453.003 370.51C453.761 371.266 454.194 372.289 454.21 373.36V373.94C454.218 374.475 454.118 375.007 453.917 375.503C453.716 375.999 453.417 376.45 453.039 376.829C452.66 377.208 452.209 377.506 451.713 377.707C451.217 377.909 450.685 378.008 450.15 378V378Z" fill="#001E2B" stroke="#001E2B" stroke-miterlimit="10"/>
<path d="M682.04 152.72C689.341 152.72 695.26 146.801 695.26 139.5C695.26 132.199 689.341 126.28 682.04 126.28C674.739 126.28 668.82 132.199 668.82 139.5C668.82 146.801 674.739 152.72 682.04 152.72Z" fill="white" stroke="#061621" stroke-miterlimit="10"/>
<path d="M690.27 129.07C690.27 129.07 689.11 146.58 677.86 152.07C682.27 153.8 691.08 152.65 693.98 145.46C696.88 138.27 693.75 132.78 690.27 129.07Z" fill="#061621" stroke="#061621" stroke-miterlimit="10"/>
<path d="M661.75 258.23C662.078 258.027 662.386 257.792 662.67 257.53" stroke="#001E2B" stroke-miterlimit="10"/>
<path d="M664.53 256.14C677.53 245.24 679.53 225.53 665.22 206.14C648.99 184.58 651.43 166.14 661.63 156.87" stroke="#061621" stroke-miterlimit="10" stroke-dasharray="1.99 1.99"/>
<path d="M662.44 156.2C662.79 155.97 663.02 155.74 663.37 155.5" stroke="#061621" stroke-miterlimit="10"/>
<path d="M198.32 489.19L206.78 503.92L215.36 518.64H198.32H181.27L189.85 503.92L198.32 489.19Z" fill="white" stroke="#061621" stroke-miterlimit="10"/>
<path d="M198.32 508.32L181.27 518.64H215.36L198.32 508.32Z" fill="#061621"/>
<path d="M198.32 508.32V489.19" stroke="#061621" stroke-miterlimit="10"/>
<path d="M259.19 371.39L336.75 338.58L348.23 310.29L308.58 216.72L266.26 234.58L259.19 218V371.39Z" fill="#001E2B"/>
<path d="M106.02 291.74L117.5 263.45L268.58 199.45L308.23 293.01L296.87 321.3L145.68 385.31L106.02 291.74Z" fill="#B1FF05" stroke="#001E2B" stroke-miterlimit="10"/>
<path d="M257.238 227.669L106.054 291.688L145.706 385.328L296.89 321.31L257.238 227.669Z" fill="#B1FF05" stroke="#001E2B" stroke-miterlimit="10"/>
<path d="M268.58 199.45L257.22 227.74" stroke="#001E2B" stroke-miterlimit="10"/>
<path d="M212.93 311L219.77 327.23L202.84 334.42L196 318.17C191.751 317.751 187.763 315.928 184.666 312.99C181.569 310.052 179.538 306.165 178.896 301.945C178.253 297.724 179.035 293.41 181.117 289.683C183.199 285.956 186.464 283.029 190.395 281.364C194.327 279.699 198.7 279.391 202.826 280.489C206.952 281.586 210.594 284.027 213.178 287.426C215.762 290.824 217.141 294.986 217.096 299.255C217.051 303.524 215.585 307.657 212.93 311V311Z" fill="white" stroke="#00222F" stroke-miterlimit="10"/>
<path d="M188.11 303.22C189.45 306.394 191.622 309.147 194.399 311.187C197.175 313.227 200.451 314.479 203.88 314.81L210.72 331L202.84 334.37L196 318.17C191.754 317.756 187.767 315.937 184.672 313.001C181.576 310.066 179.548 306.181 178.908 301.963C178.269 297.745 179.055 293.435 181.142 289.714C183.229 285.993 186.497 283.074 190.43 281.42C191.789 280.889 193.186 280.461 194.61 280.14C191.065 282.676 188.49 286.344 187.309 290.539C186.127 294.734 186.41 299.207 188.11 303.22V303.22Z" fill="#001E2B"/>
<path d="M208.17 174.52C202.881 162.032 192.849 152.157 180.279 147.066C167.71 141.976 153.633 142.087 141.145 147.375C128.657 152.663 118.782 162.696 113.691 175.266C108.6 187.835 108.711 201.912 114 214.4L136.4 267.16C137.56 269.83 143.01 269.94 148.69 267.62C154.37 265.3 158.08 261.13 156.93 258.46L134.55 205.71C131.73 198.699 131.774 190.861 134.674 183.882C137.573 176.903 143.096 171.342 150.055 168.393C157.013 165.445 164.85 165.345 171.881 168.116C178.912 170.887 184.574 176.307 187.65 183.21L210 236C211.16 238.67 216.61 238.78 222.29 236.46C227.97 234.14 231.68 229.97 230.52 227.3L208.17 174.52Z" fill="#B1FF05" stroke="#001E2B" stroke-miterlimit="10"/>
<path d="M477.861 535.133H269.198C256.439 535.133 246 524.681 246 511.906V498.085H501.058V511.906C501.058 524.681 490.619 535.133 477.861 535.133Z" fill="#001E2B" stroke="#001E2B" stroke-width="0.5" stroke-miterlimit="10"/>
<path d="M476.121 522.939H270.938C257.251 522.939 246 511.673 246 497.969C246 484.265 257.251 473 270.938 473H476.121C489.808 473 501.058 484.265 501.058 497.969C501.058 511.673 489.808 522.939 476.121 522.939Z" fill="white" stroke="#231F20" stroke-width="0.5" stroke-miterlimit="10"/>
<path d="M279.985 502.266H281.956C282.072 503.079 282.42 503.66 283.116 504.125C283.812 504.589 284.508 504.821 285.32 504.821C286.132 504.821 286.828 504.589 287.408 504.241C287.988 503.776 288.22 503.312 288.22 502.615C288.22 501.453 287.524 500.524 286.016 500.06L283.928 499.247C282.768 498.782 281.84 498.202 281.26 497.505C280.681 496.808 280.333 495.879 280.333 494.834C280.333 493.556 280.797 492.627 281.608 491.93C282.536 491.233 283.58 490.885 284.972 490.885C286.48 490.885 287.64 491.35 288.452 492.163C289.264 492.975 289.728 494.021 289.844 495.066H287.872C287.64 494.253 287.292 493.788 286.828 493.324C286.248 492.975 285.668 492.743 284.972 492.743C284.16 492.743 283.58 492.975 283.116 493.324C282.652 493.672 282.42 494.253 282.42 494.834C282.42 495.53 282.652 495.995 283 496.343C283.348 496.692 283.928 497.04 284.74 497.273L286.712 497.969C289.148 498.898 290.424 500.408 290.424 502.499C290.424 503.776 289.96 504.821 289.032 505.634C288.104 506.447 286.944 506.796 285.436 506.796C283.812 506.796 282.536 506.331 281.608 505.518C280.565 504.473 280.101 503.428 279.985 502.266Z" fill="black"/>
<path d="M306.546 506.447H304.806L295.411 494.369V506.447H293.439V491.001H295.179L304.574 503.079V491.001H306.546V506.447Z" fill="black"/>
<path d="M323.828 506.447H322.088L312.693 494.369V506.447H310.722V491.001H312.461L321.856 503.079V491.001H323.828V506.447Z" fill="black"/>
<path d="M332.295 494.485L334.615 490.885H335.891L334.383 494.021C334.963 494.369 335.311 494.834 335.311 495.53C335.311 495.995 335.195 496.343 334.847 496.692C334.499 497.04 334.151 497.156 333.687 497.156C333.223 497.156 332.875 497.04 332.527 496.692C332.179 496.343 332.063 495.995 332.063 495.53C332.063 495.182 332.179 494.834 332.295 494.485ZM336.355 494.485L338.675 490.885H339.951L338.443 494.021C339.023 494.369 339.371 494.834 339.371 495.53C339.371 495.995 339.255 496.343 338.907 496.692C338.559 497.04 338.211 497.156 337.747 497.156C337.283 497.156 336.935 497.04 336.587 496.692C336.239 496.343 336.123 495.995 336.123 495.53C336.123 495.182 336.239 494.834 336.355 494.485Z" fill="black"/>
<path d="M342.386 506.446V495.529H344.242V497.62C344.474 496.923 344.822 496.458 345.402 495.994C345.982 495.529 346.562 495.413 347.258 495.413C347.606 495.413 347.838 495.413 348.07 495.529V497.504C347.722 497.387 347.374 497.387 347.026 497.387C346.214 497.387 345.634 497.736 345.054 498.316C344.474 499.013 344.126 499.942 344.126 501.104V506.562H342.386V506.446Z" fill="black"/>
<path d="M349.462 502.266H351.433C351.665 502.963 352.013 503.66 352.593 504.124C353.173 504.589 353.869 504.821 354.681 504.821C355.609 504.821 356.421 504.473 357.001 503.892C357.697 503.195 357.929 502.499 357.929 501.569C357.929 500.64 357.581 499.827 357.001 499.247C356.421 498.55 355.609 498.318 354.681 498.318C353.405 498.318 352.361 498.898 351.781 499.944L350.042 499.363L351.665 491.117H358.857V492.975H353.173L352.361 497.389C353.057 496.808 353.985 496.576 355.029 496.576C356.421 496.576 357.697 497.04 358.625 498.085C359.553 499.131 360.017 500.408 360.017 501.918C360.017 503.311 359.553 504.473 358.509 505.402C357.465 506.331 356.305 506.796 354.797 506.796C353.405 506.796 352.245 506.331 351.201 505.518C349.926 504.473 349.462 503.428 349.462 502.266Z" fill="black"/>
<path d="M362.8 506.447V491.001H371.847V492.975H364.888V497.621H370.572V499.595H364.888V504.589H371.847V506.563H362.8V506.447Z" fill="black"/>
<path d="M374.979 504.937C373.935 503.776 373.471 502.499 373.471 500.873C373.471 499.247 373.935 497.969 374.979 496.808C376.023 495.647 377.299 495.182 378.807 495.182C379.619 495.182 380.315 495.414 381.01 495.763C381.706 496.111 382.286 496.576 382.634 497.156V495.53H384.49V506.447H382.634V504.821C382.286 505.402 381.706 505.867 381.01 506.215C380.315 506.563 379.619 506.796 378.807 506.796C377.299 506.68 376.023 506.099 374.979 504.937ZM381.706 503.776C382.402 502.963 382.75 502.034 382.75 500.989C382.75 499.944 382.402 498.898 381.706 498.202C381.01 497.389 380.083 497.04 379.039 497.04C377.995 497.04 377.067 497.389 376.371 498.202C375.675 499.014 375.327 499.944 375.327 500.989C375.327 502.034 375.675 503.079 376.371 503.776C377.067 504.589 377.995 504.937 379.039 504.937C380.083 504.937 381.01 504.473 381.706 503.776Z" fill="black"/>
<path d="M400.149 500.408C400.149 502.266 399.569 503.892 398.525 504.937C397.365 506.099 395.973 506.68 394.117 506.68C392.261 506.68 390.87 506.099 389.71 504.937C388.55 503.776 388.086 502.266 388.086 500.408V491.001H390.058V500.524C390.058 501.918 390.406 502.963 391.101 503.66C391.797 504.473 392.841 504.821 394.001 504.821C395.277 504.821 396.205 504.473 396.901 503.66C397.597 502.847 397.945 501.802 397.945 500.524V491.001H399.917V500.408H400.149Z" fill="black"/>
<path d="M413.835 502.615C413.487 503.776 412.907 504.821 411.863 505.518C410.82 506.331 409.66 506.679 408.384 506.679C406.76 506.679 405.368 506.099 404.324 505.054C403.28 504.008 402.7 502.615 402.7 500.989C402.7 499.363 403.28 498.085 404.324 496.924C405.368 495.879 406.76 495.298 408.384 495.298C409.776 495.298 410.936 495.647 411.863 496.459C412.907 497.272 413.487 498.202 413.835 499.363H411.863C411.631 498.666 411.167 498.085 410.588 497.621C410.008 497.156 409.196 496.924 408.384 496.924C407.224 496.924 406.412 497.272 405.6 498.085C404.904 498.898 404.556 499.827 404.556 500.873C404.556 501.918 404.904 502.963 405.6 503.66C406.296 504.473 407.224 504.821 408.384 504.821C409.196 504.821 409.892 504.589 410.588 504.124C411.167 503.66 411.631 503.079 411.863 502.382H413.835V502.615Z" fill="black"/>
<path d="M415.807 507.376H417.663C418.127 508.77 419.287 509.467 421.142 509.467C422.186 509.467 422.998 509.118 423.578 508.422C424.274 507.725 424.506 506.796 424.506 505.634V504.357C424.158 504.937 423.578 505.402 422.882 505.75C422.186 506.099 421.49 506.331 420.678 506.331C419.171 506.331 417.895 505.75 416.851 504.705C415.807 503.66 415.343 502.266 415.343 500.757C415.343 499.247 415.807 497.853 416.851 496.808C417.895 495.763 419.171 495.182 420.678 495.182C421.49 495.182 422.186 495.414 422.882 495.763C423.578 496.111 424.042 496.576 424.506 497.156V495.53H426.362V505.75C426.362 507.492 425.898 508.886 424.854 509.815C423.81 510.744 422.534 511.209 421.026 511.209C419.635 511.209 418.359 510.86 417.431 510.164C416.503 509.467 416.039 508.538 415.807 507.376ZM423.694 503.544C424.39 502.847 424.738 501.918 424.738 500.757C424.738 499.595 424.39 498.782 423.694 497.969C422.998 497.272 422.07 496.924 421.026 496.924C419.983 496.924 419.055 497.272 418.359 497.969C417.663 498.666 417.315 499.595 417.315 500.757C417.315 501.918 417.663 502.731 418.359 503.544C419.055 504.241 419.983 504.589 421.026 504.589C422.186 504.589 422.998 504.241 423.694 503.544Z" fill="black"/>
<path d="M439.353 504.589V506.447H429.378V505.75C429.378 505.17 429.494 504.705 429.61 504.241C429.726 503.776 429.958 503.312 430.19 502.963C430.421 502.615 430.769 502.266 431.117 501.802C431.581 501.337 431.929 501.105 432.161 500.873C432.393 500.64 432.857 500.408 433.437 499.944C434.017 499.479 434.365 499.247 434.597 499.131C435.641 498.318 436.337 497.737 436.685 497.156C437.033 496.576 437.265 495.995 437.265 495.182C437.265 494.369 437.033 493.788 436.453 493.208C435.873 492.743 435.293 492.511 434.365 492.511C433.437 492.511 432.741 492.743 432.045 493.324C431.465 493.905 431.117 494.601 431.117 495.53H429.146C429.146 494.021 429.61 492.859 430.653 492.046C431.581 491.117 432.857 490.653 434.249 490.653C435.641 490.653 436.801 491.001 437.613 491.814C438.541 492.627 439.005 493.672 439.005 495.182C439.005 496.343 438.773 497.273 438.193 497.969C437.613 498.782 436.685 499.595 435.409 500.524C435.177 500.64 434.829 500.873 434.365 501.221C433.901 501.57 433.553 501.802 433.321 501.918C433.089 502.15 432.857 502.383 432.509 502.615C432.161 502.847 431.929 503.195 431.813 503.428C431.697 503.66 431.581 504.008 431.465 504.357H439.353V504.589Z" fill="black"/>
<path d="M448.632 506.447V502.266H440.396V500.757L448.864 491.001H450.487V500.524H452.575V502.266H450.487V506.447H448.632ZM448.632 500.408V493.788L442.832 500.408H448.632Z" fill="black"/>
<path d="M456.403 506.447V492.859H453.387L454.895 491.001H458.259V506.447H456.403Z" fill="black"/>
<path d="M464.87 493.323L462.666 496.923H461.39L462.898 493.787C462.666 493.671 462.434 493.439 462.202 493.206C462.086 492.974 461.97 492.626 461.97 492.394C461.97 491.929 462.086 491.581 462.434 491.232C462.782 490.884 463.13 490.768 463.594 490.768C464.058 490.768 464.406 490.884 464.754 491.232C465.102 491.581 465.218 491.929 465.218 492.394C465.218 492.626 465.102 492.974 464.87 493.323ZM468.93 493.323L466.726 496.923H465.45L466.958 493.787C466.726 493.671 466.494 493.439 466.262 493.206C466.146 492.974 466.03 492.626 466.03 492.394C466.03 491.929 466.146 491.581 466.494 491.232C466.842 490.884 467.19 490.768 467.654 490.768C468.118 490.768 468.466 490.884 468.814 491.232C469.162 491.581 469.278 491.929 469.278 492.394C469.162 492.626 469.162 492.974 468.93 493.323Z" fill="black"/>
</svg>